Amiamie-BlackItalicRound.ufo
<glyph name="quotedbl" format="2">
	<advance width="410"/>
	<unicode hex="0022"/>
	<note>
		quotedbl
	</note>
	<outline>
		<contour>
			<point x="203" y="450"/>
			<point x="210" y="475" type="curve" smooth="yes"/>
			<point x="258" y="656" type="line" smooth="yes"/>
			<point x="259" y="661"/>
			<point x="260" y="668"/>
			<point x="260" y="674" type="curve" smooth="yes"/>
			<point x="260" y="713"/>
			<point x="229" y="744"/>
			<point x="190" y="744" type="curve" smooth="yes"/>
			<point x="155" y="744"/>
			<point x="126" y="718"/>
			<point x="121" y="685" type="curve" smooth="yes"/>
			<point x="92" y="500" type="line" smooth="yes"/>
			<point x="87" y="466"/>
			<point x="112" y="430"/>
			<point x="151" y="430" type="curve" smooth="yes"/>
			<point x="179" y="430"/>
		</contour>
		<contour>
			<point x="393" y="450"/>
			<point x="400" y="475" type="curve" smooth="yes"/>
			<point x="448" y="656" type="line" smooth="yes"/>
			<point x="449" y="661"/>
			<point x="450" y="668"/>
			<point x="450" y="674" type="curve" smooth="yes"/>
			<point x="450" y="713"/>
			<point x="419" y="744"/>
			<point x="380" y="744" type="curve" smooth="yes"/>
			<point x="345" y="744"/>
			<point x="316" y="718"/>
			<point x="311" y="685" type="curve" smooth="yes"/>
			<point x="282" y="500" type="line" smooth="yes"/>
			<point x="277" y="466"/>
			<point x="302" y="430"/>
			<point x="341" y="430" type="curve" smooth="yes"/>
			<point x="369" y="430"/>
		</contour>
	</outline>
</glyph>
<glyph name="numbersign" format="2">
	<advance width="662"/>
	<unicode hex="0023"/>
	<note>
		numbersign
	</note>
	<outline>
		<contour>
			<point x="473" y="297" type="line"/>
			<point x="514" y="393" type="line"/>
			<point x="589" y="393" type="line" smooth="yes"/>
			<point x="615" y="393"/>
			<point x="637" y="414"/>
			<point x="637" y="441" type="curve" smooth="yes"/>
			<point x="637" y="468"/>
			<point x="615" y="489"/>
			<point x="589" y="489" type="curve" smooth="yes"/>
			<point x="555" y="489" type="line"/>
			<point x="616" y="634" type="line" smooth="yes"/>
			<point x="618" y="640"/>
			<point x="620" y="646"/>
			<point x="620" y="652" type="curve" smooth="yes"/>
			<point x="620" y="678"/>
			<point x="599" y="699"/>
			<point x="573" y="699" type="curve" smooth="yes"/>
			<point x="553" y="699"/>
			<point x="537" y="686"/>
			<point x="530" y="670" type="curve" smooth="yes"/>
			<point x="453" y="489" type="line"/>
			<point x="366" y="489" type="line"/>
			<point x="427" y="634" type="line" smooth="yes"/>
			<point x="429" y="640"/>
			<point x="431" y="646"/>
			<point x="431" y="652" type="curve" smooth="yes"/>
			<point x="431" y="678"/>
			<point x="410" y="699"/>
			<point x="384" y="699" type="curve" smooth="yes"/>
			<point x="364" y="699"/>
			<point x="348" y="686"/>
			<point x="341" y="670" type="curve" smooth="yes"/>
			<point x="264" y="489" type="line"/>
			<point x="178" y="489" type="line" smooth="yes"/>
			<point x="152" y="489"/>
			<point x="130" y="468"/>
			<point x="130" y="441" type="curve" smooth="yes"/>
			<point x="130" y="414"/>
			<point x="152" y="393"/>
			<point x="178" y="393" type="curve" smooth="yes"/>
			<point x="223" y="393" type="line"/>
			<point x="182" y="297" type="line"/>
			<point x="107" y="297" type="line" smooth="yes"/>
			<point x="81" y="297"/>
			<point x="59" y="276"/>
			<point x="59" y="249" type="curve" smooth="yes"/>
			<point x="59" y="222"/>
			<point x="81" y="201"/>
			<point x="107" y="201" type="curve" smooth="yes"/>
			<point x="141" y="201" type="line"/>
			<point x="80" y="56" type="line" smooth="yes"/>
			<point x="78" y="50"/>
			<point x="76" y="44"/>
			<point x="76" y="38" type="curve" smooth="yes"/>
			<point x="76" y="12"/>
			<point x="97" y="-9"/>
			<point x="123" y="-9" type="curve" smooth="yes"/>
			<point x="143" y="-9"/>
			<point x="159" y="4"/>
			<point x="166" y="20" type="curve" smooth="yes"/>
			<point x="243" y="201" type="line"/>
			<point x="330" y="201" type="line"/>
			<point x="269" y="56" type="line" smooth="yes"/>
			<point x="267" y="50"/>
			<point x="265" y="44"/>
			<point x="265" y="38" type="curve" smooth="yes"/>
			<point x="265" y="12"/>
			<point x="286" y="-9"/>
			<point x="312" y="-9" type="curve" smooth="yes"/>
			<point x="332" y="-9"/>
			<point x="348" y="4"/>
			<point x="355" y="20" type="curve" smooth="yes"/>
			<point x="432" y="201" type="line"/>
			<point x="518" y="201" type="line" smooth="yes"/>
			<point x="544" y="201"/>
			<point x="566" y="222"/>
			<point x="566" y="249" type="curve" smooth="yes"/>
			<point x="566" y="276"/>
			<point x="544" y="297"/>
			<point x="518" y="297" type="curve" smooth="yes"/>
		</contour>
		<contour>
			<point x="324" y="393" type="line"/>
			<point x="411" y="393" type="line"/>
			<point x="371" y="297" type="line"/>
			<point x="284" y="297" type="line"/>
		</contour>
	</outline>
</glyph>
<glyph name="ampersand" format="2">
	<advance width="688"/>
	<unicode hex="0026"/>
	<note>
		ampersand
	</note>
	<outline>
		<contour>
			<point x="686" y="420"/>
			<point x="648" y="420" type="curve" smooth="yes"/>
			<point x="633" y="420" type="line"/>
			<point x="632" y="469"/>
			<point x="592" y="508"/>
			<point x="543" y="508" type="curve" smooth="yes"/>
			<point x="499" y="508"/>
			<point x="464" y="477"/>
			<point x="456" y="436" type="curve" smooth="yes"/>
			<point x="453" y="420" type="line"/>
			<point x="436" y="420" type="line" smooth="yes"/>
			<point x="420" y="420"/>
			<point x="398" y="420"/>
			<point x="380" y="421" type="curve" smooth="yes"/>
			<point x="340" y="423"/>
			<point x="313" y="447"/>
			<point x="324" y="498" type="curve" smooth="yes"/>
			<point x="334" y="549"/>
			<point x="367" y="572"/>
			<point x="426" y="572" type="curve" smooth="yes"/>
			<point x="442" y="572"/>
			<point x="455" y="572"/>
			<point x="471" y="570" type="curve" smooth="yes"/>
			<point x="506" y="567"/>
			<point x="543" y="595"/>
			<point x="543" y="637" type="curve" smooth="yes"/>
			<point x="543" y="672"/>
			<point x="515" y="701"/>
			<point x="480" y="703" type="curve" smooth="yes"/>
			<point x="470" y="704"/>
			<point x="460" y="704"/>
			<point x="449" y="704" type="curve" smooth="yes"/>
			<point x="276" y="704"/>
			<point x="165" y="636"/>
			<point x="138" y="508" type="curve" smooth="yes"/>
			<point x="122" y="435"/>
			<point x="160" y="375"/>
			<point x="231" y="353" type="curve"/>
			<point x="126" y="337"/>
			<point x="47" y="278"/>
			<point x="26" y="178" type="curve" smooth="yes"/>
			<point x="-6" y="32"/>
			<point x="107" y="-14"/>
			<point x="268" y="-14" type="curve" smooth="yes"/>
			<point x="342" y="-14"/>
			<point x="408" y="-9"/>
			<point x="468" y="0" type="curve" smooth="yes"/>
			<point x="522" y="7"/>
			<point x="552" y="37"/>
			<point x="563" y="91" type="curve" smooth="yes"/>
			<point x="603" y="280" type="line"/>
			<point x="648" y="280" type="line" smooth="yes"/>
			<point x="686" y="280"/>
			<point x="718" y="311"/>
			<point x="718" y="350" type="curve" smooth="yes"/>
			<point x="718" y="389"/>
		</contour>
		<contour>
			<point x="218" y="200" type="curve" smooth="yes"/>
			<point x="229" y="250"/>
			<point x="272" y="276"/>
			<point x="339" y="279" type="curve" smooth="yes"/>
			<point x="359" y="280"/>
			<point x="368" y="280"/>
			<point x="390" y="280" type="curve" smooth="yes"/>
			<point x="423" y="280" type="line"/>
			<point x="390" y="125" type="line"/>
			<point x="351" y="119"/>
			<point x="330" y="118"/>
			<point x="301" y="118" type="curve" smooth="yes"/>
			<point x="243" y="118"/>
			<point x="204" y="135"/>
		</contour>
	</outline>
</glyph>
<glyph name="parenleft" format="2">
	<advance width="403"/>
	<unicode hex="0028"/>
	<note>
		parenleft
	</note>
	<outline>
		<contour>
			<point x="380" y="785"/>
			<point x="374" y="779" type="curve" smooth="yes"/>
			<point x="256" y="666"/>
			<point x="176" y="533"/>
			<point x="137" y="350" type="curve" smooth="yes"/>
			<point x="99" y="173"/>
			<point x="120" y="42"/>
			<point x="188" y="-68" type="curve" smooth="yes"/>
			<point x="195" y="-80"/>
			<point x="210" y="-89"/>
			<point x="226" y="-89" type="curve" smooth="yes"/>
			<point x="250" y="-89"/>
			<point x="269" y="-69"/>
			<point x="269" y="-45" type="curve" smooth="yes"/>
			<point x="269" y="-40"/>
			<point x="269" y="-34"/>
			<point x="267" y="-30" type="curve" smooth="yes"/>
			<point x="224" y="87"/>
			<point x="214" y="204"/>
			<point x="245" y="350" type="curve" smooth="yes"/>
			<point x="276" y="496"/>
			<point x="336" y="614"/>
			<point x="426" y="732" type="curve" smooth="yes"/>
			<point x="430" y="738"/>
			<point x="434" y="745"/>
			<point x="434" y="753" type="curve" smooth="yes"/>
			<point x="434" y="773"/>
			<point x="418" y="789"/>
			<point x="398" y="789" type="curve" smooth="yes"/>
			<point x="389" y="789"/>
		</contour>
	</outline>
</glyph>
<glyph name="asterisk" format="2">
	<advance width="630"/>
	<unicode hex="002A"/>
	<note>
		asterisk
	</note>
	<outline>
		<contour>
			<point x="454" y="364" type="curve" smooth="yes"/>
			<point x="373" y="331" type="line"/>
			<point x="400" y="416" type="line" smooth="yes"/>
			<point x="401" y="421"/>
			<point x="402" y="426"/>
			<point x="402" y="432" type="curve" smooth="yes"/>
			<point x="402" y="461"/>
			<point x="379" y="484"/>
			<point x="350" y="484" type="curve" smooth="yes"/>
			<point x="323" y="484"/>
			<point x="301" y="464"/>
			<point x="298" y="438" type="curve" smooth="yes"/>
			<point x="285" y="331" type="line"/>
			<point x="215" y="366" type="line" smooth="yes"/>
			<point x="208" y="370"/>
			<point x="199" y="372"/>
			<point x="190" y="372" type="curve" smooth="yes"/>
			<point x="159" y="372"/>
			<point x="134" y="346"/>
			<point x="134" y="315" type="curve" smooth="yes"/>
			<point x="134" y="289"/>
			<point x="152" y="267"/>
			<point x="177" y="261" type="curve" smooth="yes"/>
			<point x="242" y="246" type="line"/>
			<point x="154" y="165" type="line" smooth="yes"/>
			<point x="144" y="156"/>
			<point x="138" y="144"/>
			<point x="138" y="129" type="curve" smooth="yes"/>
			<point x="138" y="102"/>
			<point x="160" y="80"/>
			<point x="187" y="80" type="curve" smooth="yes"/>
			<point x="202" y="80"/>
			<point x="216" y="86"/>
			<point x="225" y="98" type="curve" smooth="yes"/>
			<point x="299" y="191" type="line"/>
			<point x="325" y="123" type="line" smooth="yes"/>
			<point x="333" y="102"/>
			<point x="354" y="86"/>
			<point x="379" y="86" type="curve" smooth="yes"/>
			<point x="411" y="86"/>
			<point x="437" y="112"/>
			<point x="437" y="144" type="curve" smooth="yes"/>
			<point x="437" y="156"/>
			<point x="433" y="166"/>
			<point x="427" y="176" type="curve" smooth="yes"/>
			<point x="380" y="246" type="line"/>
			<point x="483" y="268" type="line" smooth="yes"/>
			<point x="506" y="273"/>
			<point x="524" y="293"/>
			<point x="524" y="317" type="curve" smooth="yes"/>
			<point x="524" y="345"/>
			<point x="501" y="368"/>
			<point x="473" y="368" type="curve" smooth="yes"/>
			<point x="466" y="368"/>
			<point x="460" y="367"/>
		</contour>
	</outline>
</glyph>
<glyph name="plus" format="2">
	<advance width="662"/>
	<unicode hex="002B"/>
	<note>
		plus
	</note>
	<outline>
		<contour>
			<point x="383" y="273" type="line"/>
			<point x="531" y="273" type="line" smooth="yes"/>
			<point x="555" y="273"/>
			<point x="575" y="293"/>
			<point x="575" y="317" type="curve" smooth="yes"/>
			<point x="575" y="341"/>
			<point x="555" y="361"/>
			<point x="531" y="361" type="curve" smooth="yes"/>
			<point x="401" y="361" type="line"/>
			<point x="432" y="508" type="line" smooth="yes"/>
			<point x="438" y="538"/>
			<point x="416" y="567"/>
			<point x="384" y="567" type="curve" smooth="yes"/>
			<point x="361" y="567"/>
			<point x="342" y="551"/>
			<point x="337" y="528" type="curve" smooth="yes"/>
			<point x="301" y="361" type="line"/>
			<point x="153" y="361" type="line" smooth="yes"/>
			<point x="129" y="361"/>
			<point x="109" y="341"/>
			<point x="109" y="317" type="curve" smooth="yes"/>
			<point x="109" y="293"/>
			<point x="129" y="273"/>
			<point x="153" y="273" type="curve" smooth="yes"/>
			<point x="283" y="273" type="line"/>
			<point x="252" y="126" type="line" smooth="yes"/>
			<point x="246" y="96"/>
			<point x="268" y="67"/>
			<point x="300" y="67" type="curve" smooth="yes"/>
			<point x="323" y="67"/>
			<point x="342" y="83"/>
			<point x="347" y="106" type="curve" smooth="yes"/>
		</contour>
	</outline>
</glyph>
<glyph name="period" format="2">
	<advance width="266"/>
	<unicode hex="002E"/>
	<note>
		period
	</note>
	<outline>
		<contour>
			<point x="44" y="-11"/>
			<point x="99" y="-11" type="curve" smooth="yes"/>
			<point x="130" y="-11" type="line" smooth="yes"/>
			<point x="172" y="-11"/>
			<point x="207" y="24"/>
			<point x="207" y="66" type="curve" smooth="yes"/>
			<point x="207" y="74"/>
			<point x="208" y="82"/>
			<point x="206" y="90" type="curve" smooth="yes"/>
			<point x="205" y="95"/>
			<point x="205" y="99"/>
			<point x="205" y="103" type="curve" smooth="yes"/>
			<point x="205" y="157"/>
			<point x="162" y="200"/>
			<point x="108" y="200" type="curve" smooth="yes"/>
			<point x="95" y="200"/>
			<point x="83" y="197"/>
			<point x="72" y="192" type="curve" smooth="yes"/>
			<point x="30" y="175"/>
			<point x="-2" y="136"/>
			<point x="-2" y="90" type="curve" smooth="yes"/>
			<point x="-2" y="34"/>
		</contour>
	</outline>
</glyph>
<glyph name="one" format="2">
	<advance width="662"/>
	<unicode hex="0031"/>
	<note>
		one
	</note>
	<outline>
		<contour>
			<point x="465" y="61" type="curve" smooth="yes"/>
			<point x="584" y="626" type="line" smooth="yes"/>
			<point x="593" y="668"/>
			<point x="556" y="706"/>
			<point x="514" y="698" type="curve" smooth="yes"/>
			<point x="465" y="689"/>
			<point x="418" y="675"/>
			<point x="371" y="651" type="curve" smooth="yes"/>
			<point x="197" y="562" type="line" smooth="yes"/>
			<point x="176" y="551"/>
			<point x="161" y="529"/>
			<point x="161" y="503" type="curve" smooth="yes"/>
			<point x="161" y="467"/>
			<point x="190" y="438"/>
			<point x="227" y="438" type="curve" smooth="yes"/>
			<point x="237" y="438"/>
			<point x="247" y="440"/>
			<point x="255" y="444" type="curve" smooth="yes"/>
			<point x="378" y="502" type="line"/>
			<point x="293" y="97" type="line" smooth="yes"/>
			<point x="292" y="92"/>
			<point x="291" y="85"/>
			<point x="291" y="79" type="curve" smooth="yes"/>
			<point x="291" y="30"/>
			<point x="330" y="-9"/>
			<point x="379" y="-9" type="curve" smooth="yes"/>
			<point x="421" y="-9"/>
			<point x="457" y="22"/>
		</contour>
	</outline>
</glyph>
<glyph name="three" format="2">
	<advance width="662"/>
	<unicode hex="0033"/>
	<note>
		three
	</note>
	<outline>
		<contour>
			<point x="481" y="363" type="curve"/>
			<point x="576" y="385"/>
			<point x="628" y="439"/>
			<point x="645" y="520" type="curve" smooth="yes"/>
			<point x="666" y="618"/>
			<point x="606" y="704"/>
			<point x="437" y="704" type="curve" smooth="yes"/>
			<point x="293" y="704"/>
			<point x="195" y="636"/>
			<point x="143" y="549" type="curve" smooth="yes"/>
			<point x="117" y="505"/>
			<point x="120" y="460"/>
			<point x="164" y="433" type="curve" smooth="yes"/>
			<point x="184" y="422"/>
			<point x="206" y="416"/>
			<point x="230" y="416" type="curve" smooth="yes"/>
			<point x="249" y="416"/>
			<point x="259" y="428"/>
			<point x="268" y="443" type="curve" smooth="yes"/>
			<point x="286" y="474"/>
			<point x="293" y="501"/>
			<point x="320" y="537" type="curve" smooth="yes"/>
			<point x="337" y="558"/>
			<point x="360" y="572"/>
			<point x="391" y="572" type="curve" smooth="yes"/>
			<point x="441" y="572"/>
			<point x="462" y="544"/>
			<point x="453" y="499" type="curve" smooth="yes"/>
			<point x="443" y="452"/>
			<point x="402" y="416"/>
			<point x="335" y="411" type="curve"/>
			<point x="308" y="405"/>
			<point x="287" y="380"/>
			<point x="287" y="351" type="curve" smooth="yes"/>
			<point x="287" y="341"/>
			<point x="289" y="329"/>
			<point x="292" y="319" type="curve" smooth="yes"/>
			<point x="299" y="297"/>
			<point x="336" y="301"/>
			<point x="379" y="275" type="curve" smooth="yes"/>
			<point x="403" y="260"/>
			<point x="413" y="235"/>
			<point x="405" y="200" type="curve" smooth="yes"/>
			<point x="395" y="153"/>
			<point x="349" y="118"/>
			<point x="287" y="118" type="curve" smooth="yes"/>
			<point x="256" y="118"/>
			<point x="234" y="130"/>
			<point x="221" y="148" type="curve" smooth="yes"/>
			<point x="193" y="188"/>
			<point x="195" y="229"/>
			<point x="151" y="246" type="curve" smooth="yes"/>
			<point x="138" y="251"/>
			<point x="124" y="254"/>
			<point x="109" y="254" type="curve" smooth="yes"/>
			<point x="91" y="254"/>
			<point x="75" y="249"/>
			<point x="61" y="241" type="curve" smooth="yes"/>
			<point x="29" y="223"/>
			<point x="15" y="190"/>
			<point x="23" y="142" type="curve" smooth="yes"/>
			<point x="39" y="44"/>
			<point x="121" y="-14"/>
			<point x="266" y="-14" type="curve" smooth="yes"/>
			<point x="440" y="-14"/>
			<point x="566" y="73"/>
			<point x="594" y="205" type="curve" smooth="yes"/>
			<point x="613" y="294"/>
			<point x="575" y="344"/>
		</contour>
	</outline>
</glyph>
<glyph name="four" format="2">
	<advance width="662"/>
	<unicode hex="0034"/>
	<note>
		four
	</note>
	<outline>
		<contour>
			<point x="518" y="154" type="line"/>
			<point x="555" y="154" type="line" smooth="yes"/>
			<point x="593" y="154"/>
			<point x="625" y="185"/>
			<point x="625" y="224" type="curve" smooth="yes"/>
			<point x="625" y="263"/>
			<point x="593" y="294"/>
			<point x="555" y="294" type="curve" smooth="yes"/>
			<point x="548" y="294" type="line"/>
			<point x="605" y="562" type="line" smooth="yes"/>
			<point x="607" y="569"/>
			<point x="607" y="578"/>
			<point x="607" y="586" type="curve" smooth="yes"/>
			<point x="607" y="648"/>
			<point x="557" y="699"/>
			<point x="494" y="699" type="curve" smooth="yes"/>
			<point x="461" y="699"/>
			<point x="431" y="684"/>
			<point x="411" y="662" type="curve" smooth="yes"/>
			<point x="34" y="252" type="line" smooth="yes"/>
			<point x="25" y="242"/>
			<point x="18" y="227"/>
			<point x="18" y="212" type="curve" smooth="yes"/>
			<point x="18" y="180"/>
			<point x="45" y="154"/>
			<point x="77" y="154" type="curve" smooth="yes"/>
			<point x="338" y="154" type="line"/>
			<point x="326" y="97" type="line" smooth="yes"/>
			<point x="325" y="92"/>
			<point x="324" y="85"/>
			<point x="324" y="79" type="curve" smooth="yes"/>
			<point x="324" y="30"/>
			<point x="364" y="-9"/>
			<point x="412" y="-9" type="curve" smooth="yes"/>
			<point x="455" y="-9"/>
			<point x="491" y="21"/>
			<point x="499" y="61" type="curve" smooth="yes"/>
		</contour>
		<contour>
			<point x="412" y="500" type="curve"/>
			<point x="368" y="294" type="line"/>
			<point x="229" y="294" type="line"/>
			<point x="362" y="439" type="line" smooth="yes"/>
			<point x="376" y="454"/>
			<point x="393" y="475"/>
		</contour>
	</outline>
</glyph>
<glyph name="six" format="2">
	<advance width="662"/>
	<unicode hex="0036"/>
	<note>
		six
	</note>
	<outline>
		<contour>
			<point x="430" y="462" type="curve" smooth="yes"/>
			<point x="404" y="462"/>
			<point x="380" y="460"/>
			<point x="357" y="453" type="curve" smooth="yes"/>
			<point x="313" y="440"/>
			<point x="292" y="412"/>
			<point x="266" y="377" type="curve" smooth="yes"/>
			<point x="256" y="364" type="line"/>
			<point x="292" y="508"/>
			<point x="341" y="572"/>
			<point x="408" y="572" type="curve" smooth="yes"/>
			<point x="430" y="572"/>
			<point x="446" y="567"/>
			<point x="457" y="554" type="curve" smooth="yes"/>
			<point x="484" y="523"/>
			<point x="483" y="485"/>
			<point x="525" y="467" type="curve" smooth="yes"/>
			<point x="539" y="462"/>
			<point x="554" y="459"/>
			<point x="569" y="459" type="curve" smooth="yes"/>
			<point x="587" y="459"/>
			<point x="603" y="464"/>
			<point x="617" y="472" type="curve" smooth="yes"/>
			<point x="649" y="490"/>
			<point x="662" y="524"/>
			<point x="653" y="571" type="curve" smooth="yes"/>
			<point x="636" y="654"/>
			<point x="569" y="704"/>
			<point x="446" y="704" type="curve" smooth="yes"/>
			<point x="266" y="704"/>
			<point x="119" y="570"/>
			<point x="68" y="332" type="curve" smooth="yes"/>
			<point x="17" y="93"/>
			<point x="89" y="-14"/>
			<point x="277" y="-14" type="curve" smooth="yes"/>
			<point x="421" y="-14"/>
			<point x="572" y="73"/>
			<point x="608" y="243" type="curve" smooth="yes"/>
			<point x="633" y="361"/>
			<point x="587" y="462"/>
		</contour>
		<contour>
			<point x="303" y="118" type="curve" smooth="yes"/>
			<point x="246" y="118"/>
			<point x="220" y="160"/>
			<point x="233" y="225" type="curve" smooth="yes"/>
			<point x="248" y="292"/>
			<point x="297" y="330"/>
			<point x="346" y="330" type="curve" smooth="yes"/>
			<point x="405" y="330"/>
			<point x="430" y="288"/>
			<point x="416" y="221" type="curve" smooth="yes"/>
			<point x="404" y="167"/>
			<point x="364" y="118"/>
		</contour>
	</outline>
</glyph>
<glyph name="seven" format="2">
	<advance width="662"/>
	<unicode hex="0037"/>
	<note>
		seven
	</note>
	<outline>
		<contour>
			<point x="677" y="690"/>
			<point x="645" y="690" type="curve" smooth="yes"/>
			<point x="195" y="690" type="line" smooth="yes"/>
			<point x="157" y="690"/>
			<point x="125" y="659"/>
			<point x="125" y="620" type="curve" smooth="yes"/>
			<point x="125" y="581"/>
			<point x="157" y="550"/>
			<point x="195" y="550" type="curve" smooth="yes"/>
			<point x="466" y="550" type="line"/>
			<point x="134" y="117" type="line" smooth="yes"/>
			<point x="124" y="104"/>
			<point x="118" y="87"/>
			<point x="118" y="69" type="curve" smooth="yes"/>
			<point x="118" y="26"/>
			<point x="153" y="-9"/>
			<point x="196" y="-9" type="curve" smooth="yes"/>
			<point x="222" y="-9"/>
			<point x="245" y="3"/>
			<point x="259" y="22" type="curve" smooth="yes"/>
			<point x="692" y="596" type="line" smooth="yes"/>
			<point x="699" y="606"/>
			<point x="704" y="618"/>
			<point x="704" y="632" type="curve" smooth="yes"/>
			<point x="704" y="664"/>
		</contour>
	</outline>
</glyph>
<glyph name="equal" format="2">
	<advance width="662"/>
	<unicode hex="003D"/>
	<note>
		equal
	</note>
	<outline>
		<contour>
			<point x="154" y="373" type="curve" smooth="yes"/>
			<point x="573" y="373" type="line" smooth="yes"/>
			<point x="597" y="373"/>
			<point x="617" y="393"/>
			<point x="617" y="417" type="curve" smooth="yes"/>
			<point x="617" y="441"/>
			<point x="597" y="461"/>
			<point x="573" y="461" type="curve" smooth="yes"/>
			<point x="154" y="461" type="line" smooth="yes"/>
			<point x="130" y="461"/>
			<point x="110" y="441"/>
			<point x="110" y="417" type="curve" smooth="yes"/>
			<point x="110" y="393"/>
			<point x="130" y="373"/>
		</contour>
		<contour>
			<point x="111" y="173" type="curve" smooth="yes"/>
			<point x="530" y="173" type="line" smooth="yes"/>
			<point x="554" y="173"/>
			<point x="574" y="193"/>
			<point x="574" y="217" type="curve" smooth="yes"/>
			<point x="574" y="241"/>
			<point x="554" y="261"/>
			<point x="530" y="261" type="curve" smooth="yes"/>
			<point x="111" y="261" type="line" smooth="yes"/>
			<point x="87" y="261"/>
			<point x="67" y="241"/>
			<point x="67" y="217" type="curve" smooth="yes"/>
			<point x="67" y="193"/>
			<point x="87" y="173"/>
		</contour>
	</outline>
</glyph>
<glyph name="greater" format="2">
	<advance width="662"/>
	<unicode hex="003E"/>
	<note>
		greater
	</note>
	<outline>
		<contour>
			<point x="525" y="345"/>
			<point x="491" y="359" type="curve" smooth="yes"/>
			<point x="179" y="486" type="line" smooth="yes"/>
			<point x="172" y="489"/>
			<point x="165" y="491"/>
			<point x="157" y="491" type="curve" smooth="yes"/>
			<point x="124" y="491"/>
			<point x="98" y="464"/>
			<point x="98" y="432" type="curve" smooth="yes"/>
			<point x="98" y="406"/>
			<point x="114" y="385"/>
			<point x="136" y="376" type="curve" smooth="yes"/>
			<point x="425" y="265" type="line"/>
			<point x="61" y="144" type="line" smooth="yes"/>
			<point x="41" y="137"/>
			<point x="26" y="118"/>
			<point x="26" y="95" type="curve" smooth="yes"/>
			<point x="26" y="67"/>
			<point x="49" y="44"/>
			<point x="77" y="44" type="curve" smooth="yes"/>
			<point x="83" y="44"/>
			<point x="89" y="45"/>
			<point x="94" y="47" type="curve" smooth="yes"/>
			<point x="486" y="183" type="line" smooth="yes"/>
			<point x="522" y="196"/>
			<point x="550" y="231"/>
			<point x="550" y="272" type="curve" smooth="yes"/>
			<point x="550" y="311"/>
		</contour>
	</outline>
</glyph>
<glyph name="question" format="2">
	<advance width="589"/>
	<unicode hex="003F"/>
	<note>
		question
	</note>
	<outline>
		<contour>
			<point x="389" y="704" type="curve" smooth="yes"/>
			<point x="281" y="704"/>
			<point x="192" y="665"/>
			<point x="134" y="594" type="curve" smooth="yes"/>
			<point x="123" y="581"/>
			<point x="117" y="562"/>
			<point x="117" y="543" type="curve" smooth="yes"/>
			<point x="117" y="499"/>
			<point x="153" y="463"/>
			<point x="197" y="463" type="curve" smooth="yes"/>
			<point x="230" y="463"/>
			<point x="257" y="483"/>
			<point x="269" y="511" type="curve" smooth="yes"/>
			<point x="288" y="554"/>
			<point x="314" y="572"/>
			<point x="348" y="572" type="curve" smooth="yes"/>
			<point x="396" y="572"/>
			<point x="413" y="546"/>
			<point x="402" y="496" type="curve" smooth="yes"/>
			<point x="395" y="461"/>
			<point x="368" y="430"/>
			<point x="302" y="373" type="curve" smooth="yes"/>
			<point x="277" y="351"/>
			<point x="257" y="331"/>
			<point x="242" y="307" type="curve" smooth="yes"/>
			<point x="235" y="297"/>
			<point x="231" y="283"/>
			<point x="231" y="269" type="curve" smooth="yes"/>
			<point x="231" y="231"/>
			<point x="262" y="199"/>
			<point x="300" y="199" type="curve" smooth="yes"/>
			<point x="328" y="199"/>
			<point x="351" y="216"/>
			<point x="362" y="240" type="curve" smooth="yes"/>
			<point x="379" y="275"/>
			<point x="404" y="297"/>
			<point x="448" y="328" type="curve" smooth="yes"/>
			<point x="533" y="386"/>
			<point x="576" y="431"/>
			<point x="593" y="511" type="curve" smooth="yes"/>
			<point x="619" y="634"/>
			<point x="543" y="704"/>
		</contour>
		<contour>
			<point x="206" y="-14"/>
			<point x="255" y="-14" type="curve" smooth="yes"/>
			<point x="290" y="-14"/>
			<point x="313" y="13"/>
			<point x="325" y="70" type="curve" smooth="yes"/>
			<point x="329" y="91" type="line" smooth="yes"/>
			<point x="337" y="131"/>
			<point x="308" y="173"/>
			<point x="263" y="173" type="curve" smooth="yes"/>
			<point x="256" y="173"/>
			<point x="250" y="172"/>
			<point x="244" y="170" type="curve" smooth="yes"/>
			<point x="200" y="158"/>
			<point x="166" y="120"/>
			<point x="166" y="75" type="curve" smooth="yes"/>
			<point x="166" y="26"/>
		</contour>
	</outline>
</glyph>
<glyph name="at" format="2">
	<advance width="930"/>
	<unicode hex="0040"/>
	<note>
		at
	</note>
	<outline>
		<contour>
			<point x="662" y="472"/>
			<point x="611" y="472" type="curve" smooth="yes"/>
			<point x="603" y="472" type="line" smooth="yes"/>
			<point x="598" y="472"/>
			<point x="585" y="452"/>
			<point x="562" y="409" type="curve"/>
			<point x="559" y="436" type="line" smooth="yes"/>
			<point x="557" y="455"/>
			<point x="546" y="485"/>
			<point x="500" y="489" type="curve" smooth="yes"/>
			<point x="495" y="490"/>
			<point x="490" y="490"/>
			<point x="485" y="490" type="curve" smooth="yes"/>
			<point x="373" y="490"/>
			<point x="273" y="386"/>
			<point x="242" y="243" type="curve" smooth="yes"/>
			<point x="215" y="113"/>
			<point x="271" y="74"/>
			<point x="341" y="74" type="curve" smooth="yes"/>
			<point x="357" y="74"/>
			<point x="373" y="76"/>
			<point x="390" y="82" type="curve" smooth="yes"/>
			<point x="426" y="93"/>
			<point x="446" y="118"/>
			<point x="471" y="154" type="curve" smooth="yes"/>
			<point x="480" y="167" type="line"/>
			<point x="488" y="101"/>
			<point x="533" y="68"/>
			<point x="611" y="68" type="curve" smooth="yes"/>
			<point x="741" y="68"/>
			<point x="865" y="144"/>
			<point x="909" y="352" type="curve" smooth="yes"/>
			<point x="947" y="530"/>
			<point x="852" y="702"/>
			<point x="597" y="702" type="curve" smooth="yes"/>
			<point x="337" y="702"/>
			<point x="97" y="512"/>
			<point x="41" y="251" type="curve" smooth="yes"/>
			<point x="-19" y="-31"/>
			<point x="175" y="-134"/>
			<point x="354" y="-134" type="curve" smooth="yes"/>
			<point x="433" y="-134"/>
			<point x="528" y="-116"/>
			<point x="624" y="-70" type="curve" smooth="yes"/>
			<point x="638" y="-63"/>
			<point x="647" y="-49"/>
			<point x="647" y="-33" type="curve" smooth="yes"/>
			<point x="647" y="-10"/>
			<point x="629" y="9"/>
			<point x="606" y="9" type="curve" smooth="yes"/>
			<point x="599" y="9"/>
			<point x="594" y="8"/>
			<point x="588" y="5" type="curve" smooth="yes"/>
			<point x="524" y="-24"/>
			<point x="458" y="-38"/>
			<point x="389" y="-38" type="curve" smooth="yes"/>
			<point x="190" y="-38"/>
			<point x="112" y="79"/>
			<point x="151" y="258" type="curve" smooth="yes"/>
			<point x="197" y="478"/>
			<point x="396" y="606"/>
			<point x="572" y="606" type="curve" smooth="yes"/>
			<point x="748" y="606"/>
			<point x="834" y="507"/>
			<point x="799" y="342" type="curve" smooth="yes"/>
			<point x="775" y="226"/>
			<point x="721" y="164"/>
			<point x="671" y="164" type="curve" smooth="yes"/>
			<point x="643" y="164"/>
			<point x="635" y="189"/>
			<point x="643" y="229" type="curve" smooth="yes"/>
			<point x="647" y="248"/>
			<point x="653" y="266"/>
			<point x="691" y="331" type="curve" smooth="yes"/>
			<point x="699" y="345"/>
			<point x="705" y="361"/>
			<point x="705" y="379" type="curve" smooth="yes"/>
			<point x="705" y="430"/>
		</contour>
		<contour>
			<point x="430" y="196" type="curve" smooth="yes"/>
			<point x="409" y="196"/>
			<point x="400" y="212"/>
			<point x="409" y="255" type="curve" smooth="yes"/>
			<point x="423" y="322"/>
			<point x="464" y="368"/>
			<point x="501" y="368" type="curve" smooth="yes"/>
			<point x="526" y="368"/>
			<point x="529" y="347"/>
			<point x="517" y="319" type="curve" smooth="yes"/>
			<point x="486" y="248" type="line" smooth="yes"/>
			<point x="473" y="219"/>
			<point x="455" y="196"/>
		</contour>
	</outline>
</glyph>
<glyph name="A" format="2">
	<advance width="707"/>
	<unicode hex="0041"/>
	<note>
		A
	</note>
	<outline>
		<contour>
			<point x="235" y="179" type="line"/>
			<point x="450" y="179" type="line"/>
			<point x="462" y="76" type="line" smooth="yes"/>
			<point x="467" y="29"/>
			<point x="507" y="-9"/>
			<point x="556" y="-9" type="curve" smooth="yes"/>
			<point x="616" y="-9"/>
			<point x="659" y="45"/>
			<point x="651" y="101" type="curve" smooth="yes"/>
			<point x="576" y="603" type="line" smooth="yes"/>
			<point x="567" y="661"/>
			<point x="533" y="690"/>
			<point x="475" y="690" type="curve" smooth="yes"/>
			<point x="418" y="690" type="line" smooth="yes"/>
			<point x="366" y="690"/>
			<point x="332" y="671"/>
			<point x="306" y="625" type="curve" smooth="yes"/>
			<point x="13" y="114" type="line" smooth="yes"/>
			<point x="6" y="102"/>
			<point x="3" y="88"/>
			<point x="3" y="73" type="curve" smooth="yes"/>
			<point x="3" y="28"/>
			<point x="39" y="-9"/>
			<point x="85" y="-9" type="curve" smooth="yes"/>
			<point x="116" y="-9"/>
			<point x="143" y="9"/>
			<point x="157" y="34" type="curve" smooth="yes"/>
		</contour>
		<contour>
			<point x="308" y="319" type="line"/>
			<point x="418" y="531" type="line"/>
			<point x="436" y="319" type="line"/>
		</contour>
	</outline>
</glyph>
<glyph name="E" format="2">
	<advance width="639"/>
	<unicode hex="0045"/>
	<note>
		E
	</note>
	<outline>
		<contour>
			<point x="543" y="140"/>
			<point x="505" y="140" type="curve" smooth="yes"/>
			<point x="340" y="140" type="line" smooth="yes"/>
			<point x="274" y="140"/>
			<point x="239" y="165"/>
			<point x="248" y="208" type="curve" smooth="yes"/>
			<point x="258" y="253"/>
			<point x="291" y="276"/>
			<point x="348" y="276" type="curve" smooth="yes"/>
			<point x="534" y="276" type="line" smooth="yes"/>
			<point x="572" y="276"/>
			<point x="604" y="307"/>
			<point x="604" y="346" type="curve" smooth="yes"/>
			<point x="604" y="385"/>
			<point x="572" y="416"/>
			<point x="534" y="416" type="curve" smooth="yes"/>
			<point x="399" y="416" type="line" smooth="yes"/>
			<point x="333" y="416"/>
			<point x="298" y="442"/>
			<point x="307" y="483" type="curve" smooth="yes"/>
			<point x="317" y="528"/>
			<point x="350" y="550"/>
			<point x="407" y="550" type="curve" smooth="yes"/>
			<point x="612" y="550" type="line" smooth="yes"/>
			<point x="650" y="550"/>
			<point x="682" y="581"/>
			<point x="682" y="620" type="curve" smooth="yes"/>
			<point x="682" y="659"/>
			<point x="650" y="690"/>
			<point x="612" y="690" type="curve" smooth="yes"/>
			<point x="256" y="690" type="line" smooth="yes"/>
			<point x="199" y="690"/>
			<point x="164" y="663"/>
			<point x="152" y="606" type="curve" smooth="yes"/>
			<point x="46" y="104" type="line" smooth="yes"/>
			<point x="32" y="39"/>
			<point x="64" y="0"/>
			<point x="130" y="0" type="curve" smooth="yes"/>
			<point x="505" y="0" type="line" smooth="yes"/>
			<point x="543" y="0"/>
			<point x="575" y="31"/>
			<point x="575" y="70" type="curve" smooth="yes"/>
			<point x="575" y="109"/>
		</contour>
	</outline>
</glyph>
<glyph name="P" format="2">
	<advance width="644"/>
	<unicode hex="0050"/>
	<note>
		P
	</note>
	<outline>
		<contour>
			<point x="537" y="685" type="curve" smooth="yes"/>
			<point x="501" y="689"/>
			<point x="473" y="690"/>
			<point x="430" y="690" type="curve" smooth="yes"/>
			<point x="256" y="690" type="line" smooth="yes"/>
			<point x="199" y="690"/>
			<point x="164" y="663"/>
			<point x="152" y="606" type="curve" smooth="yes"/>
			<point x="45" y="97" type="line" smooth="yes"/>
			<point x="44" y="92"/>
			<point x="43" y="85"/>
			<point x="43" y="79" type="curve" smooth="yes"/>
			<point x="43" y="30"/>
			<point x="82" y="-9"/>
			<point x="131" y="-9" type="curve" smooth="yes"/>
			<point x="173" y="-9"/>
			<point x="209" y="21"/>
			<point x="217" y="61" type="curve" smooth="yes"/>
			<point x="255" y="242" type="line"/>
			<point x="335" y="242" type="line" smooth="yes"/>
			<point x="378" y="242"/>
			<point x="406" y="243"/>
			<point x="444" y="247" type="curve" smooth="yes"/>
			<point x="547" y="259"/>
			<point x="653" y="330"/>
			<point x="682" y="466" type="curve" smooth="yes"/>
			<point x="711" y="602"/>
			<point x="635" y="673"/>
		</contour>
		<contour>
			<point x="403" y="383" type="curve" smooth="yes"/>
			<point x="390" y="382"/>
			<point x="374" y="382"/>
			<point x="355" y="382" type="curve" smooth="yes"/>
			<point x="285" y="382" type="line"/>
			<point x="321" y="550" type="line"/>
			<point x="391" y="550" type="line" smooth="yes"/>
			<point x="410" y="550"/>
			<point x="426" y="550"/>
			<point x="438" y="549" type="curve" smooth="yes"/>
			<point x="484" y="545"/>
			<point x="505" y="518"/>
			<point x="494" y="466" type="curve" smooth="yes"/>
			<point x="483" y="414"/>
			<point x="450" y="387"/>
		</contour>
	</outline>
</glyph>
<glyph name="V" format="2">
	<advance width="742"/>
	<unicode hex="0056"/>
	<note>
		V
	</note>
	<outline>
		<contour>
			<point x="313" y="0" type="curve" smooth="yes"/>
			<point x="370" y="0" type="line" smooth="yes"/>
			<point x="422" y="0"/>
			<point x="456" y="19"/>
			<point x="482" y="65" type="curve" smooth="yes"/>
			<point x="775" y="576" type="line" smooth="yes"/>
			<point x="782" y="588"/>
			<point x="786" y="602"/>
			<point x="786" y="617" type="curve" smooth="yes"/>
			<point x="786" y="662"/>
			<point x="749" y="699"/>
			<point x="704" y="699" type="curve" smooth="yes"/>
			<point x="672" y="699"/>
			<point x="644" y="680"/>
			<point x="631" y="654" type="curve" smooth="yes"/>
			<point x="366" y="139" type="line"/>
			<point x="325" y="613" type="line" smooth="yes"/>
			<point x="321" y="662"/>
			<point x="280" y="699"/>
			<point x="230" y="699" type="curve" smooth="yes"/>
			<point x="172" y="699"/>
			<point x="129" y="647"/>
			<point x="137" y="590" type="curve" smooth="yes"/>
			<point x="212" y="87" type="line" smooth="yes"/>
			<point x="221" y="29"/>
			<point x="255" y="0"/>
		</contour>
	</outline>
</glyph>
<glyph name="X" format="2">
	<advance width="717"/>
	<unicode hex="0058"/>
	<note>
		X
	</note>
	<outline>
		<contour>
			<point x="358" y="233" type="line"/>
			<point x="434" y="49" type="line" smooth="yes"/>
			<point x="448" y="16"/>
			<point x="481" y="-9"/>
			<point x="520" y="-9" type="curve" smooth="yes"/>
			<point x="572" y="-9"/>
			<point x="613" y="33"/>
			<point x="613" y="84" type="curve" smooth="yes"/>
			<point x="613" y="99"/>
			<point x="610" y="112"/>
			<point x="604" y="125" type="curve" smooth="yes"/>
			<point x="495" y="351" type="line"/>
			<point x="700" y="574" type="line" smooth="yes"/>
			<point x="756" y="635"/>
			<point x="743" y="690"/>
			<point x="672" y="690" type="curve" smooth="yes"/>
			<point x="622" y="690"/>
			<point x="587" y="673"/>
			<point x="556" y="635" type="curve" smooth="yes"/>
			<point x="412" y="460" type="line"/>
			<point x="350" y="637" type="line" smooth="yes"/>
			<point x="337" y="674"/>
			<point x="303" y="699"/>
			<point x="262" y="699" type="curve" smooth="yes"/>
			<point x="211" y="699"/>
			<point x="169" y="657"/>
			<point x="169" y="606" type="curve" smooth="yes"/>
			<point x="169" y="592"/>
			<point x="173" y="579"/>
			<point x="178" y="567" type="curve" smooth="yes"/>
			<point x="279" y="348" type="line"/>
			<point x="65" y="116" type="line" smooth="yes"/>
			<point x="9" y="55"/>
			<point x="28" y="0"/>
			<point x="104" y="0" type="curve" smooth="yes"/>
			<point x="154" y="0"/>
			<point x="188" y="17"/>
			<point x="219" y="56" type="curve" smooth="yes"/>
		</contour>
	</outline>
</glyph>
<glyph name="Z" format="2">
	<advance width="648"/>
	<unicode hex="005A"/>
	<note>
		Z
	</note>
	<outline>
		<contour>
			<point x="552" y="140"/>
			<point x="514" y="140" type="curve" smooth="yes"/>
			<point x="249" y="140" type="line"/>
			<point x="668" y="544" type="line" smooth="yes"/>
			<point x="684" y="560"/>
			<point x="694" y="581"/>
			<point x="694" y="605" type="curve" smooth="yes"/>
			<point x="694" y="652"/>
			<point x="656" y="690"/>
			<point x="609" y="690" type="curve" smooth="yes"/>
			<point x="219" y="690" type="line" smooth="yes"/>
			<point x="181" y="690"/>
			<point x="149" y="659"/>
			<point x="149" y="620" type="curve" smooth="yes"/>
			<point x="149" y="581"/>
			<point x="181" y="550"/>
			<point x="219" y="550" type="curve" smooth="yes"/>
			<point x="455" y="550" type="line"/>
			<point x="33" y="142" type="line" smooth="yes"/>
			<point x="18" y="127"/>
			<point x="7" y="106"/>
			<point x="7" y="83" type="curve" smooth="yes"/>
			<point x="7" y="37"/>
			<point x="45" y="0"/>
			<point x="90" y="0" type="curve" smooth="yes"/>
			<point x="514" y="0" type="line" smooth="yes"/>
			<point x="552" y="0"/>
			<point x="584" y="31"/>
			<point x="584" y="70" type="curve" smooth="yes"/>
			<point x="584" y="109"/>
		</contour>
	</outline>
</glyph>
<glyph name="backslash" format="2">
	<advance width="346"/>
	<unicode hex="005C"/>
	<note>
		backslash
	</note>
	<outline>
		<contour>
			<point x="286" y="-11"/>
			<point x="282" y="19" type="curve" smooth="yes"/>
			<point x="201" y="683" type="line" smooth="yes"/>
			<point x="198" y="708"/>
			<point x="176" y="729"/>
			<point x="150" y="729" type="curve" smooth="yes"/>
			<point x="119" y="729"/>
			<point x="94" y="701"/>
			<point x="98" y="671" type="curve" smooth="yes"/>
			<point x="179" y="7" type="line" smooth="yes"/>
			<point x="182" y="-18"/>
			<point x="204" y="-39"/>
			<point x="230" y="-39" type="curve" smooth="yes"/>
			<point x="261" y="-39"/>
		</contour>
	</outline>
</glyph>
<glyph name="bracketright" format="2">
	<advance width="410"/>
	<unicode hex="005D"/>
	<note>
		bracketright
	</note>
	<outline>
		<contour>
			<point x="5" y="-80" type="curve" smooth="yes"/>
			<point x="142" y="-80" type="line" smooth="yes"/>
			<point x="199" y="-80"/>
			<point x="234" y="-53"/>
			<point x="246" y="4" type="curve" smooth="yes"/>
			<point x="388" y="676" type="line" smooth="yes"/>
			<point x="402" y="741"/>
			<point x="370" y="780"/>
			<point x="304" y="780" type="curve" smooth="yes"/>
			<point x="167" y="780" type="line" smooth="yes"/>
			<point x="141" y="780"/>
			<point x="119" y="759"/>
			<point x="119" y="732" type="curve" smooth="yes"/>
			<point x="119" y="705"/>
			<point x="141" y="684"/>
			<point x="167" y="684" type="curve" smooth="yes"/>
			<point x="290" y="684" type="line"/>
			<point x="148" y="16" type="line"/>
			<point x="5" y="16" type="line" smooth="yes"/>
			<point x="-21" y="16"/>
			<point x="-43" y="-5"/>
			<point x="-43" y="-32" type="curve" smooth="yes"/>
			<point x="-43" y="-59"/>
			<point x="-21" y="-80"/>
		</contour>
	</outline>
</glyph>
<glyph name="asciicircum" format="2">
	<advance width="662"/>
	<unicode hex="005E"/>
	<note>
		asciicircum
	</note>
	<outline>
		<contour>
			<point x="383" y="518" type="line"/>
			<point x="428" y="251" type="line" smooth="yes"/>
			<point x="432" y="226"/>
			<point x="454" y="206"/>
			<point x="481" y="206" type="curve" smooth="yes"/>
			<point x="515" y="206"/>
			<point x="541" y="237"/>
			<point x="534" y="271" type="curve" smooth="yes"/>
			<point x="474" y="562" type="line" smooth="yes"/>
			<point x="467" y="597"/>
			<point x="435" y="625"/>
			<point x="397" y="625" type="curve" smooth="yes"/>
			<point x="369" y="625"/>
			<point x="345" y="610"/>
			<point x="331" y="588" type="curve" smooth="yes"/>
			<point x="132" y="276" type="line" smooth="yes"/>
			<point x="128" y="269"/>
			<point x="125" y="261"/>
			<point x="125" y="252" type="curve" smooth="yes"/>
			<point x="125" y="226"/>
			<point x="145" y="206"/>
			<point x="171" y="206" type="curve" smooth="yes"/>
			<point x="187" y="206"/>
			<point x="202" y="214"/>
			<point x="210" y="228" type="curve" smooth="yes"/>
		</contour>
	</outline>
</glyph>
<glyph name="underscore" format="2">
	<advance width="500"/>
	<unicode hex="005F"/>
	<note>
		underscore
	</note>
	<outline>
		<contour>
			<point x="25" y="-88" type="curve" smooth="yes"/>
			<point x="345" y="-88" type="line" smooth="yes"/>
			<point x="371" y="-88"/>
			<point x="393" y="-67"/>
			<point x="393" y="-40" type="curve" smooth="yes"/>
			<point x="393" y="-13"/>
			<point x="371" y="8"/>
			<point x="345" y="8" type="curve" smooth="yes"/>
			<point x="25" y="8" type="line" smooth="yes"/>
			<point x="-1" y="8"/>
			<point x="-23" y="-13"/>
			<point x="-23" y="-40" type="curve" smooth="yes"/>
			<point x="-23" y="-67"/>
			<point x="-1" y="-88"/>
		</contour>
	</outline>
</glyph>
<glyph name="grave" format="2">
	<advance width="300"/>
	<unicode hex="0060"/>
	<note>
		grave
	</note>
	<outline>
		<contour>
			<point x="260" y="607"/>
			<point x="260" y="616"/>
			<point x="228" y="696"/>
			<point x="184" y="704"/>
			<point x="157" y="669" type="curve" smooth="yes"/>
			<point x="148" y="658"/>
			<point x="143" y="645"/>
			<point x="143" y="630" type="curve" smooth="yes"/>
			<point x="143" y="599"/>
			<point x="165" y="572"/>
			<point x="194" y="565" type="curve" smooth="yes"/>
			<point x="201" y="564"/>
			<point x="208" y="562"/>
			<point x="215" y="562" type="curve" smooth="yes"/>
			<point x="240" y="562"/>
			<point x="260" y="582"/>
			<point x="260" y="607" type="curve" smooth="yes"/>
			<point x="260" y="607"/>
		</contour>
	</outline>
</glyph>
<glyph name="b" format="2">
	<advance width="669"/>
	<unicode hex="0062"/>
	<note>
		b
	</note>
	<outline>
		<contour>
			<point x="470" y="548" type="curve" smooth="yes"/>
			<point x="436" y="548"/>
			<point x="402" y="544"/>
			<point x="373" y="535" type="curve" smooth="yes"/>
			<point x="338" y="524"/>
			<point x="317" y="502"/>
			<point x="288" y="470" type="curve" smooth="yes"/>
			<point x="275" y="456" type="line"/>
			<point x="313" y="638" type="line" smooth="yes"/>
			<point x="314" y="643"/>
			<point x="315" y="650"/>
			<point x="315" y="656" type="curve" smooth="yes"/>
			<point x="315" y="705"/>
			<point x="276" y="744"/>
			<point x="227" y="744" type="curve" smooth="yes"/>
			<point x="185" y="744"/>
			<point x="149" y="713"/>
			<point x="141" y="674" type="curve" smooth="yes"/>
			<point x="19" y="97" type="line" smooth="yes"/>
			<point x="18" y="92"/>
			<point x="17" y="85"/>
			<point x="17" y="79" type="curve" smooth="yes"/>
			<point x="17" y="30"/>
			<point x="56" y="-9"/>
			<point x="104" y="-9" type="curve" smooth="yes"/>
			<point x="147" y="-9"/>
			<point x="182" y="21"/>
			<point x="190" y="61" type="curve" smooth="yes"/>
			<point x="192" y="69" type="line"/>
			<point x="204" y="41" type="line" smooth="yes"/>
			<point x="212" y="20"/>
			<point x="231" y="-1"/>
			<point x="279" y="-9" type="curve" smooth="yes"/>
			<point x="296" y="-12"/>
			<point x="315" y="-14"/>
			<point x="333" y="-14" type="curve" smooth="yes"/>
			<point x="470" y="-14"/>
			<point x="608" y="89"/>
			<point x="648" y="279" type="curve" smooth="yes"/>
			<point x="682" y="437"/>
			<point x="615" y="548"/>
		</contour>
		<contour>
			<point x="310" y="108" type="curve" smooth="yes"/>
			<point x="256" y="108"/>
			<point x="208" y="144"/>
			<point x="231" y="251" type="curve" smooth="yes"/>
			<point x="236" y="274" type="line" smooth="yes"/>
			<point x="260" y="386"/>
			<point x="316" y="426"/>
			<point x="382" y="426" type="curve" smooth="yes"/>
			<point x="445" y="426"/>
			<point x="483" y="370"/>
			<point x="462" y="270" type="curve" smooth="yes"/>
			<point x="439" y="161"/>
			<point x="380" y="108"/>
		</contour>
	</outline>
</glyph>
<glyph name="d" format="2">
	<advance width="669"/>
	<unicode hex="0064"/>
	<note>
		d
	</note>
	<outline>
		<contour>
			<point x="572" y="61" type="curve" smooth="yes"/>
			<point x="694" y="638" type="line" smooth="yes"/>
			<point x="695" y="644"/>
			<point x="696" y="650"/>
			<point x="696" y="656" type="curve" smooth="yes"/>
			<point x="696" y="705"/>
			<point x="657" y="744"/>
			<point x="608" y="744" type="curve" smooth="yes"/>
			<point x="566" y="744"/>
			<point x="530" y="713"/>
			<point x="522" y="674" type="curve" smooth="yes"/>
			<point x="478" y="465" type="line"/>
			<point x="467" y="494" type="line" smooth="yes"/>
			<point x="459" y="515"/>
			<point x="439" y="535"/>
			<point x="391" y="543" type="curve" smooth="yes"/>
			<point x="374" y="546"/>
			<point x="355" y="548"/>
			<point x="337" y="548" type="curve" smooth="yes"/>
			<point x="200" y="548"/>
			<point x="62" y="445"/>
			<point x="22" y="255" type="curve" smooth="yes"/>
			<point x="-12" y="97"/>
			<point x="55" y="-14"/>
			<point x="200" y="-14" type="curve" smooth="yes"/>
			<point x="231" y="-14"/>
			<point x="261" y="-10"/>
			<point x="288" y="-3" type="curve" smooth="yes"/>
			<point x="330" y="8"/>
			<point x="353" y="32"/>
			<point x="382" y="64" type="curve" smooth="yes"/>
			<point x="395" y="78" type="line"/>
			<point x="396" y="28"/>
			<point x="436" y="-11"/>
			<point x="486" y="-11" type="curve" smooth="yes"/>
			<point x="529" y="-11"/>
			<point x="563" y="20"/>
		</contour>
		<contour>
			<point x="288" y="108" type="curve" smooth="yes"/>
			<point x="225" y="108"/>
			<point x="187" y="164"/>
			<point x="208" y="264" type="curve" smooth="yes"/>
			<point x="231" y="373"/>
			<point x="290" y="426"/>
			<point x="360" y="426" type="curve" smooth="yes"/>
			<point x="414" y="426"/>
			<point x="462" y="390"/>
			<point x="439" y="283" type="curve" smooth="yes"/>
			<point x="434" y="260" type="line" smooth="yes"/>
			<point x="410" y="148"/>
			<point x="354" y="108"/>
		</contour>
	</outline>
</glyph>
<glyph name="m" format="2">
	<advance width="966"/>
	<unicode hex="006D"/>
	<note>
		m
	</note>
	<outline>
		<contour>
			<point x="944" y="413" type="curve" smooth="yes"/>
			<point x="948" y="486"/>
			<point x="901" y="548"/>
			<point x="794" y="548" type="curve" smooth="yes"/>
			<point x="769" y="548"/>
			<point x="747" y="545"/>
			<point x="727" y="540" type="curve" smooth="yes"/>
			<point x="686" y="528"/>
			<point x="661" y="506"/>
			<point x="631" y="475" type="curve" smooth="yes"/>
			<point x="601" y="444" type="line"/>
			<point x="591" y="503"/>
			<point x="543" y="548"/>
			<point x="452" y="548" type="curve" smooth="yes"/>
			<point x="427" y="548"/>
			<point x="406" y="545"/>
			<point x="387" y="540" type="curve" smooth="yes"/>
			<point x="344" y="528"/>
			<point x="320" y="505"/>
			<point x="292" y="471" type="curve" smooth="yes"/>
			<point x="273" y="448" type="line"/>
			<point x="277" y="496"/>
			<point x="239" y="544"/>
			<point x="184" y="544" type="curve" smooth="yes"/>
			<point x="142" y="544"/>
			<point x="106" y="513"/>
			<point x="98" y="473" type="curve" smooth="yes"/>
			<point x="19" y="97" type="line" smooth="yes"/>
			<point x="18" y="92"/>
			<point x="17" y="85"/>
			<point x="17" y="79" type="curve" smooth="yes"/>
			<point x="17" y="30"/>
			<point x="56" y="-9"/>
			<point x="105" y="-9" type="curve" smooth="yes"/>
			<point x="147" y="-9"/>
			<point x="183" y="21"/>
			<point x="191" y="61" type="curve" smooth="yes"/>
			<point x="238" y="282" type="line" smooth="yes"/>
			<point x="257" y="373"/>
			<point x="291" y="426"/>
			<point x="349" y="426" type="curve" smooth="yes"/>
			<point x="396" y="426"/>
			<point x="414" y="396"/>
			<point x="409" y="345" type="curve" smooth="yes"/>
			<point x="406" y="318"/>
			<point x="401" y="289"/>
			<point x="397" y="272" type="curve" smooth="yes"/>
			<point x="360" y="97" type="line" smooth="yes"/>
			<point x="359" y="92"/>
			<point x="359" y="85"/>
			<point x="359" y="79" type="curve" smooth="yes"/>
			<point x="359" y="30"/>
			<point x="398" y="-9"/>
			<point x="447" y="-9" type="curve" smooth="yes"/>
			<point x="489" y="-9"/>
			<point x="525" y="21"/>
			<point x="533" y="61" type="curve" smooth="yes"/>
			<point x="580" y="282" type="line" smooth="yes"/>
			<point x="599" y="373"/>
			<point x="633" y="426"/>
			<point x="691" y="426" type="curve" smooth="yes"/>
			<point x="738" y="426"/>
			<point x="756" y="396"/>
			<point x="751" y="345" type="curve" smooth="yes"/>
			<point x="748" y="318"/>
			<point x="743" y="289"/>
			<point x="739" y="272" type="curve" smooth="yes"/>
			<point x="702" y="97" type="line" smooth="yes"/>
			<point x="701" y="92"/>
			<point x="701" y="85"/>
			<point x="701" y="79" type="curve" smooth="yes"/>
			<point x="701" y="30"/>
			<point x="740" y="-9"/>
			<point x="789" y="-9" type="curve" smooth="yes"/>
			<point x="831" y="-9"/>
			<point x="867" y="21"/>
			<point x="875" y="61" type="curve" smooth="yes"/>
			<point x="928" y="312" type="line" smooth="yes"/>
			<point x="937" y="355"/>
			<point x="943" y="386"/>
		</contour>
	</outline>
</glyph>
<glyph name="bar" format="2">
	<advance width="312"/>
	<unicode hex="007C"/>
	<note>
		bar
	</note>
	<outline>
		<contour>
			<point x="118" y="-190"/>
			<point x="123" y="-164" type="curve" smooth="yes"/>
			<point x="315" y="740" type="line" smooth="yes"/>
			<point x="322" y="772"/>
			<point x="298" y="809"/>
			<point x="260" y="809" type="curve" smooth="yes"/>
			<point x="233" y="809"/>
			<point x="209" y="790"/>
			<point x="204" y="764" type="curve" smooth="yes"/>
			<point x="12" y="-140" type="line" smooth="yes"/>
			<point x="5" y="-172"/>
			<point x="29" y="-209"/>
			<point x="67" y="-209" type="curve" smooth="yes"/>
			<point x="94" y="-209"/>
		</contour>
	</outline>
</glyph>
<glyph name="braceright" format="2">
	<advance width="430"/>
	<unicode hex="007D"/>
	<note>
		braceright
	</note>
	<outline>
		<contour>
			<point x="328" y="398"/>
			<point x="307" y="405" type="curve" smooth="yes"/>
			<point x="274" y="416"/>
			<point x="271" y="436"/>
			<point x="275" y="455" type="curve" smooth="yes"/>
			<point x="280" y="478"/>
			<point x="289" y="505"/>
			<point x="304" y="545" type="curve" smooth="yes"/>
			<point x="323" y="597"/>
			<point x="334" y="630"/>
			<point x="341" y="664" type="curve" smooth="yes"/>
			<point x="358" y="743"/>
			<point x="330" y="780"/>
			<point x="230" y="780" type="curve" smooth="yes"/>
			<point x="209" y="780" type="line" smooth="yes"/>
			<point x="183" y="780"/>
			<point x="161" y="759"/>
			<point x="161" y="732" type="curve" smooth="yes"/>
			<point x="161" y="723"/>
			<point x="162" y="714"/>
			<point x="165" y="705" type="curve" smooth="yes"/>
			<point x="171" y="687"/>
			<point x="239" y="709"/>
			<point x="239" y="658" type="curve" smooth="yes"/>
			<point x="239" y="654"/>
			<point x="238" y="650"/>
			<point x="237" y="644" type="curve" smooth="yes"/>
			<point x="234" y="630"/>
			<point x="227" y="609"/>
			<point x="208" y="555" type="curve" smooth="yes"/>
			<point x="191" y="510"/>
			<point x="178" y="468"/>
			<point x="175" y="452" type="curve" smooth="yes"/>
			<point x="163" y="397"/>
			<point x="182" y="361"/>
			<point x="237" y="347" type="curve"/>
			<point x="177" y="335"/>
			<point x="143" y="303"/>
			<point x="131" y="248" type="curve" smooth="yes"/>
			<point x="128" y="232"/>
			<point x="123" y="190"/>
			<point x="120" y="145" type="curve" smooth="yes"/>
			<point x="117" y="91"/>
			<point x="115" y="70"/>
			<point x="112" y="56" type="curve" smooth="yes"/>
			<point x="107" y="36"/>
			<point x="100" y="26"/>
			<point x="86" y="21" type="curve" smooth="yes"/>
			<point x="53" y="9"/>
			<point x="10" y="20"/>
			<point x="-1" y="-21" type="curve" smooth="yes"/>
			<point x="-2" y="-24"/>
			<point x="-2" y="-28"/>
			<point x="-2" y="-32" type="curve" smooth="yes"/>
			<point x="-2" y="-59"/>
			<point x="21" y="-80"/>
			<point x="47" y="-80" type="curve" smooth="yes"/>
			<point x="48" y="-80" type="line" smooth="yes"/>
			<point x="148" y="-80"/>
			<point x="191" y="-43"/>
			<point x="207" y="36" type="curve" smooth="yes"/>
			<point x="215" y="70"/>
			<point x="218" y="103"/>
			<point x="221" y="155" type="curve" smooth="yes"/>
			<point x="223" y="195"/>
			<point x="226" y="222"/>
			<point x="231" y="245" type="curve" smooth="yes"/>
			<point x="235" y="266"/>
			<point x="249" y="288"/>
			<point x="297" y="297" type="curve" smooth="yes"/>
			<point x="324" y="302"/>
			<point x="344" y="324"/>
			<point x="344" y="352" type="curve" smooth="yes"/>
			<point x="344" y="376"/>
		</contour>
	</outline>
</glyph>
<glyph name="exclamdown" format="2">
	<advance width="280"/>
	<unicode hex="00A1"/>
	<note>
		exclamdown
	</note>
	<outline>
		<contour>
			<point x="80" y="307"/>
			<point x="73" y="276" type="curve" smooth="yes"/>
			<point x="-10" y="-74" type="line" smooth="yes"/>
			<point x="-11" y="-79"/>
			<point x="-12" y="-85"/>
			<point x="-12" y="-92" type="curve" smooth="yes"/>
			<point x="-12" y="-134"/>
			<point x="22" y="-169"/>
			<point x="65" y="-169" type="curve" smooth="yes"/>
			<point x="103" y="-169"/>
			<point x="134" y="-142"/>
			<point x="141" y="-106" type="curve" smooth="yes"/>
			<point x="207" y="247" type="line" smooth="yes"/>
			<point x="214" y="287"/>
			<point x="185" y="329"/>
			<point x="140" y="329" type="curve" smooth="yes"/>
			<point x="107" y="329"/>
		</contour>
		<contour>
			<point x="136" y="363"/>
			<point x="185" y="363" type="curve" smooth="yes"/>
			<point x="220" y="363"/>
			<point x="243" y="390"/>
			<point x="255" y="447" type="curve" smooth="yes"/>
			<point x="259" y="468" type="line" smooth="yes"/>
			<point x="267" y="508"/>
			<point x="238" y="550"/>
			<point x="193" y="550" type="curve" smooth="yes"/>
			<point x="186" y="550"/>
			<point x="180" y="549"/>
			<point x="174" y="547" type="curve" smooth="yes"/>
			<point x="130" y="535"/>
			<point x="96" y="497"/>
			<point x="96" y="452" type="curve" smooth="yes"/>
			<point x="96" y="403"/>
		</contour>
	</outline>
</glyph>
<glyph name="currency" format="2">
	<advance width="662"/>
	<unicode hex="00A4"/>
	<note>
		currency
	</note>
	<outline>
		<contour>
			<point x="519" y="301" type="curve" smooth="yes"/>
			<point x="526" y="336"/>
			<point x="523" y="369"/>
			<point x="512" y="396" type="curve"/>
			<point x="555" y="431" type="line" smooth="yes"/>
			<point x="563" y="437"/>
			<point x="568" y="448"/>
			<point x="568" y="459" type="curve" smooth="yes"/>
			<point x="568" y="479"/>
			<point x="551" y="495"/>
			<point x="531" y="495" type="curve" smooth="yes"/>
			<point x="523" y="495"/>
			<point x="514" y="492"/>
			<point x="508" y="487" type="curve" smooth="yes"/>
			<point x="467" y="453" type="line"/>
			<point x="444" y="471"/>
			<point x="413" y="481"/>
			<point x="377" y="481" type="curve" smooth="yes"/>
			<point x="341" y="481"/>
			<point x="306" y="471"/>
			<point x="275" y="453" type="curve"/>
			<point x="257" y="476" type="line" smooth="yes"/>
			<point x="249" y="487"/>
			<point x="236" y="493"/>
			<point x="222" y="493" type="curve" smooth="yes"/>
			<point x="197" y="493"/>
			<point x="177" y="473"/>
			<point x="177" y="448" type="curve" smooth="yes"/>
			<point x="177" y="438"/>
			<point x="181" y="428"/>
			<point x="187" y="421" type="curve" smooth="yes"/>
			<point x="206" y="396" type="line"/>
			<point x="183" y="369"/>
			<point x="166" y="336"/>
			<point x="159" y="301" type="curve" smooth="yes"/>
			<point x="151" y="266"/>
			<point x="154" y="233"/>
			<point x="165" y="206" type="curve"/>
			<point x="122" y="171" type="line" smooth="yes"/>
			<point x="114" y="165"/>
			<point x="109" y="154"/>
			<point x="109" y="143" type="curve" smooth="yes"/>
			<point x="109" y="123"/>
			<point x="126" y="107"/>
			<point x="146" y="107" type="curve" smooth="yes"/>
			<point x="154" y="107"/>
			<point x="163" y="110"/>
			<point x="169" y="115" type="curve" smooth="yes"/>
			<point x="210" y="149" type="line"/>
			<point x="234" y="131"/>
			<point x="264" y="121"/>
			<point x="300" y="121" type="curve" smooth="yes"/>
			<point x="336" y="121"/>
			<point x="372" y="131"/>
			<point x="402" y="149" type="curve"/>
			<point x="420" y="126" type="line" smooth="yes"/>
			<point x="428" y="115"/>
			<point x="441" y="109"/>
			<point x="455" y="109" type="curve" smooth="yes"/>
			<point x="480" y="109"/>
			<point x="500" y="129"/>
			<point x="500" y="154" type="curve" smooth="yes"/>
			<point x="500" y="164"/>
			<point x="496" y="174"/>
			<point x="490" y="181" type="curve" smooth="yes"/>
			<point x="471" y="206" type="line"/>
			<point x="494" y="233"/>
			<point x="511" y="266"/>
		</contour>
		<contour>
			<point x="320" y="215" type="curve" smooth="yes"/>
			<point x="274" y="215"/>
			<point x="252" y="249"/>
			<point x="263" y="301" type="curve" smooth="yes"/>
			<point x="274" y="353"/>
			<point x="311" y="387"/>
			<point x="357" y="387" type="curve" smooth="yes"/>
			<point x="403" y="387"/>
			<point x="426" y="353"/>
			<point x="415" y="301" type="curve" smooth="yes"/>
			<point x="404" y="249"/>
			<point x="366" y="215"/>
		</contour>
	</outline>
</glyph>
<glyph name="registered" format="2">
	<advance width="486"/>
	<unicode hex="00AE"/>
	<note>
		registered
	</note>
	<outline>
		<contour>
			<point x="349" y="764" type="curve" smooth="yes"/>
			<point x="225" y="764"/>
			<point x="121" y="677"/>
			<point x="94" y="554" type="curve" smooth="yes"/>
			<point x="68" y="431"/>
			<point x="136" y="344"/>
			<point x="260" y="344" type="curve" smooth="yes"/>
			<point x="384" y="344"/>
			<point x="488" y="431"/>
			<point x="514" y="554" type="curve" smooth="yes"/>
			<point x="541" y="677"/>
			<point x="473" y="764"/>
		</contour>
		<contour>
			<point x="272" y="400" type="curve" smooth="yes"/>
			<point x="184" y="400"/>
			<point x="135" y="464"/>
			<point x="154" y="554" type="curve" smooth="yes"/>
			<point x="174" y="644"/>
			<point x="249" y="708"/>
			<point x="337" y="708" type="curve" smooth="yes"/>
			<point x="425" y="708"/>
			<point x="474" y="644"/>
			<point x="454" y="554" type="curve" smooth="yes"/>
			<point x="435" y="464"/>
			<point x="360" y="400"/>
		</contour>
		<contour>
			<point x="358" y="553" type="curve"/>
			<point x="382" y="560"/>
			<point x="402" y="577"/>
			<point x="408" y="605" type="curve" smooth="yes"/>
			<point x="415" y="637"/>
			<point x="399" y="661"/>
			<point x="351" y="666" type="curve" smooth="yes"/>
			<point x="342" y="667"/>
			<point x="334" y="667"/>
			<point x="324" y="667" type="curve" smooth="yes"/>
			<point x="265" y="667"/>
			<point x="218" y="619"/>
			<point x="218" y="560" type="curve" smooth="yes"/>
			<point x="218" y="541"/>
			<point x="221" y="520"/>
			<point x="228" y="501" type="curve" smooth="yes"/>
			<point x="236" y="475"/>
			<point x="270" y="492"/>
			<point x="277" y="523" type="curve"/>
			<point x="290" y="523" type="line" smooth="yes"/>
			<point x="308" y="523"/>
			<point x="314" y="513"/>
			<point x="313" y="494" type="curve" smooth="yes"/>
			<point x="312" y="487"/>
			<point x="312" y="480"/>
			<point x="311" y="473" type="curve" smooth="yes"/>
			<point x="311" y="460"/>
			<point x="323" y="453"/>
			<point x="345" y="453" type="curve" smooth="yes"/>
			<point x="366" y="453"/>
			<point x="376" y="507"/>
			<point x="376" y="507" type="curve" smooth="yes"/>
			<point x="379" y="529"/>
			<point x="376" y="547"/>
		</contour>
		<contour>
			<point x="316" y="570" type="curve" smooth="yes"/>
			<point x="309" y="569"/>
			<point x="304" y="569"/>
			<point x="296" y="569" type="curve" smooth="yes"/>
			<point x="287" y="569" type="line"/>
			<point x="298" y="622" type="line"/>
			<point x="308" y="622" type="line" smooth="yes"/>
			<point x="316" y="622"/>
			<point x="320" y="622"/>
			<point x="327" y="621" type="curve" smooth="yes"/>
			<point x="338" y="619"/>
			<point x="344" y="609"/>
			<point x="341" y="595" type="curve" smooth="yes"/>
			<point x="339" y="584"/>
			<point x="329" y="572"/>
		</contour>
	</outline>
</glyph>
<glyph name="macron" format="2">
	<advance width="300"/>
	<unicode hex="00AF"/>
	<note>
		macron
	</note>
	<outline>
		<contour>
			<point x="118" y="586" type="curve" smooth="yes"/>
			<point x="339" y="586" type="line" smooth="yes"/>
			<point x="365" y="586"/>
			<point x="387" y="607"/>
			<point x="387" y="634" type="curve" smooth="yes"/>
			<point x="387" y="661"/>
			<point x="365" y="682"/>
			<point x="339" y="682" type="curve" smooth="yes"/>
			<point x="118" y="682" type="line" smooth="yes"/>
			<point x="92" y="682"/>
			<point x="70" y="661"/>
			<point x="70" y="634" type="curve" smooth="yes"/>
			<point x="70" y="607"/>
			<point x="92" y="586"/>
		</contour>
	</outline>
</glyph>
<glyph name="plusminus" format="2">
	<advance width="662"/>
	<unicode hex="00B1"/>
	<note>
		plusminus
	</note>
	<outline>
		<contour>
			<point x="502" y="366" type="curve" smooth="yes"/>
			<point x="402" y="366" type="line"/>
			<point x="422" y="458" type="line" smooth="yes"/>
			<point x="429" y="489"/>
			<point x="405" y="517"/>
			<point x="374" y="517" type="curve" smooth="yes"/>
			<point x="351" y="517"/>
			<point x="332" y="501"/>
			<point x="327" y="479" type="curve" smooth="yes"/>
			<point x="302" y="366" type="line"/>
			<point x="182" y="366" type="line" smooth="yes"/>
			<point x="156" y="366"/>
			<point x="134" y="345"/>
			<point x="134" y="318" type="curve" smooth="yes"/>
			<point x="134" y="291"/>
			<point x="156" y="270"/>
			<point x="182" y="270" type="curve" smooth="yes"/>
			<point x="282" y="270" type="line"/>
			<point x="262" y="176" type="line" smooth="yes"/>
			<point x="256" y="146"/>
			<point x="279" y="117"/>
			<point x="310" y="117" type="curve" smooth="yes"/>
			<point x="333" y="117"/>
			<point x="352" y="134"/>
			<point x="357" y="156" type="curve" smooth="yes"/>
			<point x="382" y="270" type="line"/>
			<point x="502" y="270" type="line" smooth="yes"/>
			<point x="528" y="270"/>
			<point x="550" y="291"/>
			<point x="550" y="318" type="curve" smooth="yes"/>
			<point x="550" y="345"/>
			<point x="528" y="366"/>
		</contour>
		<contour>
			<point x="120" y="0" type="curve" smooth="yes"/>
			<point x="448" y="0" type="line" smooth="yes"/>
			<point x="472" y="0"/>
			<point x="492" y="20"/>
			<point x="492" y="44" type="curve" smooth="yes"/>
			<point x="492" y="68"/>
			<point x="472" y="88"/>
			<point x="448" y="88" type="curve" smooth="yes"/>
			<point x="120" y="88" type="line" smooth="yes"/>
			<point x="96" y="88"/>
			<point x="76" y="68"/>
			<point x="76" y="44" type="curve" smooth="yes"/>
			<point x="76" y="20"/>
			<point x="96" y="0"/>
		</contour>
	</outline>
</glyph>
<glyph name="acute" format="2">
	<advance width="300"/>
	<unicode hex="00B4"/>
	<note>
		acute
	</note>
	<outline>
		<contour>
			<point x="233" y="562"/>
			<point x="234" y="563" type="curve" smooth="yes"/>
			<point x="322" y="637"/>
			<point x="316" y="704"/>
			<point x="316" y="704" type="curve" smooth="yes"/>
			<point x="278" y="698"/>
			<point x="244" y="677"/>
			<point x="222" y="649" type="curve" smooth="yes"/>
			<point x="196" y="614"/>
			<point x="233" y="562"/>
			<point x="233" y="562" type="curve"/>
			<point x="233" y="562"/>
		</contour>
	</outline>
</glyph>
<glyph name="paragraph" format="2">
	<advance width="618"/>
	<unicode hex="00B6"/>
	<note>
		paragraph
	</note>
	<outline>
		<contour>
			<point x="490" y="-80" type="curve" smooth="yes"/>
			<point x="632" y="586" type="line" smooth="yes"/>
			<point x="646" y="651"/>
			<point x="614" y="690"/>
			<point x="548" y="690" type="curve" smooth="yes"/>
			<point x="341" y="690" type="line" smooth="yes"/>
			<point x="323" y="690"/>
			<point x="302" y="690"/>
			<point x="285" y="689" type="curve" smooth="yes"/>
			<point x="182" y="683"/>
			<point x="109" y="600"/>
			<point x="89" y="505" type="curve" smooth="yes"/>
			<point x="69" y="410"/>
			<point x="106" y="327"/>
			<point x="207" y="321" type="curve" smooth="yes"/>
			<point x="224" y="320"/>
			<point x="245" y="320"/>
			<point x="263" y="320" type="curve"/>
			<point x="182" y="-60" type="line" smooth="yes"/>
			<point x="176" y="-90"/>
			<point x="198" y="-119"/>
			<point x="230" y="-119" type="curve" smooth="yes"/>
			<point x="253" y="-119"/>
			<point x="272" y="-102"/>
			<point x="277" y="-80" type="curve" smooth="yes"/>
			<point x="421" y="594" type="line"/>
			<point x="534" y="594" type="line"/>
			<point x="395" y="-60" type="line" smooth="yes"/>
			<point x="389" y="-90"/>
			<point x="411" y="-119"/>
			<point x="442" y="-119" type="curve" smooth="yes"/>
			<point x="466" y="-119"/>
			<point x="485" y="-103"/>
		</contour>
	</outline>
</glyph>
<glyph name="guillemotright" format="2">
	<advance width="664"/>
	<unicode hex="00BB"/>
	<note>
		guillemotright
	</note>
	<outline>
		<contour>
			<point x="138" y="86" type="curve" smooth="yes"/>
			<point x="245" y="189" type="line" smooth="yes"/>
			<point x="286" y="228"/>
			<point x="291" y="272"/>
			<point x="262" y="321" type="curve" smooth="yes"/>
			<point x="216" y="397" type="line" smooth="yes"/>
			<point x="207" y="413"/>
			<point x="188" y="423"/>
			<point x="169" y="423" type="curve" smooth="yes"/>
			<point x="138" y="423"/>
			<point x="113" y="398"/>
			<point x="113" y="368" type="curve" smooth="yes"/>
			<point x="113" y="357"/>
			<point x="116" y="348"/>
			<point x="121" y="339" type="curve" smooth="yes"/>
			<point x="177" y="248" type="line"/>
			<point x="75" y="150" type="line" smooth="yes"/>
			<point x="67" y="142"/>
			<point x="62" y="130"/>
			<point x="62" y="118" type="curve" smooth="yes"/>
			<point x="62" y="93"/>
			<point x="82" y="73"/>
			<point x="107" y="73" type="curve" smooth="yes"/>
			<point x="119" y="73"/>
			<point x="130" y="79"/>
		</contour>
		<contour>
			<point x="378" y="86" type="curve" smooth="yes"/>
			<point x="485" y="189" type="line" smooth="yes"/>
			<point x="526" y="228"/>
			<point x="531" y="272"/>
			<point x="502" y="321" type="curve" smooth="yes"/>
			<point x="456" y="397" type="line" smooth="yes"/>
			<point x="447" y="413"/>
			<point x="428" y="423"/>
			<point x="409" y="423" type="curve" smooth="yes"/>
			<point x="378" y="423"/>
			<point x="353" y="398"/>
			<point x="353" y="368" type="curve" smooth="yes"/>
			<point x="353" y="357"/>
			<point x="356" y="348"/>
			<point x="361" y="339" type="curve" smooth="yes"/>
			<point x="417" y="248" type="line"/>
			<point x="315" y="150" type="line" smooth="yes"/>
			<point x="307" y="142"/>
			<point x="302" y="130"/>
			<point x="302" y="118" type="curve" smooth="yes"/>
			<point x="302" y="93"/>
			<point x="322" y="73"/>
			<point x="347" y="73" type="curve" smooth="yes"/>
			<point x="359" y="73"/>
			<point x="370" y="79"/>
		</contour>
	</outline>
</glyph>
<glyph name="Agrave" format="2">
	<advance width="707"/>
	<unicode hex="00C0"/>
	<note>
		Agrave
	</note>
	<outline>
		<contour>
			<point x="406" y="735"/>
			<point x="440" y="735" type="curve"/>
			<point x="470" y="739"/>
			<point x="494" y="766"/>
			<point x="494" y="798" type="curve" smooth="yes"/>
			<point x="494" y="829"/>
			<point x="470" y="856"/>
			<point x="440" y="860" type="curve"/>
			<point x="406" y="860"/>
			<point x="378" y="832"/>
			<point x="378" y="797" type="curve" smooth="yes"/>
			<point x="378" y="763"/>
		</contour>
		<contour>
			<point x="235" y="179" type="line"/>
			<point x="450" y="179" type="line"/>
			<point x="462" y="76" type="line" smooth="yes"/>
			<point x="467" y="29"/>
			<point x="507" y="-9"/>
			<point x="556" y="-9" type="curve" smooth="yes"/>
			<point x="616" y="-9"/>
			<point x="659" y="45"/>
			<point x="651" y="101" type="curve" smooth="yes"/>
			<point x="576" y="603" type="line" smooth="yes"/>
			<point x="567" y="661"/>
			<point x="533" y="690"/>
			<point x="475" y="690" type="curve" smooth="yes"/>
			<point x="418" y="690" type="line" smooth="yes"/>
			<point x="366" y="690"/>
			<point x="332" y="671"/>
			<point x="306" y="625" type="curve" smooth="yes"/>
			<point x="13" y="114" type="line" smooth="yes"/>
			<point x="6" y="102"/>
			<point x="3" y="88"/>
			<point x="3" y="73" type="curve" smooth="yes"/>
			<point x="3" y="28"/>
			<point x="39" y="-9"/>
			<point x="85" y="-9" type="curve" smooth="yes"/>
			<point x="116" y="-9"/>
			<point x="143" y="9"/>
			<point x="157" y="34" type="curve" smooth="yes"/>
		</contour>
		<contour>
			<point x="308" y="319" type="line"/>
			<point x="418" y="531" type="line"/>
			<point x="436" y="319" type="line"/>
		</contour>
	</outline>
</glyph>
<glyph name="Aacute" format="2">
	<advance width="707"/>
	<unicode hex="00C1"/>
	<note>
		Aacute
	</note>
	<outline>
		<contour>
			<point x="481" y="726"/>
			<point x="482" y="727" type="curve" smooth="yes"/>
			<point x="570" y="801"/>
			<point x="563" y="868"/>
			<point x="563" y="868" type="curve" smooth="yes"/>
			<point x="526" y="861"/>
			<point x="492" y="842"/>
			<point x="470" y="813" type="curve" smooth="yes"/>
			<point x="444" y="778"/>
			<point x="481" y="726"/>
			<point x="481" y="726" type="curve"/>
			<point x="481" y="726"/>
		</contour>
		<contour>
			<point x="235" y="179" type="line"/>
			<point x="450" y="179" type="line"/>
			<point x="462" y="76" type="line" smooth="yes"/>
			<point x="467" y="29"/>
			<point x="507" y="-9"/>
			<point x="556" y="-9" type="curve" smooth="yes"/>
			<point x="616" y="-9"/>
			<point x="659" y="45"/>
			<point x="651" y="101" type="curve" smooth="yes"/>
			<point x="576" y="603" type="line" smooth="yes"/>
			<point x="567" y="661"/>
			<point x="533" y="690"/>
			<point x="475" y="690" type="curve" smooth="yes"/>
			<point x="418" y="690" type="line" smooth="yes"/>
			<point x="366" y="690"/>
			<point x="332" y="671"/>
			<point x="306" y="625" type="curve" smooth="yes"/>
			<point x="13" y="114" type="line" smooth="yes"/>
			<point x="6" y="102"/>
			<point x="3" y="88"/>
			<point x="3" y="73" type="curve" smooth="yes"/>
			<point x="3" y="28"/>
			<point x="39" y="-9"/>
			<point x="85" y="-9" type="curve" smooth="yes"/>
			<point x="116" y="-9"/>
			<point x="143" y="9"/>
			<point x="157" y="34" type="curve" smooth="yes"/>
		</contour>
		<contour>
			<point x="308" y="319" type="line"/>
			<point x="418" y="531" type="line"/>
			<point x="436" y="319" type="line"/>
		</contour>
	</outline>
</glyph>
<glyph name="Aring" format="2">
	<advance width="707"/>
	<unicode hex="00C5"/>
	<note>
		Aring
	</note>
	<outline>
		<contour>
			<point x="460" y="722" type="curve" smooth="yes"/>
			<point x="530" y="722"/>
			<point x="588" y="765"/>
			<point x="601" y="827" type="curve" smooth="yes"/>
			<point x="615" y="889"/>
			<point x="575" y="932"/>
			<point x="505" y="932" type="curve" smooth="yes"/>
			<point x="435" y="932"/>
			<point x="377" y="889"/>
			<point x="363" y="827" type="curve" smooth="yes"/>
			<point x="350" y="765"/>
			<point x="390" y="722"/>
		</contour>
		<contour>
			<point x="491" y="866" type="curve" smooth="yes"/>
			<point x="512" y="866"/>
			<point x="523" y="850"/>
			<point x="518" y="827" type="curve" smooth="yes"/>
			<point x="514" y="804"/>
			<point x="495" y="788"/>
			<point x="474" y="788" type="curve" smooth="yes"/>
			<point x="453" y="788"/>
			<point x="442" y="804"/>
			<point x="446" y="827" type="curve" smooth="yes"/>
			<point x="451" y="850"/>
			<point x="470" y="866"/>
		</contour>
		<contour>
			<point x="235" y="179" type="line"/>
			<point x="450" y="179" type="line"/>
			<point x="462" y="76" type="line" smooth="yes"/>
			<point x="467" y="29"/>
			<point x="507" y="-9"/>
			<point x="556" y="-9" type="curve" smooth="yes"/>
			<point x="616" y="-9"/>
			<point x="659" y="45"/>
			<point x="651" y="101" type="curve" smooth="yes"/>
			<point x="576" y="603" type="line" smooth="yes"/>
			<point x="567" y="661"/>
			<point x="533" y="690"/>
			<point x="475" y="690" type="curve" smooth="yes"/>
			<point x="418" y="690" type="line" smooth="yes"/>
			<point x="366" y="690"/>
			<point x="332" y="671"/>
			<point x="306" y="625" type="curve" smooth="yes"/>
			<point x="13" y="114" type="line" smooth="yes"/>
			<point x="6" y="102"/>
			<point x="3" y="88"/>
			<point x="3" y="73" type="curve" smooth="yes"/>
			<point x="3" y="28"/>
			<point x="39" y="-9"/>
			<point x="85" y="-9" type="curve" smooth="yes"/>
			<point x="116" y="-9"/>
			<point x="143" y="9"/>
			<point x="157" y="34" type="curve" smooth="yes"/>
		</contour>
		<contour>
			<point x="308" y="319" type="line"/>
			<point x="418" y="531" type="line"/>
			<point x="436" y="319" type="line"/>
		</contour>
	</outline>
</glyph>
<glyph name="Eacute" format="2">
	<advance width="639"/>
	<unicode hex="00C9"/>
	<note>
		Eacute
	</note>
	<outline>
		<contour>
			<point x="458" y="726"/>
			<point x="459" y="727" type="curve" smooth="yes"/>
			<point x="547" y="801"/>
			<point x="540" y="868"/>
			<point x="540" y="868" type="curve" smooth="yes"/>
			<point x="503" y="861"/>
			<point x="469" y="842"/>
			<point x="447" y="813" type="curve" smooth="yes"/>
			<point x="421" y="778"/>
			<point x="458" y="726"/>
			<point x="458" y="726" type="curve"/>
			<point x="458" y="726"/>
		</contour>
		<contour>
			<point x="543" y="140"/>
			<point x="505" y="140" type="curve" smooth="yes"/>
			<point x="233" y="140" type="line"/>
			<point x="262" y="276" type="line"/>
			<point x="534" y="276" type="line" smooth="yes"/>
			<point x="572" y="276"/>
			<point x="604" y="307"/>
			<point x="604" y="346" type="curve" smooth="yes"/>
			<point x="604" y="385"/>
			<point x="572" y="416"/>
			<point x="534" y="416" type="curve" smooth="yes"/>
			<point x="292" y="416" type="line"/>
			<point x="321" y="550" type="line"/>
			<point x="612" y="550" type="line" smooth="yes"/>
			<point x="650" y="550"/>
			<point x="682" y="581"/>
			<point x="682" y="620" type="curve" smooth="yes"/>
			<point x="682" y="659"/>
			<point x="650" y="690"/>
			<point x="612" y="690" type="curve" smooth="yes"/>
			<point x="256" y="690" type="line" smooth="yes"/>
			<point x="199" y="690"/>
			<point x="164" y="663"/>
			<point x="152" y="606" type="curve" smooth="yes"/>
			<point x="46" y="104" type="line" smooth="yes"/>
			<point x="32" y="39"/>
			<point x="64" y="0"/>
			<point x="130" y="0" type="curve" smooth="yes"/>
			<point x="505" y="0" type="line" smooth="yes"/>
			<point x="543" y="0"/>
			<point x="575" y="31"/>
			<point x="575" y="70" type="curve" smooth="yes"/>
			<point x="575" y="109"/>
		</contour>
	</outline>
</glyph>
<glyph name="Ecircumflex" format="2">
	<advance width="639"/>
	<unicode hex="00CA"/>
	<note>
		Ecircumflex
	</note>
	<outline>
		<contour>
			<point x="407" y="733"/>
			<point x="414" y="745" type="curve" smooth="yes"/>
			<point x="455" y="811" type="line"/>
			<point x="464" y="773" type="line" smooth="yes"/>
			<point x="470" y="748"/>
			<point x="483" y="735"/>
			<point x="503" y="735" type="curve" smooth="yes"/>
			<point x="537" y="735"/>
			<point x="566" y="763"/>
			<point x="566" y="798" type="curve" smooth="yes"/>
			<point x="566" y="832"/>
			<point x="537" y="860"/>
			<point x="503" y="860" type="curve" smooth="yes"/>
			<point x="428" y="860" type="line" smooth="yes"/>
			<point x="382" y="860"/>
			<point x="342" y="826"/>
			<point x="337" y="780" type="curve" smooth="yes"/>
			<point x="337" y="776"/>
			<point x="336" y="772"/>
			<point x="336" y="768" type="curve" smooth="yes"/>
			<point x="336" y="745"/>
			<point x="355" y="726"/>
			<point x="378" y="726" type="curve" smooth="yes"/>
			<point x="393" y="726"/>
		</contour>
		<contour>
			<point x="543" y="140"/>
			<point x="505" y="140" type="curve" smooth="yes"/>
			<point x="233" y="140" type="line"/>
			<point x="262" y="276" type="line"/>
			<point x="534" y="276" type="line" smooth="yes"/>
			<point x="572" y="276"/>
			<point x="604" y="307"/>
			<point x="604" y="346" type="curve" smooth="yes"/>
			<point x="604" y="385"/>
			<point x="572" y="416"/>
			<point x="534" y="416" type="curve" smooth="yes"/>
			<point x="292" y="416" type="line"/>
			<point x="321" y="550" type="line"/>
			<point x="612" y="550" type="line" smooth="yes"/>
			<point x="650" y="550"/>
			<point x="682" y="581"/>
			<point x="682" y="620" type="curve" smooth="yes"/>
			<point x="682" y="659"/>
			<point x="650" y="690"/>
			<point x="612" y="690" type="curve" smooth="yes"/>
			<point x="256" y="690" type="line" smooth="yes"/>
			<point x="199" y="690"/>
			<point x="164" y="663"/>
			<point x="152" y="606" type="curve" smooth="yes"/>
			<point x="46" y="104" type="line" smooth="yes"/>
			<point x="32" y="39"/>
			<point x="64" y="0"/>
			<point x="130" y="0" type="curve" smooth="yes"/>
			<point x="505" y="0" type="line" smooth="yes"/>
			<point x="543" y="0"/>
			<point x="575" y="31"/>
			<point x="575" y="70" type="curve" smooth="yes"/>
			<point x="575" y="109"/>
		</contour>
	</outline>
</glyph>
<glyph name="Igrave" format="2">
	<advance width="314"/>
	<unicode hex="00CC"/>
	<note>
		Igrave
	</note>
	<outline>
		<contour>
			<point x="307" y="771"/>
			<point x="307" y="779"/>
			<point x="274" y="860"/>
			<point x="228" y="869"/>
			<point x="202" y="833" type="curve" smooth="yes"/>
			<point x="195" y="822"/>
			<point x="190" y="809"/>
			<point x="190" y="794" type="curve" smooth="yes"/>
			<point x="190" y="763"/>
			<point x="212" y="737"/>
			<point x="240" y="730" type="curve" smooth="yes"/>
			<point x="247" y="728"/>
			<point x="255" y="726"/>
			<point x="262" y="726" type="curve" smooth="yes"/>
			<point x="287" y="726"/>
			<point x="307" y="746"/>
			<point x="307" y="771" type="curve" smooth="yes"/>
			<point x="307" y="771"/>
		</contour>
		<contour>
			<point x="209" y="22"/>
			<point x="217" y="61" type="curve" smooth="yes"/>
			<point x="329" y="593" type="line" smooth="yes"/>
			<point x="330" y="598"/>
			<point x="331" y="605"/>
			<point x="331" y="611" type="curve" smooth="yes"/>
			<point x="331" y="660"/>
			<point x="292" y="699"/>
			<point x="243" y="699" type="curve" smooth="yes"/>
			<point x="201" y="699"/>
			<point x="165" y="669"/>
			<point x="157" y="629" type="curve" smooth="yes"/>
			<point x="45" y="97" type="line" smooth="yes"/>
			<point x="44" y="92"/>
			<point x="43" y="85"/>
			<point x="43" y="79" type="curve" smooth="yes"/>
			<point x="43" y="30"/>
			<point x="82" y="-9"/>
			<point x="131" y="-9" type="curve" smooth="yes"/>
			<point x="173" y="-9"/>
		</contour>
	</outline>
</glyph>
<glyph name="Icircumflex" format="2">
	<advance width="314"/>
	<unicode hex="00CE"/>
	<note>
		Icircumflex
	</note>
	<outline>
		<contour>
			<point x="237" y="733"/>
			<point x="244" y="745" type="curve" smooth="yes"/>
			<point x="285" y="811" type="line"/>
			<point x="294" y="773" type="line" smooth="yes"/>
			<point x="300" y="748"/>
			<point x="313" y="735"/>
			<point x="333" y="735" type="curve" smooth="yes"/>
			<point x="367" y="735"/>
			<point x="396" y="763"/>
			<point x="396" y="798" type="curve" smooth="yes"/>
			<point x="396" y="832"/>
			<point x="367" y="860"/>
			<point x="333" y="860" type="curve" smooth="yes"/>
			<point x="258" y="860" type="line" smooth="yes"/>
			<point x="212" y="860"/>
			<point x="172" y="826"/>
			<point x="167" y="780" type="curve" smooth="yes"/>
			<point x="167" y="776"/>
			<point x="166" y="772"/>
			<point x="166" y="768" type="curve" smooth="yes"/>
			<point x="166" y="745"/>
			<point x="185" y="726"/>
			<point x="208" y="726" type="curve" smooth="yes"/>
			<point x="223" y="726"/>
		</contour>
		<contour>
			<point x="165" y="668"/>
			<point x="157" y="629" type="curve" smooth="yes"/>
			<point x="45" y="97" type="line" smooth="yes"/>
			<point x="44" y="92"/>
			<point x="43" y="85"/>
			<point x="43" y="79" type="curve" smooth="yes"/>
			<point x="43" y="30"/>
			<point x="82" y="-9"/>
			<point x="131" y="-9" type="curve" smooth="yes"/>
			<point x="173" y="-9"/>
			<point x="209" y="21"/>
			<point x="217" y="61" type="curve" smooth="yes"/>
			<point x="329" y="593" type="line" smooth="yes"/>
			<point x="330" y="598"/>
			<point x="331" y="605"/>
			<point x="331" y="611" type="curve" smooth="yes"/>
			<point x="331" y="660"/>
			<point x="292" y="699"/>
			<point x="243" y="699" type="curve" smooth="yes"/>
			<point x="201" y="699"/>
		</contour>
	</outline>
</glyph>
<glyph name="Oacute" format="2">
	<advance width="788"/>
	<unicode hex="00D3"/>
	<note>
		Oacute
	</note>
	<outline>
		<contour>
			<point x="525" y="726"/>
			<point x="526" y="727" type="curve" smooth="yes"/>
			<point x="614" y="801"/>
			<point x="607" y="868"/>
			<point x="607" y="868" type="curve" smooth="yes"/>
			<point x="570" y="861"/>
			<point x="536" y="842"/>
			<point x="514" y="813" type="curve" smooth="yes"/>
			<point x="488" y="778"/>
			<point x="525" y="726"/>
			<point x="525" y="726" type="curve"/>
			<point x="525" y="726"/>
		</contour>
		<contour>
			<point x="500" y="704" type="curve" smooth="yes"/>
			<point x="285" y="704"/>
			<point x="118" y="567"/>
			<point x="71" y="345" type="curve" smooth="yes"/>
			<point x="24" y="124"/>
			<point x="133" y="-14"/>
			<point x="348" y="-14" type="curve" smooth="yes"/>
			<point x="563" y="-14"/>
			<point x="730" y="124"/>
			<point x="777" y="345" type="curve" smooth="yes"/>
			<point x="824" y="567"/>
			<point x="715" y="704"/>
		</contour>
		<contour>
			<point x="376" y="118" type="curve" smooth="yes"/>
			<point x="272" y="118"/>
			<point x="224" y="199"/>
			<point x="255" y="345" type="curve" smooth="yes"/>
			<point x="286" y="492"/>
			<point x="368" y="572"/>
			<point x="472" y="572" type="curve" smooth="yes"/>
			<point x="576" y="572"/>
			<point x="624" y="492"/>
			<point x="593" y="345" type="curve" smooth="yes"/>
			<point x="562" y="199"/>
			<point x="480" y="118"/>
		</contour>
	</outline>
</glyph>
<glyph name="Ocircumflex" format="2">
	<advance width="788"/>
	<unicode hex="00D4"/>
	<note>
		Ocircumflex
	</note>
	<outline>
		<contour>
			<point x="474" y="733"/>
			<point x="481" y="745" type="curve" smooth="yes"/>
			<point x="522" y="811" type="line"/>
			<point x="531" y="773" type="line" smooth="yes"/>
			<point x="537" y="748"/>
			<point x="550" y="735"/>
			<point x="570" y="735" type="curve" smooth="yes"/>
			<point x="604" y="735"/>
			<point x="633" y="763"/>
			<point x="633" y="798" type="curve" smooth="yes"/>
			<point x="633" y="832"/>
			<point x="604" y="860"/>
			<point x="570" y="860" type="curve" smooth="yes"/>
			<point x="495" y="860" type="line" smooth="yes"/>
			<point x="449" y="860"/>
			<point x="409" y="826"/>
			<point x="404" y="780" type="curve" smooth="yes"/>
			<point x="404" y="776"/>
			<point x="403" y="772"/>
			<point x="403" y="768" type="curve" smooth="yes"/>
			<point x="403" y="745"/>
			<point x="422" y="726"/>
			<point x="445" y="726" type="curve" smooth="yes"/>
			<point x="460" y="726"/>
		</contour>
		<contour>
			<point x="500" y="704" type="curve" smooth="yes"/>
			<point x="285" y="704"/>
			<point x="118" y="567"/>
			<point x="71" y="345" type="curve" smooth="yes"/>
			<point x="24" y="124"/>
			<point x="133" y="-14"/>
			<point x="348" y="-14" type="curve" smooth="yes"/>
			<point x="563" y="-14"/>
			<point x="730" y="124"/>
			<point x="777" y="345" type="curve" smooth="yes"/>
			<point x="824" y="567"/>
			<point x="715" y="704"/>
		</contour>
		<contour>
			<point x="376" y="118" type="curve" smooth="yes"/>
			<point x="272" y="118"/>
			<point x="224" y="199"/>
			<point x="255" y="345" type="curve" smooth="yes"/>
			<point x="286" y="492"/>
			<point x="368" y="572"/>
			<point x="472" y="572" type="curve" smooth="yes"/>
			<point x="576" y="572"/>
			<point x="624" y="492"/>
			<point x="593" y="345" type="curve" smooth="yes"/>
			<point x="562" y="199"/>
			<point x="480" y="118"/>
		</contour>
	</outline>
</glyph>
<glyph name="Udieresis" format="2">
	<advance width="718"/>
	<unicode hex="00DC"/>
	<note>
		Udieresis
	</note>
	<outline>
		<contour>
			<point x="688" y="303" type="curve" smooth="yes"/>
			<point x="749" y="593" type="line" smooth="yes"/>
			<point x="750" y="598"/>
			<point x="751" y="605"/>
			<point x="751" y="611" type="curve" smooth="yes"/>
			<point x="751" y="660"/>
			<point x="712" y="699"/>
			<point x="663" y="699" type="curve" smooth="yes"/>
			<point x="621" y="699"/>
			<point x="585" y="668"/>
			<point x="577" y="629" type="curve" smooth="yes"/>
			<point x="501" y="270" type="line" smooth="yes"/>
			<point x="497" y="251"/>
			<point x="495" y="241"/>
			<point x="491" y="229" type="curve" smooth="yes"/>
			<point x="471" y="157"/>
			<point x="422" y="118"/>
			<point x="343" y="118" type="curve" smooth="yes"/>
			<point x="264" y="118"/>
			<point x="231" y="157"/>
			<point x="241" y="229" type="curve" smooth="yes"/>
			<point x="243" y="241"/>
			<point x="245" y="251"/>
			<point x="249" y="270" type="curve" smooth="yes"/>
			<point x="317" y="593" type="line" smooth="yes"/>
			<point x="318" y="598"/>
			<point x="319" y="605"/>
			<point x="319" y="611" type="curve" smooth="yes"/>
			<point x="319" y="660"/>
			<point x="280" y="699"/>
			<point x="231" y="699" type="curve" smooth="yes"/>
			<point x="189" y="699"/>
			<point x="153" y="668"/>
			<point x="145" y="629" type="curve" smooth="yes"/>
			<point x="76" y="303" type="line" smooth="yes"/>
			<point x="69" y="268"/>
			<point x="64" y="247"/>
			<point x="58" y="206" type="curve" smooth="yes"/>
			<point x="42" y="90"/>
			<point x="102" y="-14"/>
			<point x="315" y="-14" type="curve" smooth="yes"/>
			<point x="528" y="-14"/>
			<point x="632" y="90"/>
			<point x="664" y="206" type="curve" smooth="yes"/>
			<point x="676" y="247"/>
			<point x="681" y="268"/>
		</contour>
		<contour>
			<point x="336" y="723"/>
			<point x="376" y="723" type="curve" smooth="yes"/>
			<point x="422" y="723"/>
			<point x="450" y="744"/>
			<point x="459" y="789" type="curve" smooth="yes"/>
			<point x="468" y="834"/>
			<point x="434" y="879"/>
			<point x="386" y="879" type="curve" smooth="yes"/>
			<point x="374" y="879"/>
			<point x="363" y="876"/>
			<point x="353" y="871" type="curve" smooth="yes"/>
			<point x="324" y="856"/>
			<point x="303" y="829"/>
			<point x="303" y="797" type="curve" smooth="yes"/>
			<point x="303" y="756"/>
		</contour>
		<contour>
			<point x="537" y="723"/>
			<point x="577" y="723" type="curve" smooth="yes"/>
			<point x="623" y="723"/>
			<point x="651" y="744"/>
			<point x="660" y="789" type="curve" smooth="yes"/>
			<point x="669" y="834"/>
			<point x="635" y="879"/>
			<point x="587" y="879" type="curve" smooth="yes"/>
			<point x="575" y="879"/>
			<point x="563" y="875"/>
			<point x="553" y="870" type="curve" smooth="yes"/>
			<point x="525" y="856"/>
			<point x="504" y="829"/>
			<point x="504" y="796" type="curve" smooth="yes"/>
			<point x="504" y="756"/>
		</contour>
	</outline>
</glyph>
<glyph name="Thorn" format="2">
	<advance width="653"/>
	<unicode hex="00DE"/>
	<note>
		Thorn
	</note>
	<outline>
		<contour>
			<point x="528" y="597" type="curve" smooth="yes"/>
			<point x="491" y="601"/>
			<point x="464" y="602"/>
			<point x="421" y="602" type="curve" smooth="yes"/>
			<point x="332" y="602" type="line"/>
			<point x="337" y="652"/>
			<point x="299" y="699"/>
			<point x="244" y="699" type="curve" smooth="yes"/>
			<point x="201" y="699"/>
			<point x="165" y="669"/>
			<point x="157" y="629" type="curve" smooth="yes"/>
			<point x="45" y="97" type="line" smooth="yes"/>
			<point x="44" y="92"/>
			<point x="43" y="85"/>
			<point x="43" y="79" type="curve" smooth="yes"/>
			<point x="43" y="30"/>
			<point x="82" y="-9"/>
			<point x="131" y="-9" type="curve" smooth="yes"/>
			<point x="173" y="-9"/>
			<point x="209" y="21"/>
			<point x="217" y="61" type="curve" smooth="yes"/>
			<point x="241" y="174" type="line"/>
			<point x="330" y="174" type="line" smooth="yes"/>
			<point x="373" y="174"/>
			<point x="401" y="175"/>
			<point x="439" y="179" type="curve" smooth="yes"/>
			<point x="541" y="191"/>
			<point x="637" y="255"/>
			<point x="665" y="388" type="curve" smooth="yes"/>
			<point x="693" y="521"/>
			<point x="625" y="585"/>
		</contour>
		<contour>
			<point x="389" y="315" type="curve" smooth="yes"/>
			<point x="375" y="314"/>
			<point x="359" y="314"/>
			<point x="340" y="314" type="curve" smooth="yes"/>
			<point x="270" y="314" type="line"/>
			<point x="302" y="462" type="line"/>
			<point x="372" y="462" type="line" smooth="yes"/>
			<point x="391" y="462"/>
			<point x="407" y="462"/>
			<point x="420" y="461" type="curve" smooth="yes"/>
			<point x="465" y="457"/>
			<point x="487" y="435"/>
			<point x="477" y="388" type="curve" smooth="yes"/>
			<point x="467" y="341"/>
			<point x="435" y="319"/>
		</contour>
	</outline>
</glyph>
<glyph name="germandbls" format="2">
	<advance width="666"/>
	<unicode hex="00DF"/>
	<note>
		germandbls
	</note>
	<outline>
		<contour>
			<point x="439" y="754" type="curve" smooth="yes"/>
			<point x="270" y="754"/>
			<point x="151" y="671"/>
			<point x="113" y="534" type="curve" smooth="yes"/>
			<point x="108" y="516"/>
			<point x="102" y="490"/>
			<point x="89" y="430" type="curve" smooth="yes"/>
			<point x="19" y="97" type="line" smooth="yes"/>
			<point x="18" y="92"/>
			<point x="17" y="85"/>
			<point x="17" y="79" type="curve" smooth="yes"/>
			<point x="17" y="30"/>
			<point x="56" y="-9"/>
			<point x="105" y="-9" type="curve" smooth="yes"/>
			<point x="147" y="-9"/>
			<point x="183" y="21"/>
			<point x="191" y="61" type="curve" smooth="yes"/>
			<point x="271" y="438" type="line" smooth="yes"/>
			<point x="284" y="499"/>
			<point x="289" y="518"/>
			<point x="293" y="532" type="curve" smooth="yes"/>
			<point x="309" y="588"/>
			<point x="346" y="622"/>
			<point x="405" y="622" type="curve" smooth="yes"/>
			<point x="462" y="622"/>
			<point x="484" y="599"/>
			<point x="475" y="558" type="curve" smooth="yes"/>
			<point x="472" y="542"/>
			<point x="466" y="527"/>
			<point x="453" y="514" type="curve"/>
			<point x="400" y="484"/>
			<point x="371" y="448"/>
			<point x="360" y="398" type="curve" smooth="yes"/>
			<point x="348" y="341"/>
			<point x="366" y="311"/>
			<point x="406" y="257" type="curve" smooth="yes"/>
			<point x="430" y="226"/>
			<point x="439" y="202"/>
			<point x="433" y="175" type="curve" smooth="yes"/>
			<point x="426" y="145"/>
			<point x="403" y="128"/>
			<point x="367" y="128" type="curve" smooth="yes"/>
			<point x="356" y="128"/>
			<point x="343" y="129"/>
			<point x="327" y="131" type="curve" smooth="yes"/>
			<point x="290" y="136"/>
			<point x="252" y="107"/>
			<point x="252" y="64" type="curve" smooth="yes"/>
			<point x="252" y="28"/>
			<point x="280" y="-1"/>
			<point x="315" y="-3" type="curve" smooth="yes"/>
			<point x="333" y="-4"/>
			<point x="355" y="-4"/>
			<point x="383" y="-4" type="curve" smooth="yes"/>
			<point x="486" y="-4"/>
			<point x="593" y="46"/>
			<point x="616" y="152" type="curve" smooth="yes"/>
			<point x="632" y="228"/>
			<point x="618" y="257"/>
			<point x="578" y="312" type="curve" smooth="yes"/>
			<point x="552" y="347"/>
			<point x="543" y="371"/>
			<point x="548" y="398" type="curve" smooth="yes"/>
			<point x="552" y="416"/>
			<point x="560" y="431"/>
			<point x="574" y="445" type="curve" smooth="yes"/>
			<point x="603" y="474"/>
			<point x="635" y="486"/>
			<point x="653" y="526" type="curve" smooth="yes"/>
			<point x="657" y="536"/>
			<point x="661" y="547"/>
			<point x="664" y="560" type="curve" smooth="yes"/>
			<point x="688" y="675"/>
			<point x="608" y="754"/>
		</contour>
	</outline>
</glyph>
<glyph name="agrave" format="2">
	<advance width="587"/>
	<unicode hex="00E0"/>
	<note>
		agrave
	</note>
	<outline>
		<contour>
			<point x="310" y="571"/>
			<point x="344" y="571" type="curve"/>
			<point x="374" y="575"/>
			<point x="398" y="602"/>
			<point x="398" y="634" type="curve" smooth="yes"/>
			<point x="398" y="665"/>
			<point x="374" y="692"/>
			<point x="344" y="696" type="curve"/>
			<point x="310" y="696"/>
			<point x="281" y="668"/>
			<point x="281" y="633" type="curve" smooth="yes"/>
			<point x="281" y="599"/>
		</contour>
		<contour>
			<point x="315" y="78" type="line"/>
			<point x="316" y="29"/>
			<point x="356" y="-9"/>
			<point x="405" y="-9" type="curve" smooth="yes"/>
			<point x="451" y="-9"/>
			<point x="488" y="24"/>
			<point x="494" y="69" type="curve" smooth="yes"/>
			<point x="497" y="94"/>
			<point x="501" y="114"/>
			<point x="505" y="135" type="curve" smooth="yes"/>
			<point x="537" y="285" type="line" smooth="yes"/>
			<point x="544" y="318"/>
			<point x="550" y="349"/>
			<point x="554" y="376" type="curve" smooth="yes"/>
			<point x="566" y="473"/>
			<point x="524" y="548"/>
			<point x="355" y="548" type="curve" smooth="yes"/>
			<point x="271" y="548"/>
			<point x="191" y="521"/>
			<point x="136" y="468" type="curve" smooth="yes"/>
			<point x="122" y="454"/>
			<point x="113" y="436"/>
			<point x="113" y="414" type="curve" smooth="yes"/>
			<point x="113" y="373"/>
			<point x="146" y="340"/>
			<point x="187" y="340" type="curve" smooth="yes"/>
			<point x="215" y="340"/>
			<point x="238" y="357"/>
			<point x="250" y="381" type="curve" smooth="yes"/>
			<point x="266" y="411"/>
			<point x="290" y="426"/>
			<point x="321" y="426" type="curve" smooth="yes"/>
			<point x="360" y="426"/>
			<point x="377" y="402"/>
			<point x="374" y="375" type="curve" smooth="yes"/>
			<point x="373" y="358"/>
			<point x="370" y="347"/>
			<point x="368" y="336" type="curve" smooth="yes"/>
			<point x="366" y="328" type="line"/>
			<point x="332" y="328" type="line" smooth="yes"/>
			<point x="151" y="328"/>
			<point x="29" y="258"/>
			<point x="4" y="144" type="curve" smooth="yes"/>
			<point x="-18" y="41"/>
			<point x="54" y="-14"/>
			<point x="142" y="-14" type="curve" smooth="yes"/>
			<point x="170" y="-14"/>
			<point x="196" y="-10"/>
			<point x="222" y="-3" type="curve" smooth="yes"/>
			<point x="267" y="11"/>
			<point x="290" y="36"/>
			<point x="314" y="76" type="curve" smooth="yes"/>
		</contour>
		<contour>
			<point x="242" y="108" type="curve" smooth="yes"/>
			<point x="206" y="108"/>
			<point x="184" y="126"/>
			<point x="191" y="158" type="curve" smooth="yes"/>
			<point x="203" y="211"/>
			<point x="265" y="232"/>
			<point x="345" y="226" type="curve"/>
			<point x="337" y="191" type="line" smooth="yes"/>
			<point x="325" y="135"/>
			<point x="278" y="108"/>
		</contour>
	</outline>
</glyph>
<glyph name="atilde" format="2">
	<advance width="587"/>
	<unicode hex="00E3"/>
	<note>
		atilde
	</note>
	<outline>
		<contour>
			<point x="312" y="605" type="curve" smooth="yes"/>
			<point x="320" y="605"/>
			<point x="332" y="600"/>
			<point x="354" y="590" type="curve" smooth="yes"/>
			<point x="388" y="574"/>
			<point x="403" y="571"/>
			<point x="432" y="571" type="curve" smooth="yes"/>
			<point x="479" y="571"/>
			<point x="512" y="595"/>
			<point x="534" y="652" type="curve" smooth="yes"/>
			<point x="536" y="657"/>
			<point x="537" y="662"/>
			<point x="537" y="668" type="curve" smooth="yes"/>
			<point x="537" y="694"/>
			<point x="516" y="714"/>
			<point x="491" y="714" type="curve" smooth="yes"/>
			<point x="472" y="714"/>
			<point x="455" y="702"/>
			<point x="448" y="686" type="curve" smooth="yes"/>
			<point x="444" y="677"/>
			<point x="440" y="674"/>
			<point x="433" y="674" type="curve" smooth="yes"/>
			<point x="425" y="674"/>
			<point x="413" y="678"/>
			<point x="391" y="689" type="curve" smooth="yes"/>
			<point x="359" y="705"/>
			<point x="342" y="708"/>
			<point x="313" y="708" type="curve" smooth="yes"/>
			<point x="265" y="708"/>
			<point x="233" y="684"/>
			<point x="211" y="627" type="curve" smooth="yes"/>
			<point x="209" y="622"/>
			<point x="208" y="616"/>
			<point x="208" y="611" type="curve" smooth="yes"/>
			<point x="208" y="585"/>
			<point x="229" y="565"/>
			<point x="254" y="565" type="curve" smooth="yes"/>
			<point x="273" y="565"/>
			<point x="290" y="577"/>
			<point x="297" y="593" type="curve" smooth="yes"/>
			<point x="301" y="602"/>
			<point x="306" y="605"/>
		</contour>
		<contour>
			<point x="315" y="78" type="line"/>
			<point x="316" y="29"/>
			<point x="356" y="-9"/>
			<point x="405" y="-9" type="curve" smooth="yes"/>
			<point x="451" y="-9"/>
			<point x="488" y="24"/>
			<point x="494" y="69" type="curve" smooth="yes"/>
			<point x="497" y="94"/>
			<point x="501" y="114"/>
			<point x="505" y="135" type="curve" smooth="yes"/>
			<point x="537" y="285" type="line" smooth="yes"/>
			<point x="544" y="318"/>
			<point x="550" y="349"/>
			<point x="554" y="376" type="curve" smooth="yes"/>
			<point x="566" y="473"/>
			<point x="524" y="548"/>
			<point x="355" y="548" type="curve" smooth="yes"/>
			<point x="271" y="548"/>
			<point x="191" y="521"/>
			<point x="136" y="468" type="curve" smooth="yes"/>
			<point x="122" y="454"/>
			<point x="113" y="436"/>
			<point x="113" y="414" type="curve" smooth="yes"/>
			<point x="113" y="373"/>
			<point x="146" y="340"/>
			<point x="187" y="340" type="curve" smooth="yes"/>
			<point x="215" y="340"/>
			<point x="238" y="357"/>
			<point x="250" y="381" type="curve" smooth="yes"/>
			<point x="266" y="411"/>
			<point x="290" y="426"/>
			<point x="321" y="426" type="curve" smooth="yes"/>
			<point x="360" y="426"/>
			<point x="377" y="402"/>
			<point x="374" y="375" type="curve" smooth="yes"/>
			<point x="373" y="358"/>
			<point x="370" y="347"/>
			<point x="368" y="336" type="curve" smooth="yes"/>
			<point x="366" y="328" type="line"/>
			<point x="332" y="328" type="line" smooth="yes"/>
			<point x="151" y="328"/>
			<point x="29" y="258"/>
			<point x="4" y="144" type="curve" smooth="yes"/>
			<point x="-18" y="41"/>
			<point x="54" y="-14"/>
			<point x="142" y="-14" type="curve" smooth="yes"/>
			<point x="170" y="-14"/>
			<point x="196" y="-10"/>
			<point x="222" y="-3" type="curve" smooth="yes"/>
			<point x="267" y="11"/>
			<point x="290" y="36"/>
			<point x="314" y="76" type="curve" smooth="yes"/>
		</contour>
		<contour>
			<point x="242" y="108" type="curve" smooth="yes"/>
			<point x="206" y="108"/>
			<point x="184" y="126"/>
			<point x="191" y="158" type="curve" smooth="yes"/>
			<point x="203" y="211"/>
			<point x="265" y="232"/>
			<point x="345" y="226" type="curve"/>
			<point x="337" y="191" type="line" smooth="yes"/>
			<point x="325" y="135"/>
			<point x="278" y="108"/>
		</contour>
	</outline>
</glyph>
<glyph name="ae" format="2">
	<advance width="974"/>
	<unicode hex="00E6"/>
	<note>
		ae
	</note>
	<outline>
		<contour>
			<point x="952" y="274" type="curve" smooth="yes"/>
			<point x="981" y="412"/>
			<point x="920" y="548"/>
			<point x="752" y="548" type="curve" smooth="yes"/>
			<point x="665" y="548"/>
			<point x="584" y="517"/>
			<point x="526" y="455" type="curve"/>
			<point x="509" y="514"/>
			<point x="452" y="548"/>
			<point x="355" y="548" type="curve" smooth="yes"/>
			<point x="272" y="548"/>
			<point x="192" y="521"/>
			<point x="136" y="469" type="curve" smooth="yes"/>
			<point x="122" y="455"/>
			<point x="113" y="436"/>
			<point x="113" y="414" type="curve" smooth="yes"/>
			<point x="113" y="373"/>
			<point x="146" y="339"/>
			<point x="187" y="339" type="curve" smooth="yes"/>
			<point x="215" y="339"/>
			<point x="237" y="355"/>
			<point x="250" y="378" type="curve" smooth="yes"/>
			<point x="268" y="410"/>
			<point x="299" y="426"/>
			<point x="331" y="426" type="curve" smooth="yes"/>
			<point x="385" y="426"/>
			<point x="405" y="397"/>
			<point x="393" y="338" type="curve"/>
			<point x="391" y="332" type="line"/>
			<point x="333" y="332" type="line" smooth="yes"/>
			<point x="162" y="332"/>
			<point x="31" y="271"/>
			<point x="5" y="149" type="curve" smooth="yes"/>
			<point x="-18" y="41"/>
			<point x="54" y="-14"/>
			<point x="182" y="-14" type="curve" smooth="yes"/>
			<point x="212" y="-14"/>
			<point x="246" y="-9"/>
			<point x="277" y="0" type="curve" smooth="yes"/>
			<point x="318" y="12"/>
			<point x="342" y="32"/>
			<point x="374" y="62" type="curve" smooth="yes"/>
			<point x="414" y="100" type="line"/>
			<point x="445" y="23"/>
			<point x="515" y="-14"/>
			<point x="613" y="-14" type="curve" smooth="yes"/>
			<point x="698" y="-14"/>
			<point x="774" y="12"/>
			<point x="833" y="63" type="curve" smooth="yes"/>
			<point x="848" y="76"/>
			<point x="857" y="95"/>
			<point x="857" y="116" type="curve" smooth="yes"/>
			<point x="857" y="155"/>
			<point x="826" y="186"/>
			<point x="787" y="186" type="curve" smooth="yes"/>
			<point x="763" y="186"/>
			<point x="742" y="172"/>
			<point x="730" y="153" type="curve" smooth="yes"/>
			<point x="711" y="123"/>
			<point x="680" y="108"/>
			<point x="641" y="108" type="curve" smooth="yes"/>
			<point x="590" y="108"/>
			<point x="556" y="133"/>
			<point x="566" y="222" type="curve"/>
			<point x="854" y="222" type="line" smooth="yes"/>
			<point x="910" y="222"/>
			<point x="952" y="274"/>
		</contour>
		<contour>
			<point x="776" y="332" type="curve"/>
			<point x="595" y="332" type="line"/>
			<point x="622" y="397"/>
			<point x="661" y="426"/>
			<point x="707" y="426" type="curve" smooth="yes"/>
			<point x="756" y="426"/>
			<point x="780" y="394"/>
		</contour>
		<contour>
			<point x="369" y="222" type="curve"/>
			<point x="367" y="214" type="line" smooth="yes"/>
			<point x="353" y="146"/>
			<point x="308" y="108"/>
			<point x="253" y="108" type="curve" smooth="yes"/>
			<point x="206" y="108"/>
			<point x="184" y="126"/>
			<point x="192" y="163" type="curve" smooth="yes"/>
			<point x="202" y="210"/>
			<point x="256" y="228"/>
		</contour>
	</outline>
</glyph>
<glyph name="ccedilla" format="2">
	<advance width="587"/>
	<unicode hex="00E7"/>
	<note>
		ccedilla
	</note>
	<outline>
		<contour>
			<point x="370" y="191"/>
			<point x="357" y="168" type="curve" smooth="yes"/>
			<point x="334" y="127"/>
			<point x="302" y="108"/>
			<point x="270" y="108" type="curve" smooth="yes"/>
			<point x="209" y="108"/>
			<point x="185" y="158"/>
			<point x="209" y="272" type="curve" smooth="yes"/>
			<point x="231" y="375"/>
			<point x="275" y="426"/>
			<point x="335" y="426" type="curve" smooth="yes"/>
			<point x="366" y="426"/>
			<point x="389" y="414"/>
			<point x="399" y="381" type="curve" smooth="yes"/>
			<point x="409" y="345"/>
			<point x="443" y="319"/>
			<point x="482" y="319" type="curve" smooth="yes"/>
			<point x="530" y="319"/>
			<point x="569" y="358"/>
			<point x="569" y="406" type="curve" smooth="yes"/>
			<point x="569" y="418"/>
			<point x="568" y="432"/>
			<point x="563" y="443" type="curve" smooth="yes"/>
			<point x="534" y="507"/>
			<point x="467" y="548"/>
			<point x="365" y="548" type="curve" smooth="yes"/>
			<point x="208" y="548"/>
			<point x="62" y="445"/>
			<point x="23" y="261" type="curve" smooth="yes"/>
			<point x="-10" y="106"/>
			<point x="60" y="11"/>
			<point x="182" y="-10" type="curve"/>
			<point x="155" y="-49" type="line" smooth="yes"/>
			<point x="139" y="-72"/>
			<point x="218" y="-114"/>
			<point x="218" y="-114" type="curve" smooth="yes"/>
			<point x="215" y="-132"/>
			<point x="196" y="-141"/>
			<point x="153" y="-141" type="curve" smooth="yes"/>
			<point x="146" y="-141"/>
			<point x="136" y="-141"/>
			<point x="125" y="-139" type="curve" smooth="yes"/>
			<point x="106" y="-137"/>
			<point x="94" y="-146"/>
			<point x="89" y="-169" type="curve" smooth="yes"/>
			<point x="84" y="-192"/>
			<point x="137" y="-210"/>
			<point x="137" y="-210" type="curve" smooth="yes"/>
			<point x="229" y="-210"/>
			<point x="311" y="-188"/>
			<point x="325" y="-119" type="curve" smooth="yes"/>
			<point x="335" y="-74"/>
			<point x="308" y="-49"/>
			<point x="247" y="-42" type="curve"/>
			<point x="267" y="-13" type="line"/>
			<point x="348" y="-6"/>
			<point x="421" y="24"/>
			<point x="475" y="79" type="curve" smooth="yes"/>
			<point x="488" y="93"/>
			<point x="496" y="111"/>
			<point x="496" y="132" type="curve" smooth="yes"/>
			<point x="496" y="173"/>
			<point x="463" y="207"/>
			<point x="421" y="207" type="curve" smooth="yes"/>
			<point x="393" y="207"/>
		</contour>
	</outline>
</glyph>
<glyph name="egrave" format="2">
	<advance width="601"/>
	<unicode hex="00E8"/>
	<note>
		egrave
	</note>
	<outline>
		<contour>
			<point x="319" y="571"/>
			<point x="353" y="571" type="curve"/>
			<point x="383" y="575"/>
			<point x="407" y="602"/>
			<point x="407" y="634" type="curve" smooth="yes"/>
			<point x="407" y="665"/>
			<point x="383" y="692"/>
			<point x="353" y="696" type="curve"/>
			<point x="319" y="696"/>
			<point x="290" y="668"/>
			<point x="290" y="633" type="curve" smooth="yes"/>
			<point x="290" y="599"/>
		</contour>
		<contour>
			<point x="579" y="274" type="curve" smooth="yes"/>
			<point x="608" y="412"/>
			<point x="547" y="548"/>
			<point x="369" y="548" type="curve" smooth="yes"/>
			<point x="191" y="548"/>
			<point x="57" y="421"/>
			<point x="24" y="265" type="curve" smooth="yes"/>
			<point x="-16" y="77"/>
			<point x="87" y="-14"/>
			<point x="240" y="-14" type="curve" smooth="yes"/>
			<point x="325" y="-14"/>
			<point x="401" y="12"/>
			<point x="460" y="63" type="curve" smooth="yes"/>
			<point x="475" y="76"/>
			<point x="484" y="95"/>
			<point x="484" y="116" type="curve" smooth="yes"/>
			<point x="484" y="155"/>
			<point x="453" y="186"/>
			<point x="414" y="186" type="curve" smooth="yes"/>
			<point x="390" y="186"/>
			<point x="369" y="172"/>
			<point x="357" y="153" type="curve" smooth="yes"/>
			<point x="338" y="123"/>
			<point x="307" y="108"/>
			<point x="268" y="108" type="curve" smooth="yes"/>
			<point x="217" y="108"/>
			<point x="183" y="133"/>
			<point x="193" y="222" type="curve"/>
			<point x="481" y="222" type="line" smooth="yes"/>
			<point x="537" y="222"/>
			<point x="579" y="274"/>
		</contour>
		<contour>
			<point x="334" y="426" type="curve" smooth="yes"/>
			<point x="382" y="426"/>
			<point x="407" y="395"/>
			<point x="403" y="332" type="curve"/>
			<point x="222" y="332" type="line"/>
			<point x="248" y="398"/>
			<point x="287" y="426"/>
		</contour>
	</outline>
</glyph>
<glyph name="eacute" format="2">
	<advance width="601"/>
	<unicode hex="00E9"/>
	<note>
		eacute
	</note>
	<outline>
		<contour>
			<point x="385" y="562"/>
			<point x="386" y="563" type="curve" smooth="yes"/>
			<point x="474" y="637"/>
			<point x="468" y="704"/>
			<point x="468" y="704" type="curve" smooth="yes"/>
			<point x="430" y="698"/>
			<point x="396" y="677"/>
			<point x="374" y="649" type="curve" smooth="yes"/>
			<point x="348" y="614"/>
			<point x="385" y="562"/>
			<point x="385" y="562" type="curve"/>
			<point x="385" y="562"/>
		</contour>
		<contour>
			<point x="579" y="274" type="curve" smooth="yes"/>
			<point x="608" y="412"/>
			<point x="547" y="548"/>
			<point x="369" y="548" type="curve" smooth="yes"/>
			<point x="191" y="548"/>
			<point x="57" y="421"/>
			<point x="24" y="265" type="curve" smooth="yes"/>
			<point x="-16" y="77"/>
			<point x="87" y="-14"/>
			<point x="240" y="-14" type="curve" smooth="yes"/>
			<point x="325" y="-14"/>
			<point x="401" y="12"/>
			<point x="460" y="63" type="curve" smooth="yes"/>
			<point x="475" y="76"/>
			<point x="484" y="95"/>
			<point x="484" y="116" type="curve" smooth="yes"/>
			<point x="484" y="155"/>
			<point x="453" y="186"/>
			<point x="414" y="186" type="curve" smooth="yes"/>
			<point x="390" y="186"/>
			<point x="369" y="172"/>
			<point x="357" y="153" type="curve" smooth="yes"/>
			<point x="338" y="123"/>
			<point x="307" y="108"/>
			<point x="268" y="108" type="curve" smooth="yes"/>
			<point x="217" y="108"/>
			<point x="183" y="133"/>
			<point x="193" y="222" type="curve"/>
			<point x="481" y="222" type="line" smooth="yes"/>
			<point x="537" y="222"/>
			<point x="579" y="274"/>
		</contour>
		<contour>
			<point x="334" y="426" type="curve" smooth="yes"/>
			<point x="382" y="426"/>
			<point x="407" y="395"/>
			<point x="403" y="332" type="curve"/>
			<point x="222" y="332" type="line"/>
			<point x="248" y="398"/>
			<point x="287" y="426"/>
		</contour>
	</outline>
</glyph>
<glyph name="ecircumflex" format="2">
	<advance width="601"/>
	<unicode hex="00EA"/>
	<note>
		ecircumflex
	</note>
	<outline>
		<contour>
			<point x="334" y="569"/>
			<point x="341" y="581" type="curve" smooth="yes"/>
			<point x="382" y="647" type="line"/>
			<point x="391" y="609" type="line" smooth="yes"/>
			<point x="397" y="584"/>
			<point x="411" y="571"/>
			<point x="431" y="571" type="curve" smooth="yes"/>
			<point x="465" y="571"/>
			<point x="493" y="599"/>
			<point x="493" y="634" type="curve" smooth="yes"/>
			<point x="493" y="668"/>
			<point x="465" y="696"/>
			<point x="431" y="696" type="curve" smooth="yes"/>
			<point x="355" y="696" type="line" smooth="yes"/>
			<point x="308" y="696"/>
			<point x="267" y="659"/>
			<point x="264" y="612" type="curve" smooth="yes"/>
			<point x="264" y="604" type="line" smooth="yes"/>
			<point x="264" y="581"/>
			<point x="282" y="562"/>
			<point x="305" y="562" type="curve" smooth="yes"/>
			<point x="320" y="562"/>
		</contour>
		<contour>
			<point x="579" y="274" type="curve" smooth="yes"/>
			<point x="608" y="412"/>
			<point x="547" y="548"/>
			<point x="369" y="548" type="curve" smooth="yes"/>
			<point x="191" y="548"/>
			<point x="57" y="421"/>
			<point x="24" y="265" type="curve" smooth="yes"/>
			<point x="-16" y="77"/>
			<point x="87" y="-14"/>
			<point x="240" y="-14" type="curve" smooth="yes"/>
			<point x="325" y="-14"/>
			<point x="401" y="12"/>
			<point x="460" y="63" type="curve" smooth="yes"/>
			<point x="475" y="76"/>
			<point x="484" y="95"/>
			<point x="484" y="116" type="curve" smooth="yes"/>
			<point x="484" y="155"/>
			<point x="453" y="186"/>
			<point x="414" y="186" type="curve" smooth="yes"/>
			<point x="390" y="186"/>
			<point x="369" y="172"/>
			<point x="357" y="153" type="curve" smooth="yes"/>
			<point x="338" y="123"/>
			<point x="307" y="108"/>
			<point x="268" y="108" type="curve" smooth="yes"/>
			<point x="217" y="108"/>
			<point x="183" y="133"/>
			<point x="193" y="222" type="curve"/>
			<point x="481" y="222" type="line" smooth="yes"/>
			<point x="537" y="222"/>
			<point x="579" y="274"/>
		</contour>
		<contour>
			<point x="334" y="426" type="curve" smooth="yes"/>
			<point x="382" y="426"/>
			<point x="407" y="395"/>
			<point x="403" y="332" type="curve"/>
			<point x="222" y="332" type="line"/>
			<point x="248" y="398"/>
			<point x="287" y="426"/>
		</contour>
	</outline>
</glyph>
<glyph name="edieresis" format="2">
	<advance width="601"/>
	<unicode hex="00EB"/>
	<note>
		edieresis
	</note>
	<outline>
		<contour>
			<point x="579" y="274" type="curve" smooth="yes"/>
			<point x="608" y="412"/>
			<point x="547" y="548"/>
			<point x="369" y="548" type="curve" smooth="yes"/>
			<point x="191" y="548"/>
			<point x="57" y="421"/>
			<point x="24" y="265" type="curve" smooth="yes"/>
			<point x="-16" y="77"/>
			<point x="87" y="-14"/>
			<point x="240" y="-14" type="curve" smooth="yes"/>
			<point x="325" y="-14"/>
			<point x="401" y="12"/>
			<point x="460" y="63" type="curve" smooth="yes"/>
			<point x="475" y="76"/>
			<point x="484" y="95"/>
			<point x="484" y="116" type="curve" smooth="yes"/>
			<point x="484" y="155"/>
			<point x="453" y="186"/>
			<point x="414" y="186" type="curve" smooth="yes"/>
			<point x="390" y="186"/>
			<point x="369" y="172"/>
			<point x="357" y="153" type="curve" smooth="yes"/>
			<point x="338" y="123"/>
			<point x="307" y="108"/>
			<point x="268" y="108" type="curve" smooth="yes"/>
			<point x="217" y="108"/>
			<point x="183" y="133"/>
			<point x="193" y="222" type="curve"/>
			<point x="481" y="222" type="line" smooth="yes"/>
			<point x="537" y="222"/>
			<point x="579" y="274"/>
		</contour>
		<contour>
			<point x="334" y="426" type="curve" smooth="yes"/>
			<point x="382" y="426"/>
			<point x="407" y="395"/>
			<point x="403" y="332" type="curve"/>
			<point x="222" y="332" type="line"/>
			<point x="248" y="398"/>
			<point x="287" y="426"/>
		</contour>
		<contour>
			<point x="233" y="567"/>
			<point x="273" y="567" type="curve" smooth="yes"/>
			<point x="319" y="567"/>
			<point x="347" y="588"/>
			<point x="356" y="633" type="curve" smooth="yes"/>
			<point x="365" y="678"/>
			<point x="331" y="723"/>
			<point x="283" y="723" type="curve" smooth="yes"/>
			<point x="271" y="723"/>
			<point x="260" y="720"/>
			<point x="250" y="715" type="curve" smooth="yes"/>
			<point x="221" y="700"/>
			<point x="200" y="673"/>
			<point x="200" y="641" type="curve" smooth="yes"/>
			<point x="200" y="600"/>
		</contour>
		<contour>
			<point x="434" y="567"/>
			<point x="474" y="567" type="curve" smooth="yes"/>
			<point x="520" y="567"/>
			<point x="548" y="588"/>
			<point x="557" y="633" type="curve" smooth="yes"/>
			<point x="566" y="678"/>
			<point x="532" y="723"/>
			<point x="484" y="723" type="curve" smooth="yes"/>
			<point x="472" y="723"/>
			<point x="460" y="719"/>
			<point x="450" y="714" type="curve" smooth="yes"/>
			<point x="422" y="700"/>
			<point x="401" y="673"/>
			<point x="401" y="640" type="curve" smooth="yes"/>
			<point x="401" y="600"/>
		</contour>
	</outline>
</glyph>
<glyph name="igrave" format="2">
	<advance width="288"/>
	<unicode hex="00EC"/>
	<note>
		igrave
	</note>
	<outline>
		<contour>
			<point x="254" y="607"/>
			<point x="254" y="616"/>
			<point x="222" y="696"/>
			<point x="178" y="704"/>
			<point x="151" y="669" type="curve" smooth="yes"/>
			<point x="142" y="658"/>
			<point x="137" y="645"/>
			<point x="137" y="630" type="curve" smooth="yes"/>
			<point x="137" y="599"/>
			<point x="159" y="572"/>
			<point x="188" y="565" type="curve" smooth="yes"/>
			<point x="195" y="564"/>
			<point x="202" y="562"/>
			<point x="209" y="562" type="curve" smooth="yes"/>
			<point x="234" y="562"/>
			<point x="254" y="582"/>
			<point x="254" y="607" type="curve" smooth="yes"/>
			<point x="254" y="607"/>
		</contour>
		<contour>
			<point x="183" y="22"/>
			<point x="191" y="61" type="curve" smooth="yes"/>
			<point x="270" y="437" type="line" smooth="yes"/>
			<point x="271" y="442"/>
			<point x="272" y="449"/>
			<point x="272" y="455" type="curve" smooth="yes"/>
			<point x="272" y="504"/>
			<point x="233" y="543"/>
			<point x="184" y="543" type="curve" smooth="yes"/>
			<point x="142" y="543"/>
			<point x="106" y="513"/>
			<point x="98" y="473" type="curve" smooth="yes"/>
			<point x="19" y="97" type="line" smooth="yes"/>
			<point x="18" y="92"/>
			<point x="17" y="85"/>
			<point x="17" y="79" type="curve" smooth="yes"/>
			<point x="17" y="30"/>
			<point x="56" y="-9"/>
			<point x="105" y="-9" type="curve" smooth="yes"/>
			<point x="147" y="-9"/>
		</contour>
	</outline>
</glyph>
<glyph name="iacute" format="2">
	<advance width="288"/>
	<unicode hex="00ED"/>
	<note>
		iacute
	</note>
	<outline>
		<contour>
			<point x="227" y="562"/>
			<point x="228" y="563" type="curve" smooth="yes"/>
			<point x="316" y="637"/>
			<point x="310" y="704"/>
			<point x="310" y="704" type="curve" smooth="yes"/>
			<point x="272" y="698"/>
			<point x="238" y="677"/>
			<point x="216" y="649" type="curve" smooth="yes"/>
			<point x="190" y="614"/>
			<point x="227" y="562"/>
			<point x="227" y="562" type="curve"/>
			<point x="227" y="562"/>
		</contour>
		<contour>
			<point x="183" y="22"/>
			<point x="191" y="61" type="curve" smooth="yes"/>
			<point x="270" y="437" type="line" smooth="yes"/>
			<point x="271" y="442"/>
			<point x="272" y="449"/>
			<point x="272" y="455" type="curve" smooth="yes"/>
			<point x="272" y="504"/>
			<point x="233" y="543"/>
			<point x="184" y="543" type="curve" smooth="yes"/>
			<point x="142" y="543"/>
			<point x="106" y="513"/>
			<point x="98" y="473" type="curve" smooth="yes"/>
			<point x="19" y="97" type="line" smooth="yes"/>
			<point x="18" y="92"/>
			<point x="17" y="85"/>
			<point x="17" y="79" type="curve" smooth="yes"/>
			<point x="17" y="30"/>
			<point x="56" y="-9"/>
			<point x="105" y="-9" type="curve" smooth="yes"/>
			<point x="147" y="-9"/>
		</contour>
	</outline>
</glyph>
<glyph name="idieresis" format="2">
	<advance width="288"/>
	<unicode hex="00EF"/>
	<note>
		idieresis
	</note>
	<outline>
		<contour>
			<point x="183" y="22"/>
			<point x="191" y="61" type="curve" smooth="yes"/>
			<point x="270" y="437" type="line" smooth="yes"/>
			<point x="271" y="442"/>
			<point x="272" y="449"/>
			<point x="272" y="455" type="curve" smooth="yes"/>
			<point x="272" y="504"/>
			<point x="233" y="543"/>
			<point x="184" y="543" type="curve" smooth="yes"/>
			<point x="142" y="543"/>
			<point x="106" y="513"/>
			<point x="98" y="473" type="curve" smooth="yes"/>
			<point x="19" y="97" type="line" smooth="yes"/>
			<point x="18" y="92"/>
			<point x="17" y="85"/>
			<point x="17" y="79" type="curve" smooth="yes"/>
			<point x="17" y="30"/>
			<point x="56" y="-9"/>
			<point x="105" y="-9" type="curve" smooth="yes"/>
			<point x="147" y="-9"/>
		</contour>
		<contour>
			<point x="77" y="569"/>
			<point x="117" y="569" type="curve" smooth="yes"/>
			<point x="163" y="569"/>
			<point x="191" y="590"/>
			<point x="200" y="635" type="curve" smooth="yes"/>
			<point x="209" y="680"/>
			<point x="175" y="725"/>
			<point x="127" y="725" type="curve" smooth="yes"/>
			<point x="115" y="725"/>
			<point x="103" y="721"/>
			<point x="93" y="716" type="curve" smooth="yes"/>
			<point x="65" y="702"/>
			<point x="44" y="675"/>
			<point x="44" y="642" type="curve" smooth="yes"/>
			<point x="44" y="602"/>
		</contour>
		<contour>
			<point x="278" y="569"/>
			<point x="318" y="569" type="curve" smooth="yes"/>
			<point x="364" y="569"/>
			<point x="392" y="590"/>
			<point x="401" y="635" type="curve" smooth="yes"/>
			<point x="410" y="680"/>
			<point x="376" y="725"/>
			<point x="328" y="725" type="curve" smooth="yes"/>
			<point x="316" y="725"/>
			<point x="305" y="722"/>
			<point x="295" y="717" type="curve" smooth="yes"/>
			<point x="266" y="702"/>
			<point x="245" y="675"/>
			<point x="245" y="643" type="curve" smooth="yes"/>
			<point x="245" y="602"/>
		</contour>
	</outline>
</glyph>
<glyph name="ocircumflex" format="2">
	<advance width="622"/>
	<unicode hex="00F4"/>
	<note>
		ocircumflex
	</note>
	<outline>
		<contour>
			<point x="343" y="569"/>
			<point x="350" y="581" type="curve" smooth="yes"/>
			<point x="391" y="647" type="line"/>
			<point x="400" y="609" type="line" smooth="yes"/>
			<point x="406" y="584"/>
			<point x="420" y="571"/>
			<point x="440" y="571" type="curve" smooth="yes"/>
			<point x="474" y="571"/>
			<point x="502" y="599"/>
			<point x="502" y="634" type="curve" smooth="yes"/>
			<point x="502" y="668"/>
			<point x="474" y="696"/>
			<point x="440" y="696" type="curve" smooth="yes"/>
			<point x="364" y="696" type="line" smooth="yes"/>
			<point x="317" y="696"/>
			<point x="276" y="659"/>
			<point x="273" y="612" type="curve" smooth="yes"/>
			<point x="273" y="604" type="line" smooth="yes"/>
			<point x="273" y="581"/>
			<point x="291" y="562"/>
			<point x="314" y="562" type="curve" smooth="yes"/>
			<point x="329" y="562"/>
		</contour>
		<contour>
			<point x="371" y="548" type="curve" smooth="yes"/>
			<point x="196" y="548"/>
			<point x="61" y="439"/>
			<point x="24" y="267" type="curve" smooth="yes"/>
			<point x="-12" y="96"/>
			<point x="77" y="-14"/>
			<point x="252" y="-14" type="curve" smooth="yes"/>
			<point x="427" y="-14"/>
			<point x="562" y="96"/>
			<point x="598" y="267" type="curve" smooth="yes"/>
			<point x="635" y="439"/>
			<point x="546" y="548"/>
		</contour>
		<contour>
			<point x="278" y="108" type="curve" smooth="yes"/>
			<point x="214" y="108"/>
			<point x="186" y="161"/>
			<point x="208" y="267" type="curve" smooth="yes"/>
			<point x="231" y="374"/>
			<point x="281" y="426"/>
			<point x="345" y="426" type="curve" smooth="yes"/>
			<point x="409" y="426"/>
			<point x="437" y="374"/>
			<point x="414" y="267" type="curve" smooth="yes"/>
			<point x="392" y="161"/>
			<point x="342" y="108"/>
		</contour>
	</outline>
</glyph>
<glyph name="ugrave" format="2">
	<advance width="640"/>
	<unicode hex="00F9"/>
	<note>
		ugrave
	</note>
	<outline>
		<contour>
			<point x="332" y="571"/>
			<point x="366" y="571" type="curve"/>
			<point x="396" y="575"/>
			<point x="420" y="602"/>
			<point x="420" y="634" type="curve" smooth="yes"/>
			<point x="420" y="665"/>
			<point x="396" y="692"/>
			<point x="366" y="696" type="curve"/>
			<point x="332" y="696"/>
			<point x="303" y="668"/>
			<point x="303" y="633" type="curve" smooth="yes"/>
			<point x="303" y="599"/>
		</contour>
		<contour>
			<point x="543" y="61" type="curve" smooth="yes"/>
			<point x="622" y="437" type="line" smooth="yes"/>
			<point x="623" y="442"/>
			<point x="624" y="449"/>
			<point x="624" y="455" type="curve" smooth="yes"/>
			<point x="624" y="504"/>
			<point x="585" y="543"/>
			<point x="536" y="543" type="curve" smooth="yes"/>
			<point x="494" y="543"/>
			<point x="458" y="512"/>
			<point x="450" y="473" type="curve" smooth="yes"/>
			<point x="399" y="232" type="line" smooth="yes"/>
			<point x="384" y="161"/>
			<point x="339" y="108"/>
			<point x="282" y="108" type="curve" smooth="yes"/>
			<point x="225" y="108"/>
			<point x="207" y="138"/>
			<point x="212" y="189" type="curve" smooth="yes"/>
			<point x="215" y="216"/>
			<point x="220" y="245"/>
			<point x="223" y="262" type="curve" smooth="yes"/>
			<point x="260" y="437" type="line" smooth="yes"/>
			<point x="261" y="443"/>
			<point x="262" y="449"/>
			<point x="262" y="455" type="curve" smooth="yes"/>
			<point x="262" y="504"/>
			<point x="223" y="543"/>
			<point x="174" y="543" type="curve" smooth="yes"/>
			<point x="132" y="543"/>
			<point x="96" y="512"/>
			<point x="88" y="473" type="curve" smooth="yes"/>
			<point x="35" y="222" type="line" smooth="yes"/>
			<point x="26" y="179"/>
			<point x="20" y="148"/>
			<point x="18" y="121" type="curve" smooth="yes"/>
			<point x="15" y="48"/>
			<point x="69" y="-14"/>
			<point x="179" y="-14" type="curve" smooth="yes"/>
			<point x="205" y="-14"/>
			<point x="228" y="-11"/>
			<point x="249" y="-5" type="curve" smooth="yes"/>
			<point x="292" y="6"/>
			<point x="316" y="28"/>
			<point x="345" y="62" type="curve" smooth="yes"/>
			<point x="369" y="90" type="line"/>
			<point x="363" y="40"/>
			<point x="401" y="-9"/>
			<point x="457" y="-9" type="curve" smooth="yes"/>
			<point x="499" y="-9"/>
			<point x="535" y="21"/>
		</contour>
	</outline>
</glyph>
<glyph name="ucircumflex" format="2">
	<advance width="640"/>
	<unicode hex="00FB"/>
	<note>
		ucircumflex
	</note>
	<outline>
		<contour>
			<point x="347" y="569"/>
			<point x="354" y="581" type="curve" smooth="yes"/>
			<point x="395" y="647" type="line"/>
			<point x="404" y="609" type="line" smooth="yes"/>
			<point x="410" y="584"/>
			<point x="424" y="571"/>
			<point x="444" y="571" type="curve" smooth="yes"/>
			<point x="478" y="571"/>
			<point x="506" y="599"/>
			<point x="506" y="634" type="curve" smooth="yes"/>
			<point x="506" y="668"/>
			<point x="478" y="696"/>
			<point x="444" y="696" type="curve" smooth="yes"/>
			<point x="368" y="696" type="line" smooth="yes"/>
			<point x="321" y="696"/>
			<point x="280" y="659"/>
			<point x="277" y="612" type="curve" smooth="yes"/>
			<point x="277" y="604" type="line" smooth="yes"/>
			<point x="277" y="581"/>
			<point x="295" y="562"/>
			<point x="318" y="562" type="curve" smooth="yes"/>
			<point x="333" y="562"/>
		</contour>
		<contour>
			<point x="543" y="61" type="curve" smooth="yes"/>
			<point x="622" y="437" type="line" smooth="yes"/>
			<point x="623" y="442"/>
			<point x="624" y="449"/>
			<point x="624" y="455" type="curve" smooth="yes"/>
			<point x="624" y="504"/>
			<point x="585" y="543"/>
			<point x="536" y="543" type="curve" smooth="yes"/>
			<point x="494" y="543"/>
			<point x="458" y="512"/>
			<point x="450" y="473" type="curve" smooth="yes"/>
			<point x="399" y="232" type="line" smooth="yes"/>
			<point x="384" y="161"/>
			<point x="339" y="108"/>
			<point x="282" y="108" type="curve" smooth="yes"/>
			<point x="225" y="108"/>
			<point x="207" y="138"/>
			<point x="212" y="189" type="curve" smooth="yes"/>
			<point x="215" y="216"/>
			<point x="220" y="245"/>
			<point x="223" y="262" type="curve" smooth="yes"/>
			<point x="260" y="437" type="line" smooth="yes"/>
			<point x="261" y="443"/>
			<point x="262" y="449"/>
			<point x="262" y="455" type="curve" smooth="yes"/>
			<point x="262" y="504"/>
			<point x="223" y="543"/>
			<point x="174" y="543" type="curve" smooth="yes"/>
			<point x="132" y="543"/>
			<point x="96" y="512"/>
			<point x="88" y="473" type="curve" smooth="yes"/>
			<point x="35" y="222" type="line" smooth="yes"/>
			<point x="26" y="179"/>
			<point x="20" y="148"/>
			<point x="18" y="121" type="curve" smooth="yes"/>
			<point x="15" y="48"/>
			<point x="69" y="-14"/>
			<point x="179" y="-14" type="curve" smooth="yes"/>
			<point x="205" y="-14"/>
			<point x="228" y="-11"/>
			<point x="249" y="-5" type="curve" smooth="yes"/>
			<point x="292" y="6"/>
			<point x="316" y="28"/>
			<point x="345" y="62" type="curve" smooth="yes"/>
			<point x="369" y="90" type="line"/>
			<point x="363" y="40"/>
			<point x="401" y="-9"/>
			<point x="457" y="-9" type="curve" smooth="yes"/>
			<point x="499" y="-9"/>
			<point x="535" y="21"/>
		</contour>
	</outline>
</glyph>
<glyph name="udieresis" format="2">
	<advance width="640"/>
	<unicode hex="00FC"/>
	<note>
		udieresis
	</note>
	<outline>
		<contour>
			<point x="543" y="61" type="curve" smooth="yes"/>
			<point x="622" y="437" type="line" smooth="yes"/>
			<point x="623" y="442"/>
			<point x="624" y="449"/>
			<point x="624" y="455" type="curve" smooth="yes"/>
			<point x="624" y="504"/>
			<point x="585" y="543"/>
			<point x="536" y="543" type="curve" smooth="yes"/>
			<point x="494" y="543"/>
			<point x="458" y="512"/>
			<point x="450" y="473" type="curve" smooth="yes"/>
			<point x="399" y="232" type="line" smooth="yes"/>
			<point x="384" y="161"/>
			<point x="339" y="108"/>
			<point x="282" y="108" type="curve" smooth="yes"/>
			<point x="225" y="108"/>
			<point x="207" y="138"/>
			<point x="212" y="189" type="curve" smooth="yes"/>
			<point x="215" y="216"/>
			<point x="220" y="245"/>
			<point x="223" y="262" type="curve" smooth="yes"/>
			<point x="260" y="437" type="line" smooth="yes"/>
			<point x="261" y="443"/>
			<point x="262" y="449"/>
			<point x="262" y="455" type="curve" smooth="yes"/>
			<point x="262" y="504"/>
			<point x="223" y="543"/>
			<point x="174" y="543" type="curve" smooth="yes"/>
			<point x="132" y="543"/>
			<point x="96" y="512"/>
			<point x="88" y="473" type="curve" smooth="yes"/>
			<point x="35" y="222" type="line" smooth="yes"/>
			<point x="26" y="179"/>
			<point x="20" y="148"/>
			<point x="18" y="121" type="curve" smooth="yes"/>
			<point x="15" y="48"/>
			<point x="69" y="-14"/>
			<point x="179" y="-14" type="curve" smooth="yes"/>
			<point x="205" y="-14"/>
			<point x="228" y="-11"/>
			<point x="249" y="-5" type="curve" smooth="yes"/>
			<point x="292" y="6"/>
			<point x="316" y="28"/>
			<point x="345" y="62" type="curve" smooth="yes"/>
			<point x="369" y="90" type="line"/>
			<point x="363" y="40"/>
			<point x="401" y="-9"/>
			<point x="457" y="-9" type="curve" smooth="yes"/>
			<point x="499" y="-9"/>
			<point x="535" y="21"/>
		</contour>
		<contour>
			<point x="245" y="571"/>
			<point x="285" y="571" type="curve" smooth="yes"/>
			<point x="331" y="571"/>
			<point x="358" y="592"/>
			<point x="367" y="637" type="curve" smooth="yes"/>
			<point x="377" y="683"/>
			<point x="343" y="727"/>
			<point x="295" y="727" type="curve" smooth="yes"/>
			<point x="283" y="727"/>
			<point x="272" y="724"/>
			<point x="262" y="719" type="curve" smooth="yes"/>
			<point x="233" y="704"/>
			<point x="212" y="677"/>
			<point x="212" y="644" type="curve" smooth="yes"/>
			<point x="212" y="604"/>
		</contour>
		<contour>
			<point x="446" y="571"/>
			<point x="486" y="571" type="curve" smooth="yes"/>
			<point x="532" y="571"/>
			<point x="559" y="592"/>
			<point x="568" y="637" type="curve" smooth="yes"/>
			<point x="578" y="683"/>
			<point x="544" y="727"/>
			<point x="496" y="727" type="curve" smooth="yes"/>
			<point x="484" y="727"/>
			<point x="473" y="724"/>
			<point x="463" y="719" type="curve" smooth="yes"/>
			<point x="434" y="704"/>
			<point x="413" y="677"/>
			<point x="413" y="644" type="curve" smooth="yes"/>
			<point x="413" y="604"/>
		</contour>
	</outline>
</glyph>
<glyph name="yacute" format="2">
	<advance width="608"/>
	<unicode hex="00FD"/>
	<note>
		yacute
	</note>
	<outline>
		<contour>
			<point x="382" y="562"/>
			<point x="383" y="563" type="curve" smooth="yes"/>
			<point x="471" y="637"/>
			<point x="465" y="704"/>
			<point x="465" y="704" type="curve" smooth="yes"/>
			<point x="427" y="698"/>
			<point x="393" y="677"/>
			<point x="371" y="649" type="curve" smooth="yes"/>
			<point x="345" y="614"/>
			<point x="382" y="562"/>
			<point x="382" y="562" type="curve"/>
			<point x="382" y="562"/>
		</contour>
		<contour>
			<point x="349" y="0" type="curve" smooth="yes"/>
			<point x="602" y="418" type="line" smooth="yes"/>
			<point x="609" y="430"/>
			<point x="614" y="445"/>
			<point x="614" y="460" type="curve" smooth="yes"/>
			<point x="614" y="506"/>
			<point x="577" y="543"/>
			<point x="532" y="543" type="curve" smooth="yes"/>
			<point x="499" y="543"/>
			<point x="471" y="524"/>
			<point x="458" y="497" type="curve" smooth="yes"/>
			<point x="284" y="143" type="line"/>
			<point x="262" y="455" type="line" smooth="yes"/>
			<point x="259" y="504"/>
			<point x="218" y="543"/>
			<point x="168" y="543" type="curve" smooth="yes"/>
			<point x="110" y="543"/>
			<point x="65" y="489"/>
			<point x="76" y="432" type="curve" smooth="yes"/>
			<point x="160" y="-24" type="line"/>
			<point x="149" y="-39" type="line" smooth="yes"/>
			<point x="124" y="-77"/>
			<point x="92" y="-91"/>
			<point x="50" y="-91" type="curve" smooth="yes"/>
			<point x="41" y="-91" type="line" smooth="yes"/>
			<point x="9" y="-91"/>
			<point x="-19" y="-118"/>
			<point x="-19" y="-150" type="curve" smooth="yes"/>
			<point x="-19" y="-183"/>
			<point x="7" y="-210"/>
			<point x="39" y="-210" type="curve" smooth="yes"/>
			<point x="52" y="-210" type="line" smooth="yes"/>
			<point x="179" y="-210"/>
			<point x="246" y="-169"/>
		</contour>
	</outline>
</glyph>
<glyph name="aogonek" format="2">
	<advance width="587"/>
	<unicode hex="0105"/>
	<note>
		aogonek
	</note>
	<outline>
		<contour>
			<point x="374" y="-70" type="curve" smooth="yes"/>
			<point x="382" y="-32"/>
			<point x="409" y="0"/>
			<point x="434" y="0" type="curve" smooth="yes"/>
			<point x="469" y="0"/>
			<point x="487" y="31"/>
			<point x="497" y="90" type="curve" smooth="yes"/>
			<point x="499" y="105"/>
			<point x="502" y="120"/>
			<point x="505" y="135" type="curve" smooth="yes"/>
			<point x="537" y="285" type="line" smooth="yes"/>
			<point x="544" y="318"/>
			<point x="550" y="349"/>
			<point x="554" y="376" type="curve" smooth="yes"/>
			<point x="566" y="473"/>
			<point x="524" y="548"/>
			<point x="355" y="548" type="curve" smooth="yes"/>
			<point x="271" y="548"/>
			<point x="191" y="521"/>
			<point x="136" y="468" type="curve" smooth="yes"/>
			<point x="122" y="454"/>
			<point x="113" y="436"/>
			<point x="113" y="414" type="curve" smooth="yes"/>
			<point x="113" y="373"/>
			<point x="146" y="340"/>
			<point x="187" y="340" type="curve" smooth="yes"/>
			<point x="215" y="340"/>
			<point x="238" y="357"/>
			<point x="250" y="381" type="curve" smooth="yes"/>
			<point x="266" y="411"/>
			<point x="290" y="426"/>
			<point x="321" y="426" type="curve" smooth="yes"/>
			<point x="360" y="426"/>
			<point x="377" y="402"/>
			<point x="374" y="375" type="curve" smooth="yes"/>
			<point x="373" y="358"/>
			<point x="370" y="347"/>
			<point x="368" y="336" type="curve" smooth="yes"/>
			<point x="366" y="328" type="line"/>
			<point x="332" y="328" type="line" smooth="yes"/>
			<point x="151" y="328"/>
			<point x="29" y="258"/>
			<point x="4" y="144" type="curve" smooth="yes"/>
			<point x="-18" y="41"/>
			<point x="54" y="-14"/>
			<point x="142" y="-14" type="curve" smooth="yes"/>
			<point x="170" y="-14"/>
			<point x="196" y="-10"/>
			<point x="222" y="-3" type="curve" smooth="yes"/>
			<point x="267" y="11"/>
			<point x="290" y="36"/>
			<point x="314" y="76" type="curve" smooth="yes"/>
			<point x="315" y="78" type="line"/>
			<point x="311" y="5" type="line"/>
			<point x="261" y="-21"/>
			<point x="208" y="-77"/>
			<point x="196" y="-137" type="curve" smooth="yes"/>
			<point x="182" y="-201"/>
			<point x="225" y="-223"/>
			<point x="291" y="-223" type="curve" smooth="yes"/>
			<point x="349" y="-223"/>
			<point x="393" y="-206"/>
			<point x="433" y="-183" type="curve" smooth="yes"/>
			<point x="443" y="-177"/>
			<point x="449" y="-166"/>
			<point x="449" y="-154" type="curve" smooth="yes"/>
			<point x="449" y="-134"/>
			<point x="430" y="-117"/>
			<point x="411" y="-120" type="curve"/>
			<point x="409" y="-121"/>
			<point x="406" y="-121"/>
			<point x="404" y="-121" type="curve" smooth="yes"/>
			<point x="384" y="-121"/>
			<point x="366" y="-108"/>
		</contour>
		<contour>
			<point x="242" y="108" type="curve" smooth="yes"/>
			<point x="206" y="108"/>
			<point x="184" y="126"/>
			<point x="191" y="158" type="curve" smooth="yes"/>
			<point x="203" y="211"/>
			<point x="265" y="232"/>
			<point x="345" y="226" type="curve"/>
			<point x="337" y="191" type="line" smooth="yes"/>
			<point x="325" y="135"/>
			<point x="278" y="108"/>
		</contour>
	</outline>
</glyph>
<glyph name="cacute" format="2">
	<advance width="587"/>
	<unicode hex="0107"/>
	<note>
		cacute
	</note>
	<outline>
		<contour>
			<point x="376" y="562"/>
			<point x="377" y="563" type="curve" smooth="yes"/>
			<point x="465" y="637"/>
			<point x="459" y="704"/>
			<point x="459" y="704" type="curve" smooth="yes"/>
			<point x="421" y="698"/>
			<point x="387" y="677"/>
			<point x="365" y="649" type="curve" smooth="yes"/>
			<point x="339" y="614"/>
			<point x="376" y="562"/>
			<point x="376" y="562" type="curve"/>
			<point x="376" y="562"/>
		</contour>
		<contour>
			<point x="365" y="548" type="curve" smooth="yes"/>
			<point x="208" y="548"/>
			<point x="62" y="445"/>
			<point x="23" y="261" type="curve" smooth="yes"/>
			<point x="-14" y="85"/>
			<point x="81" y="-14"/>
			<point x="234" y="-14" type="curve" smooth="yes"/>
			<point x="329" y="-14"/>
			<point x="414" y="17"/>
			<point x="475" y="79" type="curve" smooth="yes"/>
			<point x="488" y="93"/>
			<point x="496" y="111"/>
			<point x="496" y="132" type="curve" smooth="yes"/>
			<point x="496" y="173"/>
			<point x="463" y="207"/>
			<point x="421" y="207" type="curve" smooth="yes"/>
			<point x="393" y="207"/>
			<point x="370" y="191"/>
			<point x="357" y="168" type="curve" smooth="yes"/>
			<point x="334" y="127"/>
			<point x="302" y="108"/>
			<point x="270" y="108" type="curve" smooth="yes"/>
			<point x="209" y="108"/>
			<point x="185" y="158"/>
			<point x="209" y="272" type="curve" smooth="yes"/>
			<point x="231" y="375"/>
			<point x="275" y="426"/>
			<point x="335" y="426" type="curve" smooth="yes"/>
			<point x="366" y="426"/>
			<point x="389" y="414"/>
			<point x="399" y="381" type="curve" smooth="yes"/>
			<point x="409" y="345"/>
			<point x="443" y="319"/>
			<point x="482" y="319" type="curve" smooth="yes"/>
			<point x="530" y="319"/>
			<point x="569" y="358"/>
			<point x="569" y="406" type="curve" smooth="yes"/>
			<point x="569" y="418"/>
			<point x="568" y="432"/>
			<point x="563" y="443" type="curve" smooth="yes"/>
			<point x="534" y="507"/>
			<point x="467" y="548"/>
		</contour>
	</outline>
</glyph>
<glyph name="cdotaccent" format="2">
	<advance width="587"/>
	<unicode hex="010B"/>
	<note>
		cdotaccent
	</note>
	<outline>
		<contour>
			<point x="396" y="751" type="curve" smooth="yes"/>
			<point x="340" y="751"/>
			<point x="296" y="717"/>
			<point x="285" y="663" type="curve" smooth="yes"/>
			<point x="273" y="609"/>
			<point x="303" y="575"/>
			<point x="359" y="575" type="curve" smooth="yes"/>
			<point x="415" y="575"/>
			<point x="459" y="609"/>
			<point x="471" y="663" type="curve" smooth="yes"/>
			<point x="482" y="717"/>
			<point x="452" y="751"/>
		</contour>
		<contour>
			<point x="365" y="548" type="curve" smooth="yes"/>
			<point x="208" y="548"/>
			<point x="62" y="445"/>
			<point x="23" y="261" type="curve" smooth="yes"/>
			<point x="-14" y="85"/>
			<point x="81" y="-14"/>
			<point x="234" y="-14" type="curve" smooth="yes"/>
			<point x="329" y="-14"/>
			<point x="414" y="17"/>
			<point x="475" y="79" type="curve" smooth="yes"/>
			<point x="488" y="93"/>
			<point x="496" y="111"/>
			<point x="496" y="132" type="curve" smooth="yes"/>
			<point x="496" y="173"/>
			<point x="463" y="207"/>
			<point x="421" y="207" type="curve" smooth="yes"/>
			<point x="393" y="207"/>
			<point x="370" y="191"/>
			<point x="357" y="168" type="curve" smooth="yes"/>
			<point x="334" y="127"/>
			<point x="302" y="108"/>
			<point x="270" y="108" type="curve" smooth="yes"/>
			<point x="209" y="108"/>
			<point x="185" y="158"/>
			<point x="209" y="272" type="curve" smooth="yes"/>
			<point x="231" y="375"/>
			<point x="275" y="426"/>
			<point x="335" y="426" type="curve" smooth="yes"/>
			<point x="366" y="426"/>
			<point x="389" y="414"/>
			<point x="399" y="381" type="curve" smooth="yes"/>
			<point x="409" y="345"/>
			<point x="443" y="319"/>
			<point x="482" y="319" type="curve" smooth="yes"/>
			<point x="530" y="319"/>
			<point x="569" y="358"/>
			<point x="569" y="406" type="curve" smooth="yes"/>
			<point x="569" y="418"/>
			<point x="568" y="432"/>
			<point x="563" y="443" type="curve" smooth="yes"/>
			<point x="534" y="507"/>
			<point x="467" y="548"/>
		</contour>
	</outline>
</glyph>
<glyph name="Ccaron" format="2">
	<advance width="734"/>
	<unicode hex="010C"/>
	<note>
		Ccaron
	</note>
	<outline>
		<contour>
			<point x="414" y="735"/>
			<point x="448" y="735" type="curve" smooth="yes"/>
			<point x="523" y="735" type="line" smooth="yes"/>
			<point x="569" y="735"/>
			<point x="609" y="769"/>
			<point x="614" y="815" type="curve" smooth="yes"/>
			<point x="614" y="819"/>
			<point x="615" y="823"/>
			<point x="615" y="827" type="curve" smooth="yes"/>
			<point x="615" y="850"/>
			<point x="596" y="869"/>
			<point x="573" y="869" type="curve" smooth="yes"/>
			<point x="558" y="869"/>
			<point x="544" y="862"/>
			<point x="537" y="850" type="curve" smooth="yes"/>
			<point x="496" y="784" type="line"/>
			<point x="487" y="822" type="line" smooth="yes"/>
			<point x="481" y="847"/>
			<point x="468" y="860"/>
			<point x="448" y="860" type="curve" smooth="yes"/>
			<point x="414" y="860"/>
			<point x="385" y="832"/>
			<point x="385" y="797" type="curve" smooth="yes"/>
			<point x="385" y="763"/>
		</contour>
		<contour>
			<point x="563" y="295"/>
			<point x="555" y="286" type="curve" smooth="yes"/>
			<point x="523" y="253"/>
			<point x="515" y="222"/>
			<point x="490" y="185" type="curve" smooth="yes"/>
			<point x="458" y="142"/>
			<point x="415" y="118"/>
			<point x="363" y="118" type="curve" smooth="yes"/>
			<point x="283" y="118"/>
			<point x="223" y="177"/>
			<point x="260" y="351" type="curve" smooth="yes"/>
			<point x="292" y="500"/>
			<point x="372" y="572"/>
			<point x="458" y="572" type="curve" smooth="yes"/>
			<point x="505" y="572"/>
			<point x="538" y="557"/>
			<point x="555" y="527" type="curve" smooth="yes"/>
			<point x="578" y="483"/>
			<point x="577" y="442"/>
			<point x="621" y="425" type="curve" smooth="yes"/>
			<point x="634" y="421"/>
			<point x="647" y="418"/>
			<point x="662" y="418" type="curve" smooth="yes"/>
			<point x="680" y="418"/>
			<point x="696" y="423"/>
			<point x="710" y="431" type="curve" smooth="yes"/>
			<point x="742" y="449"/>
			<point x="755" y="482"/>
			<point x="748" y="529" type="curve" smooth="yes"/>
			<point x="734" y="632"/>
			<point x="651" y="704"/>
			<point x="488" y="704" type="curve" smooth="yes"/>
			<point x="301" y="704"/>
			<point x="121" y="580"/>
			<point x="70" y="340" type="curve" smooth="yes"/>
			<point x="20" y="106"/>
			<point x="144" y="-14"/>
			<point x="329" y="-14" type="curve" smooth="yes"/>
			<point x="477" y="-14"/>
			<point x="604" y="48"/>
			<point x="670" y="169" type="curve" smooth="yes"/>
			<point x="695" y="215"/>
			<point x="692" y="262"/>
			<point x="646" y="286" type="curve" smooth="yes"/>
			<point x="628" y="295"/>
			<point x="608" y="300"/>
			<point x="586" y="300" type="curve" smooth="yes"/>
			<point x="573" y="300"/>
		</contour>
	</outline>
</glyph>
<glyph name="ccaron" format="2">
	<advance width="587"/>
	<unicode hex="010D"/>
	<note>
		ccaron
	</note>
	<outline>
		<contour>
			<point x="288" y="571"/>
			<point x="322" y="571" type="curve" smooth="yes"/>
			<point x="397" y="571" type="line" smooth="yes"/>
			<point x="443" y="571"/>
			<point x="483" y="605"/>
			<point x="488" y="651" type="curve" smooth="yes"/>
			<point x="488" y="655"/>
			<point x="489" y="659"/>
			<point x="489" y="663" type="curve" smooth="yes"/>
			<point x="489" y="686"/>
			<point x="471" y="705"/>
			<point x="448" y="705" type="curve" smooth="yes"/>
			<point x="433" y="705"/>
			<point x="419" y="697"/>
			<point x="412" y="686" type="curve" smooth="yes"/>
			<point x="370" y="620" type="line"/>
			<point x="362" y="658" type="line" smooth="yes"/>
			<point x="356" y="684"/>
			<point x="342" y="696"/>
			<point x="322" y="696" type="curve" smooth="yes"/>
			<point x="288" y="696"/>
			<point x="260" y="668"/>
			<point x="260" y="633" type="curve" smooth="yes"/>
			<point x="260" y="599"/>
		</contour>
		<contour>
			<point x="370" y="191"/>
			<point x="357" y="168" type="curve" smooth="yes"/>
			<point x="334" y="127"/>
			<point x="302" y="108"/>
			<point x="270" y="108" type="curve" smooth="yes"/>
			<point x="209" y="108"/>
			<point x="185" y="158"/>
			<point x="209" y="272" type="curve" smooth="yes"/>
			<point x="231" y="375"/>
			<point x="275" y="426"/>
			<point x="335" y="426" type="curve" smooth="yes"/>
			<point x="366" y="426"/>
			<point x="389" y="414"/>
			<point x="399" y="381" type="curve" smooth="yes"/>
			<point x="409" y="345"/>
			<point x="443" y="319"/>
			<point x="482" y="319" type="curve" smooth="yes"/>
			<point x="530" y="319"/>
			<point x="569" y="358"/>
			<point x="569" y="406" type="curve" smooth="yes"/>
			<point x="569" y="418"/>
			<point x="568" y="432"/>
			<point x="563" y="443" type="curve" smooth="yes"/>
			<point x="534" y="507"/>
			<point x="467" y="548"/>
			<point x="365" y="548" type="curve" smooth="yes"/>
			<point x="208" y="548"/>
			<point x="62" y="445"/>
			<point x="23" y="261" type="curve" smooth="yes"/>
			<point x="-14" y="85"/>
			<point x="81" y="-14"/>
			<point x="234" y="-14" type="curve" smooth="yes"/>
			<point x="329" y="-14"/>
			<point x="414" y="17"/>
			<point x="475" y="79" type="curve" smooth="yes"/>
			<point x="488" y="93"/>
			<point x="496" y="111"/>
			<point x="496" y="132" type="curve" smooth="yes"/>
			<point x="496" y="173"/>
			<point x="463" y="207"/>
			<point x="421" y="207" type="curve" smooth="yes"/>
			<point x="393" y="207"/>
		</contour>
	</outline>
</glyph>
<glyph name="Dcaron" format="2">
	<advance width="749"/>
	<unicode hex="010E"/>
	<note>
		Dcaron
	</note>
	<outline>
		<contour>
			<point x="415" y="735"/>
			<point x="449" y="735" type="curve" smooth="yes"/>
			<point x="524" y="735" type="line" smooth="yes"/>
			<point x="570" y="735"/>
			<point x="610" y="769"/>
			<point x="615" y="815" type="curve" smooth="yes"/>
			<point x="615" y="819"/>
			<point x="616" y="823"/>
			<point x="616" y="827" type="curve" smooth="yes"/>
			<point x="616" y="850"/>
			<point x="597" y="869"/>
			<point x="574" y="869" type="curve" smooth="yes"/>
			<point x="559" y="869"/>
			<point x="545" y="862"/>
			<point x="538" y="850" type="curve" smooth="yes"/>
			<point x="497" y="784" type="line"/>
			<point x="488" y="822" type="line" smooth="yes"/>
			<point x="482" y="847"/>
			<point x="469" y="860"/>
			<point x="449" y="860" type="curve" smooth="yes"/>
			<point x="415" y="860"/>
			<point x="386" y="832"/>
			<point x="386" y="797" type="curve" smooth="yes"/>
			<point x="386" y="763"/>
		</contour>
		<contour>
			<point x="518" y="686" type="curve" smooth="yes"/>
			<point x="484" y="690"/>
			<point x="468" y="690"/>
			<point x="431" y="690" type="curve" smooth="yes"/>
			<point x="256" y="690" type="line" smooth="yes"/>
			<point x="199" y="690"/>
			<point x="164" y="663"/>
			<point x="152" y="606" type="curve" smooth="yes"/>
			<point x="46" y="104" type="line" smooth="yes"/>
			<point x="32" y="39"/>
			<point x="64" y="0"/>
			<point x="130" y="0" type="curve" smooth="yes"/>
			<point x="285" y="0" type="line" smooth="yes"/>
			<point x="322" y="0"/>
			<point x="338" y="0"/>
			<point x="374" y="4" type="curve" smooth="yes"/>
			<point x="537" y="22"/>
			<point x="694" y="138"/>
			<point x="740" y="354" type="curve" smooth="yes"/>
			<point x="786" y="570"/>
			<point x="675" y="668"/>
		</contour>
		<contour>
			<point x="355" y="142" type="curve" smooth="yes"/>
			<point x="331" y="140"/>
			<point x="315" y="140"/>
			<point x="289" y="140" type="curve" smooth="yes"/>
			<point x="233" y="140" type="line"/>
			<point x="321" y="550" type="line"/>
			<point x="377" y="550" type="line" smooth="yes"/>
			<point x="403" y="550"/>
			<point x="419" y="550"/>
			<point x="441" y="548" type="curve" smooth="yes"/>
			<point x="529" y="540"/>
			<point x="577" y="474"/>
			<point x="551" y="351" type="curve" smooth="yes"/>
			<point x="525" y="228"/>
			<point x="447" y="150"/>
		</contour>
	</outline>
</glyph>
<glyph name="dcroat" format="2">
	<advance width="669"/>
	<unicode hex="0111"/>
	<note>
		dcroat
	</note>
	<outline>
		<contour>
			<point x="681" y="575" type="line"/>
			<point x="691" y="575" type="line" smooth="yes"/>
			<point x="717" y="575"/>
			<point x="739" y="596"/>
			<point x="739" y="623" type="curve" smooth="yes"/>
			<point x="739" y="646"/>
			<point x="723" y="666"/>
			<point x="701" y="671" type="curve"/>
			<point x="694" y="716"/>
			<point x="655" y="751"/>
			<point x="608" y="751" type="curve" smooth="yes"/>
			<point x="562" y="751"/>
			<point x="531" y="718"/>
			<point x="522" y="675" type="curve" smooth="yes"/>
			<point x="521" y="671" type="line"/>
			<point x="431" y="671" type="line" smooth="yes"/>
			<point x="405" y="671"/>
			<point x="383" y="650"/>
			<point x="383" y="623" type="curve" smooth="yes"/>
			<point x="383" y="596"/>
			<point x="405" y="575"/>
			<point x="431" y="575" type="curve" smooth="yes"/>
			<point x="501" y="575" type="line"/>
			<point x="478" y="465" type="line"/>
			<point x="467" y="494" type="line" smooth="yes"/>
			<point x="459" y="515"/>
			<point x="439" y="535"/>
			<point x="391" y="543" type="curve" smooth="yes"/>
			<point x="374" y="546"/>
			<point x="355" y="548"/>
			<point x="337" y="548" type="curve" smooth="yes"/>
			<point x="200" y="548"/>
			<point x="62" y="445"/>
			<point x="22" y="255" type="curve" smooth="yes"/>
			<point x="-12" y="97"/>
			<point x="55" y="-14"/>
			<point x="200" y="-14" type="curve" smooth="yes"/>
			<point x="231" y="-14"/>
			<point x="261" y="-10"/>
			<point x="288" y="-3" type="curve" smooth="yes"/>
			<point x="330" y="8"/>
			<point x="353" y="32"/>
			<point x="382" y="64" type="curve" smooth="yes"/>
			<point x="395" y="78" type="line"/>
			<point x="396" y="28"/>
			<point x="436" y="-11"/>
			<point x="485" y="-11" type="curve" smooth="yes"/>
			<point x="529" y="-11"/>
			<point x="563" y="20"/>
			<point x="572" y="61" type="curve" smooth="yes"/>
		</contour>
		<contour>
			<point x="288" y="108" type="curve" smooth="yes"/>
			<point x="225" y="108"/>
			<point x="187" y="164"/>
			<point x="208" y="264" type="curve" smooth="yes"/>
			<point x="231" y="373"/>
			<point x="290" y="426"/>
			<point x="360" y="426" type="curve" smooth="yes"/>
			<point x="414" y="426"/>
			<point x="462" y="390"/>
			<point x="439" y="283" type="curve" smooth="yes"/>
			<point x="434" y="260" type="line" smooth="yes"/>
			<point x="410" y="148"/>
			<point x="354" y="108"/>
		</contour>
	</outline>
</glyph>
<glyph name="edotaccent" format="2">
	<advance width="601"/>
	<unicode hex="0117"/>
	<note>
		edotaccent
	</note>
	<outline>
		<contour>
			<point x="368" y="575" type="curve" smooth="yes"/>
			<point x="424" y="575"/>
			<point x="468" y="609"/>
			<point x="480" y="663" type="curve" smooth="yes"/>
			<point x="491" y="717"/>
			<point x="461" y="751"/>
			<point x="405" y="751" type="curve" smooth="yes"/>
			<point x="349" y="751"/>
			<point x="305" y="717"/>
			<point x="294" y="663" type="curve" smooth="yes"/>
			<point x="282" y="609"/>
			<point x="312" y="575"/>
		</contour>
		<contour>
			<point x="579" y="274" type="curve" smooth="yes"/>
			<point x="608" y="412"/>
			<point x="547" y="548"/>
			<point x="369" y="548" type="curve" smooth="yes"/>
			<point x="191" y="548"/>
			<point x="57" y="421"/>
			<point x="24" y="265" type="curve" smooth="yes"/>
			<point x="-16" y="77"/>
			<point x="87" y="-14"/>
			<point x="240" y="-14" type="curve" smooth="yes"/>
			<point x="325" y="-14"/>
			<point x="401" y="12"/>
			<point x="460" y="63" type="curve" smooth="yes"/>
			<point x="475" y="76"/>
			<point x="484" y="95"/>
			<point x="484" y="116" type="curve" smooth="yes"/>
			<point x="484" y="155"/>
			<point x="453" y="186"/>
			<point x="414" y="186" type="curve" smooth="yes"/>
			<point x="390" y="186"/>
			<point x="369" y="172"/>
			<point x="357" y="153" type="curve" smooth="yes"/>
			<point x="338" y="123"/>
			<point x="307" y="108"/>
			<point x="268" y="108" type="curve" smooth="yes"/>
			<point x="217" y="108"/>
			<point x="183" y="133"/>
			<point x="193" y="222" type="curve"/>
			<point x="481" y="222" type="line" smooth="yes"/>
			<point x="537" y="222"/>
			<point x="579" y="274"/>
		</contour>
		<contour>
			<point x="334" y="426" type="curve" smooth="yes"/>
			<point x="382" y="426"/>
			<point x="407" y="395"/>
			<point x="403" y="332" type="curve"/>
			<point x="222" y="332" type="line"/>
			<point x="248" y="398"/>
			<point x="287" y="426"/>
		</contour>
	</outline>
</glyph>
<glyph name="eogonek" format="2">
	<advance width="601"/>
	<unicode hex="0119"/>
	<note>
		eogonek
	</note>
	<outline>
		<contour>
			<point x="579" y="274" type="curve" smooth="yes"/>
			<point x="608" y="412"/>
			<point x="547" y="548"/>
			<point x="369" y="548" type="curve" smooth="yes"/>
			<point x="191" y="548"/>
			<point x="57" y="421"/>
			<point x="24" y="265" type="curve" smooth="yes"/>
			<point x="-12" y="96"/>
			<point x="68" y="5"/>
			<point x="195" y="-11" type="curve"/>
			<point x="154" y="-40"/>
			<point x="116" y="-88"/>
			<point x="106" y="-137" type="curve" smooth="yes"/>
			<point x="92" y="-201"/>
			<point x="135" y="-223"/>
			<point x="201" y="-223" type="curve" smooth="yes"/>
			<point x="259" y="-223"/>
			<point x="303" y="-206"/>
			<point x="343" y="-183" type="curve" smooth="yes"/>
			<point x="353" y="-177"/>
			<point x="359" y="-166"/>
			<point x="359" y="-154" type="curve" smooth="yes"/>
			<point x="359" y="-134"/>
			<point x="340" y="-117"/>
			<point x="321" y="-120" type="curve"/>
			<point x="319" y="-121"/>
			<point x="316" y="-121"/>
			<point x="314" y="-121" type="curve" smooth="yes"/>
			<point x="294" y="-121"/>
			<point x="276" y="-108"/>
			<point x="284" y="-70" type="curve" smooth="yes"/>
			<point x="290" y="-40"/>
			<point x="309" y="-14"/>
			<point x="328" y="-4" type="curve"/>
			<point x="333" y="-3"/>
			<point x="338" y="-1"/>
			<point x="343" y="0" type="curve" smooth="yes"/>
			<point x="387" y="13"/>
			<point x="426" y="33"/>
			<point x="460" y="62" type="curve" smooth="yes"/>
			<point x="475" y="75"/>
			<point x="485" y="94"/>
			<point x="485" y="116" type="curve" smooth="yes"/>
			<point x="485" y="155"/>
			<point x="453" y="186"/>
			<point x="415" y="186" type="curve" smooth="yes"/>
			<point x="390" y="186"/>
			<point x="369" y="172"/>
			<point x="357" y="153" type="curve" smooth="yes"/>
			<point x="337" y="123"/>
			<point x="307" y="108"/>
			<point x="268" y="108" type="curve" smooth="yes"/>
			<point x="217" y="108"/>
			<point x="183" y="133"/>
			<point x="193" y="222" type="curve"/>
			<point x="481" y="222" type="line" smooth="yes"/>
			<point x="537" y="222"/>
			<point x="579" y="274"/>
		</contour>
		<contour>
			<point x="334" y="426" type="curve" smooth="yes"/>
			<point x="382" y="426"/>
			<point x="407" y="395"/>
			<point x="403" y="332" type="curve"/>
			<point x="222" y="332" type="line"/>
			<point x="248" y="398"/>
			<point x="287" y="426"/>
		</contour>
	</outline>
</glyph>
<glyph name="Ecaron" format="2">
	<advance width="639"/>
	<unicode hex="011A"/>
	<note>
		Ecaron
	</note>
	<outline>
		<contour>
			<point x="370" y="735"/>
			<point x="404" y="735" type="curve" smooth="yes"/>
			<point x="479" y="735" type="line" smooth="yes"/>
			<point x="525" y="735"/>
			<point x="565" y="769"/>
			<point x="570" y="815" type="curve" smooth="yes"/>
			<point x="570" y="819"/>
			<point x="571" y="823"/>
			<point x="571" y="827" type="curve" smooth="yes"/>
			<point x="571" y="850"/>
			<point x="552" y="869"/>
			<point x="529" y="869" type="curve" smooth="yes"/>
			<point x="514" y="869"/>
			<point x="500" y="862"/>
			<point x="493" y="850" type="curve" smooth="yes"/>
			<point x="452" y="784" type="line"/>
			<point x="443" y="822" type="line" smooth="yes"/>
			<point x="437" y="847"/>
			<point x="424" y="860"/>
			<point x="404" y="860" type="curve" smooth="yes"/>
			<point x="370" y="860"/>
			<point x="341" y="832"/>
			<point x="341" y="797" type="curve" smooth="yes"/>
			<point x="341" y="763"/>
		</contour>
		<contour>
			<point x="543" y="140"/>
			<point x="505" y="140" type="curve" smooth="yes"/>
			<point x="233" y="140" type="line"/>
			<point x="262" y="276" type="line"/>
			<point x="534" y="276" type="line" smooth="yes"/>
			<point x="572" y="276"/>
			<point x="604" y="307"/>
			<point x="604" y="346" type="curve" smooth="yes"/>
			<point x="604" y="385"/>
			<point x="572" y="416"/>
			<point x="534" y="416" type="curve" smooth="yes"/>
			<point x="292" y="416" type="line"/>
			<point x="321" y="550" type="line"/>
			<point x="612" y="550" type="line" smooth="yes"/>
			<point x="650" y="550"/>
			<point x="682" y="581"/>
			<point x="682" y="620" type="curve" smooth="yes"/>
			<point x="682" y="659"/>
			<point x="650" y="690"/>
			<point x="612" y="690" type="curve" smooth="yes"/>
			<point x="256" y="690" type="line" smooth="yes"/>
			<point x="199" y="690"/>
			<point x="164" y="663"/>
			<point x="152" y="606" type="curve" smooth="yes"/>
			<point x="46" y="104" type="line" smooth="yes"/>
			<point x="32" y="39"/>
			<point x="64" y="0"/>
			<point x="130" y="0" type="curve" smooth="yes"/>
			<point x="505" y="0" type="line" smooth="yes"/>
			<point x="543" y="0"/>
			<point x="575" y="31"/>
			<point x="575" y="70" type="curve" smooth="yes"/>
			<point x="575" y="109"/>
		</contour>
	</outline>
</glyph>
<glyph name="Gbreve" format="2">
	<advance width="759"/>
	<unicode hex="011E"/>
	<note>
		Gbreve
	</note>
	<outline>
		<contour>
			<point x="486" y="728" type="curve" smooth="yes"/>
			<point x="541" y="728"/>
			<point x="596" y="748"/>
			<point x="628" y="807" type="curve" smooth="yes"/>
			<point x="631" y="813"/>
			<point x="633" y="820"/>
			<point x="633" y="827" type="curve" smooth="yes"/>
			<point x="633" y="851"/>
			<point x="614" y="870"/>
			<point x="590" y="870" type="curve" smooth="yes"/>
			<point x="573" y="870"/>
			<point x="557" y="859"/>
			<point x="551" y="844" type="curve" smooth="yes"/>
			<point x="542" y="822"/>
			<point x="526" y="813"/>
			<point x="504" y="813" type="curve" smooth="yes"/>
			<point x="485" y="813"/>
			<point x="475" y="820"/>
			<point x="470" y="835" type="curve" smooth="yes"/>
			<point x="464" y="855"/>
			<point x="446" y="870"/>
			<point x="423" y="870" type="curve" smooth="yes"/>
			<point x="395" y="870"/>
			<point x="374" y="847"/>
			<point x="375" y="819" type="curve" smooth="yes"/>
			<point x="378" y="750"/>
			<point x="427" y="728"/>
		</contour>
		<contour>
			<point x="629" y="368" type="curve" smooth="yes"/>
			<point x="478" y="368" type="line" smooth="yes"/>
			<point x="440" y="368"/>
			<point x="408" y="337"/>
			<point x="408" y="298" type="curve" smooth="yes"/>
			<point x="408" y="259"/>
			<point x="440" y="228"/>
			<point x="478" y="228" type="curve" smooth="yes"/>
			<point x="535" y="228" type="line"/>
			<point x="494" y="152"/>
			<point x="441" y="118"/>
			<point x="371" y="118" type="curve" smooth="yes"/>
			<point x="286" y="118"/>
			<point x="223" y="177"/>
			<point x="260" y="351" type="curve" smooth="yes"/>
			<point x="292" y="500"/>
			<point x="380" y="572"/>
			<point x="468" y="572" type="curve" smooth="yes"/>
			<point x="515" y="572"/>
			<point x="548" y="557"/>
			<point x="565" y="527" type="curve" smooth="yes"/>
			<point x="588" y="483"/>
			<point x="587" y="442"/>
			<point x="631" y="425" type="curve" smooth="yes"/>
			<point x="644" y="421"/>
			<point x="657" y="418"/>
			<point x="672" y="418" type="curve" smooth="yes"/>
			<point x="690" y="418"/>
			<point x="706" y="423"/>
			<point x="720" y="431" type="curve" smooth="yes"/>
			<point x="752" y="449"/>
			<point x="765" y="482"/>
			<point x="758" y="529" type="curve" smooth="yes"/>
			<point x="744" y="632"/>
			<point x="661" y="704"/>
			<point x="498" y="704" type="curve" smooth="yes"/>
			<point x="309" y="704"/>
			<point x="121" y="580"/>
			<point x="70" y="340" type="curve" smooth="yes"/>
			<point x="21" y="108"/>
			<point x="124" y="-14"/>
			<point x="308" y="-14" type="curve" smooth="yes"/>
			<point x="354" y="-14"/>
			<point x="390" y="-10"/>
			<point x="422" y="2" type="curve" smooth="yes"/>
			<point x="464" y="17"/>
			<point x="485" y="44"/>
			<point x="508" y="83" type="curve" smooth="yes"/>
			<point x="522" y="106" type="line"/>
			<point x="520" y="69" type="line" smooth="yes"/>
			<point x="518" y="29"/>
			<point x="549" y="-9"/>
			<point x="595" y="-9" type="curve" smooth="yes"/>
			<point x="631" y="-9"/>
			<point x="661" y="17"/>
			<point x="668" y="50" type="curve" smooth="yes"/>
			<point x="713" y="264" type="line" smooth="yes"/>
			<point x="727" y="329"/>
			<point x="695" y="368"/>
		</contour>
	</outline>
</glyph>
<glyph name="uni0123" format="2">
	<advance width="661"/>
	<unicode hex="0123"/>
	<note>
		gcommaaccent
	</note>
	<outline>
		<contour>
			<point x="432" y="563"/>
			<point x="447" y="585" type="curve" smooth="yes"/>
			<point x="519" y="692" type="line" smooth="yes"/>
			<point x="523" y="698"/>
			<point x="526" y="706"/>
			<point x="526" y="714" type="curve" smooth="yes"/>
			<point x="526" y="737"/>
			<point x="508" y="755"/>
			<point x="486" y="755" type="curve" smooth="yes"/>
			<point x="473" y="755"/>
			<point x="461" y="749"/>
			<point x="454" y="740" type="curve" smooth="yes"/>
			<point x="383" y="653" type="line" smooth="yes"/>
			<point x="344" y="604"/>
			<point x="395" y="536"/>
			<point x="395" y="536" type="curve" smooth="yes"/>
			<point x="424" y="536"/>
		</contour>
		<contour>
			<point x="588" y="136" type="curve" smooth="yes"/>
			<point x="652" y="437" type="line" smooth="yes"/>
			<point x="653" y="442"/>
			<point x="653" y="449"/>
			<point x="653" y="455" type="curve" smooth="yes"/>
			<point x="653" y="504"/>
			<point x="614" y="543"/>
			<point x="566" y="543" type="curve" smooth="yes"/>
			<point x="523" y="543"/>
			<point x="488" y="514"/>
			<point x="480" y="473" type="curve" smooth="yes"/>
			<point x="478" y="465" type="line"/>
			<point x="467" y="494" type="line" smooth="yes"/>
			<point x="459" y="515"/>
			<point x="439" y="535"/>
			<point x="391" y="543" type="curve" smooth="yes"/>
			<point x="374" y="546"/>
			<point x="355" y="548"/>
			<point x="337" y="548" type="curve" smooth="yes"/>
			<point x="200" y="548"/>
			<point x="64" y="453"/>
			<point x="24" y="263" type="curve" smooth="yes"/>
			<point x="-10" y="105"/>
			<point x="69" y="6"/>
			<point x="214" y="6" type="curve" smooth="yes"/>
			<point x="253" y="6"/>
			<point x="287" y="12"/>
			<point x="318" y="21" type="curve" smooth="yes"/>
			<point x="351" y="31"/>
			<point x="381" y="52"/>
			<point x="396" y="83" type="curve"/>
			<point x="390" y="54"/>
			<point x="384" y="29"/>
			<point x="379" y="13" type="curve" smooth="yes"/>
			<point x="359" y="-59"/>
			<point x="304" y="-88"/>
			<point x="237" y="-88" type="curve" smooth="yes"/>
			<point x="214" y="-88"/>
			<point x="194" y="-85"/>
			<point x="179" y="-78" type="curve" smooth="yes"/>
			<point x="139" y="-59"/>
			<point x="142" y="-15"/>
			<point x="102" y="4" type="curve" smooth="yes"/>
			<point x="88" y="11"/>
			<point x="71" y="15"/>
			<point x="54" y="15" type="curve" smooth="yes"/>
			<point x="36" y="15"/>
			<point x="22" y="9"/>
			<point x="9" y="0" type="curve" smooth="yes"/>
			<point x="-20" y="-20"/>
			<point x="-34" y="-52"/>
			<point x="-23" y="-98" type="curve" smooth="yes"/>
			<point x="-3" y="-178"/>
			<point x="75" y="-220"/>
			<point x="204" y="-220" type="curve" smooth="yes"/>
			<point x="385" y="-220"/>
			<point x="521" y="-142"/>
			<point x="565" y="33" type="curve" smooth="yes"/>
			<point x="572" y="62"/>
			<point x="581" y="103"/>
		</contour>
		<contour>
			<point x="292" y="128" type="curve" smooth="yes"/>
			<point x="229" y="128"/>
			<point x="189" y="176"/>
			<point x="210" y="276" type="curve" smooth="yes"/>
			<point x="234" y="385"/>
			<point x="290" y="426"/>
			<point x="360" y="426" type="curve" smooth="yes"/>
			<point x="414" y="426"/>
			<point x="462" y="390"/>
			<point x="439" y="283" type="curve" smooth="yes"/>
			<point x="438" y="280" type="line" smooth="yes"/>
			<point x="414" y="168"/>
			<point x="358" y="128"/>
		</contour>
	</outline>
</glyph>
<glyph name="Iogonek" format="2">
	<advance width="314"/>
	<unicode hex="012E"/>
	<note>
		Iogonek
	</note>
	<outline>
		<contour>
			<point x="147" y="0" type="curve" smooth="yes"/>
			<point x="185" y="0"/>
			<point x="210" y="27"/>
			<point x="222" y="84" type="curve" smooth="yes"/>
			<point x="329" y="593" type="line" smooth="yes"/>
			<point x="330" y="598"/>
			<point x="331" y="605"/>
			<point x="331" y="611" type="curve" smooth="yes"/>
			<point x="331" y="660"/>
			<point x="292" y="699"/>
			<point x="243" y="699" type="curve" smooth="yes"/>
			<point x="201" y="699"/>
			<point x="165" y="668"/>
			<point x="157" y="629" type="curve" smooth="yes"/>
			<point x="25" y="5" type="line"/>
			<point x="-26" y="-20"/>
			<point x="-79" y="-77"/>
			<point x="-91" y="-137" type="curve" smooth="yes"/>
			<point x="-105" y="-201"/>
			<point x="-62" y="-223"/>
			<point x="4" y="-223" type="curve" smooth="yes"/>
			<point x="62" y="-223"/>
			<point x="106" y="-206"/>
			<point x="146" y="-183" type="curve" smooth="yes"/>
			<point x="156" y="-177"/>
			<point x="162" y="-166"/>
			<point x="162" y="-154" type="curve" smooth="yes"/>
			<point x="162" y="-134"/>
			<point x="143" y="-117"/>
			<point x="124" y="-120" type="curve"/>
			<point x="122" y="-121"/>
			<point x="119" y="-121"/>
			<point x="117" y="-121" type="curve" smooth="yes"/>
			<point x="97" y="-121"/>
			<point x="79" y="-108"/>
			<point x="87" y="-70" type="curve" smooth="yes"/>
			<point x="95" y="-32"/>
			<point x="122" y="0"/>
		</contour>
	</outline>
</glyph>
<glyph name="iogonek" format="2">
	<advance width="288"/>
	<unicode hex="012F"/>
	<note>
		iogonek
	</note>
	<outline>
		<contour>
			<point x="210" y="575" type="curve" smooth="yes"/>
			<point x="266" y="575"/>
			<point x="310" y="609"/>
			<point x="322" y="663" type="curve" smooth="yes"/>
			<point x="333" y="717"/>
			<point x="303" y="751"/>
			<point x="247" y="751" type="curve" smooth="yes"/>
			<point x="191" y="751"/>
			<point x="147" y="717"/>
			<point x="136" y="663" type="curve" smooth="yes"/>
			<point x="124" y="609"/>
			<point x="154" y="575"/>
		</contour>
		<contour>
			<point x="106" y="512"/>
			<point x="98" y="473" type="curve" smooth="yes"/>
			<point x="-1" y="5" type="line"/>
			<point x="-52" y="-20"/>
			<point x="-105" y="-77"/>
			<point x="-117" y="-137" type="curve" smooth="yes"/>
			<point x="-131" y="-201"/>
			<point x="-88" y="-223"/>
			<point x="-22" y="-223" type="curve" smooth="yes"/>
			<point x="36" y="-223"/>
			<point x="80" y="-206"/>
			<point x="120" y="-183" type="curve" smooth="yes"/>
			<point x="130" y="-177"/>
			<point x="136" y="-166"/>
			<point x="136" y="-154" type="curve" smooth="yes"/>
			<point x="136" y="-134"/>
			<point x="117" y="-117"/>
			<point x="98" y="-120" type="curve"/>
			<point x="96" y="-121"/>
			<point x="93" y="-121"/>
			<point x="91" y="-121" type="curve" smooth="yes"/>
			<point x="71" y="-121"/>
			<point x="53" y="-108"/>
			<point x="61" y="-70" type="curve" smooth="yes"/>
			<point x="69" y="-32"/>
			<point x="96" y="0"/>
			<point x="121" y="0" type="curve" smooth="yes"/>
			<point x="159" y="0"/>
			<point x="184" y="27"/>
			<point x="196" y="84" type="curve" smooth="yes"/>
			<point x="270" y="437" type="line" smooth="yes"/>
			<point x="271" y="442"/>
			<point x="272" y="449"/>
			<point x="272" y="455" type="curve" smooth="yes"/>
			<point x="272" y="504"/>
			<point x="233" y="543"/>
			<point x="184" y="543" type="curve" smooth="yes"/>
			<point x="142" y="543"/>
		</contour>
	</outline>
</glyph>
<glyph name="dotlessi" format="2">
	<advance width="288"/>
	<unicode hex="0131"/>
	<note>
		dotlessi
	</note>
	<outline>
		<contour>
			<point x="183" y="22"/>
			<point x="191" y="61" type="curve" smooth="yes"/>
			<point x="270" y="437" type="line" smooth="yes"/>
			<point x="271" y="442"/>
			<point x="272" y="449"/>
			<point x="272" y="455" type="curve" smooth="yes"/>
			<point x="272" y="504"/>
			<point x="233" y="543"/>
			<point x="184" y="543" type="curve" smooth="yes"/>
			<point x="142" y="543"/>
			<point x="106" y="513"/>
			<point x="98" y="473" type="curve" smooth="yes"/>
			<point x="19" y="97" type="line" smooth="yes"/>
			<point x="18" y="92"/>
			<point x="17" y="85"/>
			<point x="17" y="79" type="curve" smooth="yes"/>
			<point x="17" y="30"/>
			<point x="56" y="-9"/>
			<point x="105" y="-9" type="curve" smooth="yes"/>
			<point x="147" y="-9"/>
		</contour>
	</outline>
</glyph>
<glyph name="ij" format="2">
	<advance width="570"/>
	<unicode hex="0133"/>
	<note>
		ij
	</note>
	<outline>
		<contour>
			<point x="183" y="22"/>
			<point x="191" y="61" type="curve" smooth="yes"/>
			<point x="270" y="437" type="line" smooth="yes"/>
			<point x="271" y="442"/>
			<point x="272" y="449"/>
			<point x="272" y="455" type="curve" smooth="yes"/>
			<point x="272" y="504"/>
			<point x="233" y="543"/>
			<point x="184" y="543" type="curve" smooth="yes"/>
			<point x="142" y="543"/>
			<point x="106" y="513"/>
			<point x="98" y="473" type="curve" smooth="yes"/>
			<point x="19" y="97" type="line" smooth="yes"/>
			<point x="18" y="92"/>
			<point x="17" y="85"/>
			<point x="17" y="79" type="curve" smooth="yes"/>
			<point x="17" y="30"/>
			<point x="56" y="-9"/>
			<point x="105" y="-9" type="curve" smooth="yes"/>
			<point x="147" y="-9"/>
		</contour>
		<contour>
			<point x="467" y="16" type="curve" smooth="yes"/>
			<point x="556" y="437" type="line" smooth="yes"/>
			<point x="557" y="443"/>
			<point x="558" y="449"/>
			<point x="558" y="455" type="curve" smooth="yes"/>
			<point x="558" y="504"/>
			<point x="519" y="543"/>
			<point x="470" y="543" type="curve" smooth="yes"/>
			<point x="428" y="543"/>
			<point x="392" y="512"/>
			<point x="384" y="473" type="curve" smooth="yes"/>
			<point x="287" y="15" type="line" smooth="yes"/>
			<point x="284" y="0"/>
			<point x="279" y="-19"/>
			<point x="275" y="-33" type="curve" smooth="yes"/>
			<point x="264" y="-68"/>
			<point x="242" y="-83"/>
			<point x="202" y="-85" type="curve" smooth="yes"/>
			<point x="169" y="-87"/>
			<point x="142" y="-114"/>
			<point x="142" y="-148" type="curve" smooth="yes"/>
			<point x="142" y="-180"/>
			<point x="167" y="-206"/>
			<point x="197" y="-210" type="curve"/>
			<point x="352" y="-210"/>
			<point x="423" y="-148"/>
			<point x="451" y="-48" type="curve" smooth="yes"/>
			<point x="456" y="-30"/>
			<point x="463" y="-4"/>
		</contour>
		<contour>
			<point x="173" y="574"/>
			<point x="222" y="574" type="curve" smooth="yes"/>
			<point x="261" y="574" type="line" smooth="yes"/>
			<point x="296" y="574"/>
			<point x="325" y="603"/>
			<point x="325" y="638" type="curve" smooth="yes"/>
			<point x="325" y="645"/>
			<point x="325" y="654"/>
			<point x="323" y="660" type="curve" smooth="yes"/>
			<point x="322" y="664"/>
			<point x="322" y="667"/>
			<point x="322" y="671" type="curve" smooth="yes"/>
			<point x="322" y="721"/>
			<point x="281" y="762"/>
			<point x="231" y="762" type="curve" smooth="yes"/>
			<point x="216" y="762"/>
			<point x="202" y="757"/>
			<point x="190" y="751" type="curve" smooth="yes"/>
			<point x="157" y="734"/>
			<point x="133" y="702"/>
			<point x="133" y="663" type="curve" smooth="yes"/>
			<point x="133" y="614"/>
		</contour>
		<contour>
			<point x="455" y="575"/>
			<point x="503" y="575" type="curve" smooth="yes"/>
			<point x="527" y="575" type="line" smooth="yes"/>
			<point x="575" y="575"/>
			<point x="615" y="614"/>
			<point x="615" y="663" type="curve" smooth="yes"/>
			<point x="615" y="712"/>
			<point x="575" y="751"/>
			<point x="527" y="751" type="curve" smooth="yes"/>
			<point x="503" y="751" type="line" smooth="yes"/>
			<point x="455" y="751"/>
			<point x="415" y="712"/>
			<point x="415" y="663" type="curve" smooth="yes"/>
			<point x="415" y="614"/>
		</contour>
	</outline>
</glyph>
<glyph name="uni0136" format="2">
	<advance width="743"/>
	<unicode hex="0136"/>
	<note>
		Kcommaaccent
	</note>
	<outline>
		<contour>
			<point x="594" y="136" type="curve" smooth="yes"/>
			<point x="461" y="365" type="line"/>
			<point x="696" y="573" type="line" smooth="yes"/>
			<point x="761" y="631"/>
			<point x="754" y="690"/>
			<point x="681" y="690" type="curve" smooth="yes"/>
			<point x="633" y="690"/>
			<point x="598" y="677"/>
			<point x="563" y="644" type="curve" smooth="yes"/>
			<point x="286" y="385" type="line"/>
			<point x="330" y="593" type="line" smooth="yes"/>
			<point x="331" y="598"/>
			<point x="331" y="605"/>
			<point x="331" y="611" type="curve" smooth="yes"/>
			<point x="331" y="660"/>
			<point x="292" y="699"/>
			<point x="243" y="699" type="curve" smooth="yes"/>
			<point x="201" y="699"/>
			<point x="165" y="669"/>
			<point x="157" y="629" type="curve" smooth="yes"/>
			<point x="45" y="97" type="line" smooth="yes"/>
			<point x="44" y="92"/>
			<point x="43" y="85"/>
			<point x="43" y="79" type="curve" smooth="yes"/>
			<point x="43" y="30"/>
			<point x="82" y="-9"/>
			<point x="131" y="-9" type="curve" smooth="yes"/>
			<point x="173" y="-9"/>
			<point x="209" y="21"/>
			<point x="217" y="61" type="curve" smooth="yes"/>
			<point x="249" y="212" type="line"/>
			<point x="309" y="266" type="line"/>
			<point x="426" y="43" type="line" smooth="yes"/>
			<point x="442" y="13"/>
			<point x="474" y="-9"/>
			<point x="511" y="-9" type="curve" smooth="yes"/>
			<point x="564" y="-9"/>
			<point x="607" y="34"/>
			<point x="607" y="87" type="curve" smooth="yes"/>
			<point x="607" y="105"/>
			<point x="602" y="121"/>
		</contour>
		<contour>
			<point x="263" y="-33"/>
			<point x="248" y="-55" type="curve" smooth="yes"/>
			<point x="176" y="-162" type="line" smooth="yes"/>
			<point x="172" y="-168"/>
			<point x="169" y="-176"/>
			<point x="169" y="-184" type="curve" smooth="yes"/>
			<point x="169" y="-207"/>
			<point x="187" y="-225"/>
			<point x="209" y="-225" type="curve" smooth="yes"/>
			<point x="222" y="-225"/>
			<point x="234" y="-219"/>
			<point x="241" y="-210" type="curve" smooth="yes"/>
			<point x="312" y="-123" type="line" smooth="yes"/>
			<point x="351" y="-74"/>
			<point x="300" y="-6"/>
			<point x="300" y="-6" type="curve" smooth="yes"/>
			<point x="271" y="-6"/>
		</contour>
	</outline>
</glyph>
<glyph name="uni0137" format="2">
	<advance width="632"/>
	<unicode hex="0137"/>
	<note>
		kcommaaccent
	</note>
	<outline>
		<contour>
			<point x="511" y="119"/>
			<point x="503" y="133" type="curve" smooth="yes"/>
			<point x="412" y="289" type="line"/>
			<point x="558" y="417" type="line" smooth="yes"/>
			<point x="623" y="475"/>
			<point x="617" y="534"/>
			<point x="547" y="534" type="curve" smooth="yes"/>
			<point x="499" y="534"/>
			<point x="465" y="521"/>
			<point x="430" y="487" type="curve" smooth="yes"/>
			<point x="244" y="310" type="line"/>
			<point x="313" y="638" type="line" smooth="yes"/>
			<point x="314" y="643"/>
			<point x="315" y="650"/>
			<point x="315" y="656" type="curve" smooth="yes"/>
			<point x="315" y="705"/>
			<point x="276" y="744"/>
			<point x="227" y="744" type="curve" smooth="yes"/>
			<point x="185" y="744"/>
			<point x="149" y="713"/>
			<point x="141" y="674" type="curve" smooth="yes"/>
			<point x="19" y="97" type="line" smooth="yes"/>
			<point x="18" y="91"/>
			<point x="17" y="85"/>
			<point x="17" y="79" type="curve" smooth="yes"/>
			<point x="17" y="30"/>
			<point x="56" y="-9"/>
			<point x="105" y="-9" type="curve" smooth="yes"/>
			<point x="147" y="-9"/>
			<point x="183" y="22"/>
			<point x="191" y="61" type="curve" smooth="yes"/>
			<point x="211" y="156" type="line"/>
			<point x="258" y="198" type="line"/>
			<point x="337" y="42" type="line" smooth="yes"/>
			<point x="352" y="12"/>
			<point x="385" y="-9"/>
			<point x="421" y="-9" type="curve" smooth="yes"/>
			<point x="473" y="-9"/>
			<point x="516" y="33"/>
			<point x="516" y="85" type="curve" smooth="yes"/>
			<point x="516" y="103"/>
		</contour>
		<contour>
			<point x="220" y="-33"/>
			<point x="205" y="-55" type="curve" smooth="yes"/>
			<point x="133" y="-162" type="line" smooth="yes"/>
			<point x="129" y="-168"/>
			<point x="126" y="-176"/>
			<point x="126" y="-184" type="curve" smooth="yes"/>
			<point x="126" y="-207"/>
			<point x="144" y="-225"/>
			<point x="166" y="-225" type="curve" smooth="yes"/>
			<point x="179" y="-225"/>
			<point x="191" y="-219"/>
			<point x="198" y="-210" type="curve" smooth="yes"/>
			<point x="269" y="-123" type="line" smooth="yes"/>
			<point x="308" y="-74"/>
			<point x="257" y="-6"/>
			<point x="257" y="-6" type="curve" smooth="yes"/>
			<point x="228" y="-6"/>
		</contour>
	</outline>
</glyph>
<glyph name="uni013C" format="2">
	<advance width="305"/>
	<unicode hex="013C"/>
	<note>
		lcommaaccent
	</note>
	<outline>
		<contour>
			<point x="214" y="192" type="curve" smooth="yes"/>
			<point x="309" y="638" type="line" smooth="yes"/>
			<point x="310" y="644"/>
			<point x="311" y="650"/>
			<point x="311" y="656" type="curve" smooth="yes"/>
			<point x="311" y="705"/>
			<point x="272" y="744"/>
			<point x="223" y="744" type="curve" smooth="yes"/>
			<point x="181" y="744"/>
			<point x="145" y="713"/>
			<point x="137" y="674" type="curve" smooth="yes"/>
			<point x="34" y="189" type="line" smooth="yes"/>
			<point x="25" y="149"/>
			<point x="20" y="122"/>
			<point x="16" y="94" type="curve" smooth="yes"/>
			<point x="5" y="23"/>
			<point x="45" y="-10"/>
			<point x="128" y="-10" type="curve" smooth="yes"/>
			<point x="151" y="-10"/>
			<point x="171" y="-9"/>
			<point x="192" y="-9" type="curve" smooth="yes"/>
			<point x="227" y="-8"/>
			<point x="255" y="22"/>
			<point x="255" y="57" type="curve" smooth="yes"/>
			<point x="255" y="84"/>
			<point x="240" y="111"/>
			<point x="217" y="121" type="curve" smooth="yes"/>
			<point x="207" y="125"/>
			<point x="205" y="132"/>
			<point x="206" y="143" type="curve" smooth="yes"/>
			<point x="207" y="156"/>
			<point x="209" y="167"/>
		</contour>
		<contour>
			<point x="38" y="-210" type="curve" smooth="yes"/>
			<point x="109" y="-123" type="line" smooth="yes"/>
			<point x="148" y="-74"/>
			<point x="97" y="-6"/>
			<point x="97" y="-6" type="curve" smooth="yes"/>
			<point x="68" y="-6"/>
			<point x="60" y="-32"/>
			<point x="45" y="-55" type="curve" smooth="yes"/>
			<point x="-27" y="-162" type="line" smooth="yes"/>
			<point x="-31" y="-168"/>
			<point x="-34" y="-176"/>
			<point x="-34" y="-185" type="curve" smooth="yes"/>
			<point x="-34" y="-207"/>
			<point x="-16" y="-225"/>
			<point x="6" y="-225" type="curve" smooth="yes"/>
			<point x="19" y="-225"/>
			<point x="31" y="-219"/>
		</contour>
	</outline>
</glyph>
<glyph name="Ldot" format="2">
	<advance width="628"/>
	<unicode hex="013F"/>
	<note>
		Ldot
	</note>
	<outline>
		<contour>
			<point x="543" y="152"/>
			<point x="501" y="152" type="curve" smooth="yes"/>
			<point x="236" y="152" type="line"/>
			<point x="329" y="593" type="line" smooth="yes"/>
			<point x="330" y="598"/>
			<point x="331" y="605"/>
			<point x="331" y="611" type="curve" smooth="yes"/>
			<point x="331" y="660"/>
			<point x="292" y="699"/>
			<point x="243" y="699" type="curve" smooth="yes"/>
			<point x="201" y="699"/>
			<point x="165" y="668"/>
			<point x="157" y="629" type="curve" smooth="yes"/>
			<point x="46" y="104" type="line" smooth="yes"/>
			<point x="32" y="39"/>
			<point x="64" y="0"/>
			<point x="130" y="0" type="curve" smooth="yes"/>
			<point x="501" y="0" type="line" smooth="yes"/>
			<point x="543" y="0"/>
			<point x="577" y="34"/>
			<point x="577" y="76" type="curve" smooth="yes"/>
			<point x="577" y="118"/>
		</contour>
		<contour>
			<point x="457" y="300" type="curve" smooth="yes"/>
			<point x="514" y="300"/>
			<point x="567" y="343"/>
			<point x="579" y="400" type="curve" smooth="yes"/>
			<point x="591" y="457"/>
			<point x="557" y="500"/>
			<point x="500" y="500" type="curve" smooth="yes"/>
			<point x="443" y="500"/>
			<point x="391" y="457"/>
			<point x="379" y="400" type="curve" smooth="yes"/>
			<point x="367" y="343"/>
			<point x="400" y="300"/>
		</contour>
	</outline>
</glyph>
<glyph name="Lslash" format="2">
	<advance width="668"/>
	<unicode hex="0141"/>
	<note>
		Lslash
	</note>
	<outline>
		<contour>
			<point x="583" y="152"/>
			<point x="541" y="152" type="curve" smooth="yes"/>
			<point x="276" y="152" type="line"/>
			<point x="324" y="380" type="line"/>
			<point x="409" y="420" type="line" smooth="yes"/>
			<point x="425" y="428"/>
			<point x="436" y="443"/>
			<point x="436" y="462" type="curve" smooth="yes"/>
			<point x="436" y="487"/>
			<point x="415" y="508"/>
			<point x="390" y="508" type="curve" smooth="yes"/>
			<point x="383" y="508"/>
			<point x="376" y="506"/>
			<point x="370" y="503" type="curve" smooth="yes"/>
			<point x="348" y="493" type="line"/>
			<point x="369" y="593" type="line" smooth="yes"/>
			<point x="370" y="599"/>
			<point x="371" y="605"/>
			<point x="371" y="611" type="curve" smooth="yes"/>
			<point x="371" y="660"/>
			<point x="332" y="699"/>
			<point x="283" y="699" type="curve" smooth="yes"/>
			<point x="241" y="699"/>
			<point x="205" y="668"/>
			<point x="197" y="629" type="curve" smooth="yes"/>
			<point x="148" y="398" type="line"/>
			<point x="54" y="353" type="line" smooth="yes"/>
			<point x="38" y="345"/>
			<point x="28" y="330"/>
			<point x="28" y="312" type="curve" smooth="yes"/>
			<point x="28" y="286"/>
			<point x="49" y="266"/>
			<point x="74" y="266" type="curve" smooth="yes"/>
			<point x="81" y="266"/>
			<point x="88" y="267"/>
			<point x="94" y="270" type="curve" smooth="yes"/>
			<point x="124" y="285" type="line"/>
			<point x="86" y="104" type="line" smooth="yes"/>
			<point x="72" y="39"/>
			<point x="104" y="0"/>
			<point x="170" y="0" type="curve" smooth="yes"/>
			<point x="541" y="0" type="line" smooth="yes"/>
			<point x="583" y="0"/>
			<point x="617" y="34"/>
			<point x="617" y="76" type="curve" smooth="yes"/>
			<point x="617" y="118"/>
		</contour>
	</outline>
</glyph>
<glyph name="lslash" format="2">
	<advance width="337"/>
	<unicode hex="0142"/>
	<note>
		lslash
	</note>
	<outline>
		<contour>
			<point x="228" y="143" type="curve" smooth="yes"/>
			<point x="229" y="156"/>
			<point x="231" y="167"/>
			<point x="236" y="192" type="curve" smooth="yes"/>
			<point x="264" y="320" type="line"/>
			<point x="324" y="354" type="line" smooth="yes"/>
			<point x="338" y="362"/>
			<point x="348" y="376"/>
			<point x="348" y="394" type="curve" smooth="yes"/>
			<point x="348" y="419"/>
			<point x="327" y="440"/>
			<point x="302" y="440" type="curve" smooth="yes"/>
			<point x="298" y="440"/>
			<point x="293" y="440"/>
			<point x="289" y="439" type="curve"/>
			<point x="331" y="638" type="line" smooth="yes"/>
			<point x="332" y="644"/>
			<point x="333" y="650"/>
			<point x="333" y="656" type="curve" smooth="yes"/>
			<point x="333" y="705"/>
			<point x="294" y="744"/>
			<point x="245" y="744" type="curve" smooth="yes"/>
			<point x="203" y="744"/>
			<point x="167" y="713"/>
			<point x="159" y="674" type="curve" smooth="yes"/>
			<point x="85" y="325" type="line"/>
			<point x="24" y="291" type="line" smooth="yes"/>
			<point x="10" y="283"/>
			<point x="1" y="268"/>
			<point x="1" y="251" type="curve" smooth="yes"/>
			<point x="1" y="221"/>
			<point x="31" y="198"/>
			<point x="59" y="206" type="curve"/>
			<point x="56" y="189" type="line" smooth="yes"/>
			<point x="47" y="149"/>
			<point x="42" y="122"/>
			<point x="38" y="94" type="curve" smooth="yes"/>
			<point x="27" y="23"/>
			<point x="67" y="-10"/>
			<point x="150" y="-10" type="curve" smooth="yes"/>
			<point x="173" y="-10"/>
			<point x="193" y="-9"/>
			<point x="214" y="-9" type="curve" smooth="yes"/>
			<point x="249" y="-8"/>
			<point x="277" y="22"/>
			<point x="277" y="57" type="curve" smooth="yes"/>
			<point x="277" y="84"/>
			<point x="262" y="111"/>
			<point x="239" y="121" type="curve" smooth="yes"/>
			<point x="229" y="125"/>
			<point x="227" y="132"/>
		</contour>
	</outline>
</glyph>
<glyph name="Nacute" format="2">
	<advance width="794"/>
	<unicode hex="0143"/>
	<note>
		Nacute
	</note>
	<outline>
		<contour>
			<point x="523" y="726"/>
			<point x="524" y="727" type="curve" smooth="yes"/>
			<point x="612" y="801"/>
			<point x="605" y="868"/>
			<point x="605" y="868" type="curve" smooth="yes"/>
			<point x="568" y="861"/>
			<point x="534" y="842"/>
			<point x="512" y="813" type="curve" smooth="yes"/>
			<point x="486" y="778"/>
			<point x="523" y="726"/>
			<point x="523" y="726" type="curve"/>
			<point x="523" y="726"/>
		</contour>
		<contour>
			<point x="530" y="0" type="curve" smooth="yes"/>
			<point x="598" y="0" type="line" smooth="yes"/>
			<point x="655" y="0"/>
			<point x="690" y="27"/>
			<point x="702" y="84" type="curve" smooth="yes"/>
			<point x="809" y="593" type="line" smooth="yes"/>
			<point x="810" y="598"/>
			<point x="811" y="605"/>
			<point x="811" y="611" type="curve" smooth="yes"/>
			<point x="811" y="660"/>
			<point x="772" y="699"/>
			<point x="723" y="699" type="curve" smooth="yes"/>
			<point x="681" y="699"/>
			<point x="645" y="669"/>
			<point x="637" y="629" type="curve" smooth="yes"/>
			<point x="588" y="395" type="line" smooth="yes"/>
			<point x="579" y="355"/>
			<point x="565" y="284"/>
			<point x="555" y="214" type="curve"/>
			<point x="424" y="602" type="line" smooth="yes"/>
			<point x="405" y="658"/>
			<point x="351" y="699"/>
			<point x="288" y="699" type="curve" smooth="yes"/>
			<point x="219" y="699"/>
			<point x="162" y="650"/>
			<point x="148" y="585" type="curve" smooth="yes"/>
			<point x="45" y="97" type="line" smooth="yes"/>
			<point x="44" y="92"/>
			<point x="43" y="85"/>
			<point x="43" y="79" type="curve" smooth="yes"/>
			<point x="43" y="30"/>
			<point x="82" y="-9"/>
			<point x="131" y="-9" type="curve" smooth="yes"/>
			<point x="173" y="-9"/>
			<point x="209" y="21"/>
			<point x="217" y="61" type="curve" smooth="yes"/>
			<point x="264" y="285" type="line" smooth="yes"/>
			<point x="273" y="325"/>
			<point x="286" y="386"/>
			<point x="295" y="456" type="curve"/>
			<point x="423" y="77" type="line" smooth="yes"/>
			<point x="441" y="24"/>
			<point x="475" y="0"/>
		</contour>
	</outline>
</glyph>
<glyph name="Ohungarumlaut" format="2">
	<advance width="788"/>
	<unicode hex="0150"/>
	<note>
		Ohungarumlaut
	</note>
	<outline>
		<contour>
			<point x="402" y="727"/>
			<point x="403" y="728" type="curve" smooth="yes"/>
			<point x="491" y="802"/>
			<point x="485" y="869"/>
			<point x="485" y="869" type="curve" smooth="yes"/>
			<point x="447" y="863"/>
			<point x="413" y="842"/>
			<point x="391" y="814" type="curve" smooth="yes"/>
			<point x="365" y="779"/>
			<point x="402" y="727"/>
			<point x="402" y="727" type="curve"/>
			<point x="402" y="727"/>
		</contour>
		<contour>
			<point x="601" y="798"/>
			<point x="601" y="754"/>
			<point x="711" y="794"/>
			<point x="718" y="807"/>
			<point x="718" y="823" type="curve" smooth="yes"/>
			<point x="718" y="849"/>
			<point x="697" y="870"/>
			<point x="671" y="870" type="curve" smooth="yes"/>
			<point x="665" y="870"/>
			<point x="660" y="869"/>
			<point x="655" y="867" type="curve" smooth="yes"/>
			<point x="625" y="856"/>
			<point x="601" y="830"/>
			<point x="601" y="798" type="curve" smooth="yes"/>
			<point x="601" y="798"/>
		</contour>
		<contour>
			<point x="500" y="704" type="curve" smooth="yes"/>
			<point x="285" y="704"/>
			<point x="118" y="567"/>
			<point x="71" y="345" type="curve" smooth="yes"/>
			<point x="24" y="124"/>
			<point x="133" y="-14"/>
			<point x="348" y="-14" type="curve" smooth="yes"/>
			<point x="563" y="-14"/>
			<point x="730" y="124"/>
			<point x="777" y="345" type="curve" smooth="yes"/>
			<point x="824" y="567"/>
			<point x="715" y="704"/>
		</contour>
		<contour>
			<point x="376" y="118" type="curve" smooth="yes"/>
			<point x="272" y="118"/>
			<point x="224" y="199"/>
			<point x="255" y="345" type="curve" smooth="yes"/>
			<point x="286" y="492"/>
			<point x="368" y="572"/>
			<point x="472" y="572" type="curve" smooth="yes"/>
			<point x="576" y="572"/>
			<point x="624" y="492"/>
			<point x="593" y="345" type="curve" smooth="yes"/>
			<point x="562" y="199"/>
			<point x="480" y="118"/>
		</contour>
	</outline>
</glyph>
<glyph name="OE" format="2">
	<advance width="1135"/>
	<unicode hex="0152"/>
	<note>
		OE
	</note>
	<outline>
		<contour>
			<point x="1039" y="140"/>
			<point x="1001" y="140" type="curve" smooth="yes"/>
			<point x="729" y="140" type="line"/>
			<point x="758" y="276" type="line"/>
			<point x="1030" y="276" type="line" smooth="yes"/>
			<point x="1068" y="276"/>
			<point x="1100" y="307"/>
			<point x="1100" y="346" type="curve" smooth="yes"/>
			<point x="1100" y="385"/>
			<point x="1068" y="416"/>
			<point x="1030" y="416" type="curve" smooth="yes"/>
			<point x="788" y="416" type="line"/>
			<point x="817" y="550" type="line"/>
			<point x="1108" y="550" type="line" smooth="yes"/>
			<point x="1146" y="550"/>
			<point x="1178" y="581"/>
			<point x="1178" y="620" type="curve" smooth="yes"/>
			<point x="1178" y="659"/>
			<point x="1146" y="690"/>
			<point x="1108" y="690" type="curve" smooth="yes"/>
			<point x="752" y="690" type="line" smooth="yes"/>
			<point x="695" y="690"/>
			<point x="661" y="663"/>
			<point x="649" y="606" type="curve" smooth="yes"/>
			<point x="645" y="588" type="line"/>
			<point x="636" y="622" type="line" smooth="yes"/>
			<point x="630" y="646"/>
			<point x="616" y="674"/>
			<point x="573" y="690" type="curve" smooth="yes"/>
			<point x="545" y="701"/>
			<point x="511" y="704"/>
			<point x="460" y="704" type="curve" smooth="yes"/>
			<point x="285" y="704"/>
			<point x="118" y="567"/>
			<point x="71" y="345" type="curve" smooth="yes"/>
			<point x="24" y="124"/>
			<point x="133" y="-14"/>
			<point x="308" y="-14" type="curve" smooth="yes"/>
			<point x="369" y="-14"/>
			<point x="406" y="-9"/>
			<point x="443" y="6" type="curve" smooth="yes"/>
			<point x="483" y="24"/>
			<point x="505" y="49"/>
			<point x="530" y="85" type="curve" smooth="yes"/>
			<point x="542" y="103" type="line"/>
			<point x="531" y="52" type="line" smooth="yes"/>
			<point x="524" y="19"/>
			<point x="560" y="0"/>
			<point x="626" y="0" type="curve" smooth="yes"/>
			<point x="1001" y="0" type="line" smooth="yes"/>
			<point x="1039" y="0"/>
			<point x="1071" y="31"/>
			<point x="1071" y="70" type="curve" smooth="yes"/>
			<point x="1071" y="109"/>
		</contour>
		<contour>
			<point x="376" y="118" type="curve" smooth="yes"/>
			<point x="272" y="118"/>
			<point x="224" y="199"/>
			<point x="255" y="345" type="curve" smooth="yes"/>
			<point x="286" y="492"/>
			<point x="368" y="572"/>
			<point x="472" y="572" type="curve" smooth="yes"/>
			<point x="576" y="572"/>
			<point x="624" y="492"/>
			<point x="593" y="345" type="curve" smooth="yes"/>
			<point x="562" y="199"/>
			<point x="480" y="118"/>
		</contour>
	</outline>
</glyph>
<glyph name="uni0157" format="2">
	<advance width="420"/>
	<unicode hex="0157"/>
	<note>
		rcommaaccent
	</note>
	<outline>
		<contour>
			<point x="399" y="543" type="curve" smooth="yes"/>
			<point x="388" y="540"/>
			<point x="375" y="536"/>
			<point x="363" y="531" type="curve" smooth="yes"/>
			<point x="321" y="514"/>
			<point x="285" y="480"/>
			<point x="270" y="437" type="curve"/>
			<point x="271" y="443"/>
			<point x="272" y="449"/>
			<point x="272" y="455" type="curve" smooth="yes"/>
			<point x="272" y="504"/>
			<point x="233" y="543"/>
			<point x="184" y="543" type="curve" smooth="yes"/>
			<point x="142" y="543"/>
			<point x="106" y="512"/>
			<point x="98" y="473" type="curve" smooth="yes"/>
			<point x="19" y="97" type="line" smooth="yes"/>
			<point x="18" y="92"/>
			<point x="17" y="85"/>
			<point x="17" y="79" type="curve" smooth="yes"/>
			<point x="17" y="30"/>
			<point x="56" y="-9"/>
			<point x="105" y="-9" type="curve" smooth="yes"/>
			<point x="147" y="-9"/>
			<point x="183" y="21"/>
			<point x="191" y="61" type="curve" smooth="yes"/>
			<point x="219" y="196" type="line" smooth="yes"/>
			<point x="249" y="333"/>
			<point x="296" y="390"/>
			<point x="398" y="397" type="curve" smooth="yes"/>
			<point x="438" y="400"/>
			<point x="470" y="433"/>
			<point x="470" y="474" type="curve" smooth="yes"/>
			<point x="470" y="488"/>
			<point x="467" y="502"/>
			<point x="462" y="515" type="curve" smooth="yes"/>
			<point x="451" y="543"/>
			<point x="426" y="549"/>
		</contour>
		<contour>
			<point x="42" y="-33"/>
			<point x="27" y="-55" type="curve" smooth="yes"/>
			<point x="-45" y="-162" type="line" smooth="yes"/>
			<point x="-49" y="-168"/>
			<point x="-52" y="-176"/>
			<point x="-52" y="-184" type="curve" smooth="yes"/>
			<point x="-52" y="-207"/>
			<point x="-34" y="-225"/>
			<point x="-12" y="-225" type="curve" smooth="yes"/>
			<point x="1" y="-225"/>
			<point x="13" y="-219"/>
			<point x="20" y="-210" type="curve" smooth="yes"/>
			<point x="91" y="-123" type="line" smooth="yes"/>
			<point x="130" y="-74"/>
			<point x="79" y="-6"/>
			<point x="79" y="-6" type="curve" smooth="yes"/>
			<point x="50" y="-6"/>
		</contour>
	</outline>
</glyph>
<glyph name="Rcaron" format="2">
	<advance width="682"/>
	<unicode hex="0158"/>
	<note>
		Rcaron
	</note>
	<outline>
		<contour>
			<point x="390" y="735"/>
			<point x="424" y="735" type="curve" smooth="yes"/>
			<point x="499" y="735" type="line" smooth="yes"/>
			<point x="545" y="735"/>
			<point x="585" y="769"/>
			<point x="590" y="815" type="curve" smooth="yes"/>
			<point x="590" y="819"/>
			<point x="591" y="823"/>
			<point x="591" y="827" type="curve" smooth="yes"/>
			<point x="591" y="850"/>
			<point x="572" y="869"/>
			<point x="549" y="869" type="curve" smooth="yes"/>
			<point x="534" y="869"/>
			<point x="520" y="862"/>
			<point x="513" y="850" type="curve" smooth="yes"/>
			<point x="472" y="784" type="line"/>
			<point x="463" y="822" type="line" smooth="yes"/>
			<point x="457" y="847"/>
			<point x="444" y="860"/>
			<point x="424" y="860" type="curve" smooth="yes"/>
			<point x="390" y="860"/>
			<point x="361" y="832"/>
			<point x="361" y="797" type="curve" smooth="yes"/>
			<point x="361" y="763"/>
		</contour>
		<contour>
			<point x="597" y="168" type="curve" smooth="yes"/>
			<point x="605" y="251"/>
			<point x="590" y="304"/>
			<point x="524" y="330" type="curve"/>
			<point x="622" y="357"/>
			<point x="681" y="415"/>
			<point x="699" y="502" type="curve" smooth="yes"/>
			<point x="725" y="624"/>
			<point x="649" y="673"/>
			<point x="551" y="685" type="curve" smooth="yes"/>
			<point x="515" y="689"/>
			<point x="487" y="690"/>
			<point x="444" y="690" type="curve" smooth="yes"/>
			<point x="256" y="690" type="line" smooth="yes"/>
			<point x="199" y="690"/>
			<point x="164" y="663"/>
			<point x="152" y="606" type="curve" smooth="yes"/>
			<point x="45" y="97" type="line" smooth="yes"/>
			<point x="44" y="92"/>
			<point x="43" y="85"/>
			<point x="43" y="79" type="curve" smooth="yes"/>
			<point x="43" y="30"/>
			<point x="82" y="-9"/>
			<point x="131" y="-9" type="curve" smooth="yes"/>
			<point x="173" y="-9"/>
			<point x="209" y="21"/>
			<point x="217" y="61" type="curve" smooth="yes"/>
			<point x="259" y="262" type="line"/>
			<point x="299" y="262" type="line" smooth="yes"/>
			<point x="319" y="262"/>
			<point x="336" y="262"/>
			<point x="356" y="261" type="curve" smooth="yes"/>
			<point x="402" y="258"/>
			<point x="422" y="214"/>
			<point x="415" y="138" type="curve" smooth="yes"/>
			<point x="413" y="118"/>
			<point x="413" y="100"/>
			<point x="413" y="81" type="curve" smooth="yes"/>
			<point x="413" y="31"/>
			<point x="453" y="-9"/>
			<point x="503" y="-9" type="curve" smooth="yes"/>
			<point x="558" y="-9"/>
			<point x="597" y="37"/>
			<point x="595" y="86" type="curve" smooth="yes"/>
			<point x="593" y="110"/>
			<point x="594" y="137"/>
		</contour>
		<contour>
			<point x="352" y="392" type="curve" smooth="yes"/>
			<point x="287" y="392" type="line"/>
			<point x="321" y="550" type="line"/>
			<point x="391" y="550" type="line" smooth="yes"/>
			<point x="410" y="550"/>
			<point x="426" y="550"/>
			<point x="438" y="549" type="curve" smooth="yes"/>
			<point x="484" y="545"/>
			<point x="517" y="529"/>
			<point x="505" y="471" type="curve" smooth="yes"/>
			<point x="492" y="413"/>
			<point x="447" y="397"/>
			<point x="400" y="393" type="curve" smooth="yes"/>
			<point x="387" y="392"/>
			<point x="371" y="392"/>
		</contour>
	</outline>
</glyph>
